<svg xmlns="http://www.w3.org/2000/svg" viewBox="0 0 650 120.8"><g fill="#028CC7"><path d="M325.4 74.3c-9.5 0-16.1-7.3-16.1-17.7 0-10.6 6.5-17.7 16.1-17.7 9.5 0 16.1 7.3 16.1 17.7s-6.6 17.7-16.1 17.7m0-46.7c-16.7 0-28.7 12.2-28.7 29s12.1 29 28.7 29 28.7-12.2 28.7-29c.1-16.8-12-29-28.7-29m68.7 21.6l-13.4-21.4H365v56h13V47.3l16.5 23.1L411 47.3v36.5h12v-56h-15.4l-13.5 21.4zm66 5.6H448v-15h12.1c4.5 0 7.6 3.4 7.6 7.5-.1 4.1-3.1 7.5-7.6 7.5m1.2-27H436v56h12v-18h13.3c11.1 0 18.9-8.3 18.9-19s-7.7-19-18.9-19m54.8 46.5c-9.5 0-16.1-7.3-16.1-17.7 0-10.6 6.5-17.7 16.1-17.7 9.5 0 16.1 7.3 16.1 17.7s-6.6 17.7-16.1 17.7m0-46.7c-16.7 0-28.7 12.2-28.7 29s12.1 29 28.7 29 28.7-12.2 28.7-29c.1-16.8-12-29-28.7-29m60.8 22.1c-6.5-1.6-10.4-2.8-10.4-5.5 0-3.1 2.9-5.1 7.5-5.1 5.6 0 10.7 2 14.3 5.6l1.2 1.2 7.2-9.4-1-.9c-5.4-5.2-12.5-7.8-21-7.8-12.1 0-20.9 7.2-20.9 17 0 12.3 11 15.1 19.9 17.4 6.9 1.8 11.1 3.1 11.1 6.4 0 2.6-2.4 5.7-9.2 5.7-8.1 0-13.3-4.3-15.7-6.8l-1.3-1.3-7 9.7.9.9c5.5 5.8 13.3 8.9 22.7 8.9 16.3 0 22.1-9.3 22.1-17.9.2-12.9-11.7-15.9-20.4-18.1m73.1-9.9v-12h-42v56h42v-11h-30v-12h26v-11h-26v-10h30zM238 56.9c0 16.8 11.9 29 29 29 8.9 0 16.4-3.6 21.7-10.7l-8-8c-2.4 4-8.3 7.4-13.2 7.4-9.8 0-16.8-7.6-16.8-17.8S257.8 39 267.6 39c4.9 0 10.9 3.4 13.3 7.4l8.1-8c-5.3-7.1-13-10.7-21.9-10.7-17.2.2-29.1 12.4-29.1 29.2zm147.9 63.6l-8.2-20.8h-4.6l-8.2 20.8h4.1l1.5-4h9.5l1.5 4h4.4zm-6.7-7.2h-7.5l3.7-9.9 3.8 9.9zm28.5 7.2V99.7h-3.6v14.4l-10.6-14.4h-3.8v20.8h3.7v-14.9l10.8 14.9h3.5z"/><path fill-rule="evenodd" clip-rule="evenodd" d="M427 99.7h-3.7v20.8h3.7V99.7z"/><path d="M443.4 120.5c3.9 0 6-2.4 6-5.6 0-2.6-1.8-4.8-4-5.1 1.9-.4 3.6-2.2 3.6-4.8 0-2.9-2.1-5.3-5.9-5.3h-10.2v20.8h10.5zm-1-12.2h-5.8v-5.4h5.8c1.9 0 2.9 1.2 2.9 2.7 0 1.5-1 2.7-2.9 2.7m.2 8.9h-6v-5.8h6c2.1 0 3.2 1.3 3.2 2.9 0 1.9-1.2 2.9-3.2 2.9m33.7 3.3V99.7h-5.1l-5.7 13.6-5.7-13.6h-5.1v20.8h3.6V105l6.4 15.5h1.6l6.4-15.5v15.5h3.6zm25.5.3c4.2 0 6.8-2.2 8.4-4.7l-3.1-1.6c-1 1.7-3 3-5.2 3-4.1 0-7.2-3.1-7.2-7.5s3.1-7.5 7.2-7.5c2.2 0 4.2 1.3 5.2 3l3.1-1.6c-1.6-2.5-4.1-4.7-8.4-4.7-6.1 0-10.9 4.4-10.9 10.8 0 6.5 4.8 10.8 10.9 10.8m22.6 0c6.2 0 10.6-4.6 10.6-10.8 0-6.2-4.4-10.8-10.6-10.8s-10.6 4.6-10.6 10.8c0 6.3 4.3 10.8 10.6 10.8m0-3.2c-4.2 0-6.9-3.2-6.9-7.5s2.7-7.5 6.9-7.5 6.9 3.2 6.9 7.5c0 4.2-2.7 7.5-6.9 7.5m37.3 2.9V99.7h-5.1l-5.7 13.6-5.7-13.6h-5.1v20.8h3.6V105l6.4 15.5h1.6l6.4-15.5v15.5h3.6zm9.6 0v-7.8h5.5c4.3 0 6.8-3 6.8-6.5s-2.4-6.5-6.8-6.5h-9.1v20.8h3.6zm5-11h-5v-6.6h5c2.1 0 3.6 1.3 3.6 3.3 0 2-1.5 3.3-3.6 3.3m28.3 11l-8.2-20.8h-4.6l-8.2 20.8h4.1l1.5-4h9.5l1.5 4h4.4zm-6.7-7.2h-7.5l3.7-9.9 3.8 9.9zm28.5 7.2V99.7h-3.6v14.4l-10.7-14.4h-3.7v20.8h3.7v-14.9l10.8 14.9h3.5zm15.6 0v-8.7l8-12.1h-4.2l-5.7 8.9-5.7-8.9h-4.2l8.1 12.1v8.7h3.7z"/><path fill-rule="evenodd" clip-rule="evenodd" d="M120.1 96.8L81 119.3 39.1 95.2 0 72.6V24.2L41.9 0 81 22.6 120.1 0 162 24.2l39.1 22.6v48.4l-41.9 24.2-39.1-22.6zm2.8-4.9V53.2l33.5 19.4v38.7l-33.5-19.4zm-78.2 0V53.2l33.5 19.4v38.7L44.7 91.9zM5.6 69.4V30.6L39.1 50v38.7L5.6 69.4zM81 29l33.5 19.4L81 67.7 47.5 48.4 81 29zm78.2 0l33.5 19.4-33.5 19.4-33.5-19.4L159.2 29zM41.9 6.4l33.5 19.4-33.5 19.4L8.4 25.8 41.9 6.4zm78.2 0l33.5 19.4-33.5 19.4-33.5-19.4 33.5-19.4z"/></g></svg>