<svg width="216" height="165" viewBox="0 0 216 165" xmlns="http://www.w3.org/2000/svg"><title>star and planet pattern</title><g transform="matrix(-1 0 0 1 214 0)" fill="none" fill-rule="evenodd"><g transform="rotate(25 -130.312 323.823)" stroke="#2F393D" stroke-linejoin="round" stroke-width="5.185" stroke-linecap="round"><ellipse transform="rotate(-6.41 52.905 30.243)" cx="52.905" cy="30.243" rx="26.93" ry="26.911"/><path d="M78.321 21.393c15.93-.6 26.82.422 27.1 2.963.423 3.792-22.748 9.451-51.754 12.681C24.662 40.267.801 39.904.378 36.141c-.282-2.504 9.814-5.845 25.106-8.734"/></g><circle stroke="#2F393D" stroke-width="4" cx="90" cy="86" r="12"/><circle stroke="#2F393D" stroke-width="4" cx="133" cy="15" r="8"/><circle stroke="#2F393D" stroke-width="4" cx="53" cy="30" r="28"/><path d="M199.333 30.373c4.834 2.72 6.52 2.714 11.334-.04-2.72 4.834-2.714 6.52.04 11.334-4.834-2.72-6.52-2.714-11.334.04 2.714-4.834 2.714-6.527-.04-11.334z" fill="#2F393D" fill-rule="nonzero"/><path d="M199.333 30.373c4.834 2.72 6.52 2.714 11.334-.04-2.72 4.834-2.714 6.52.04 11.334-4.834-2.72-6.52-2.714-11.334.04 2.714-4.834 2.714-6.527-.04-11.334z" stroke="#2F393D" stroke-width="4.667" stroke-linejoin="round"/><path d="M69.333 149.373c4.834 2.72 6.52 2.714 11.334-.04-2.72 4.834-2.714 6.52.04 11.334-4.834-2.72-6.52-2.714-11.334.04 2.714-4.834 2.714-6.527-.04-11.334z" fill="#2F393D" fill-rule="nonzero"/><path d="M69.333 149.373c4.834 2.72 6.52 2.714 11.334-.04-2.72 4.834-2.714 6.52.04 11.334-4.834-2.72-6.52-2.714-11.334.04 2.714-4.834 2.714-6.527-.04-11.334z" stroke="#2F393D" stroke-width="4.667" stroke-linejoin="round"/><path d="M145.02 65c-1.49-5.325-2.682-6.518-8.02-7.974 5.325-1.489 6.518-2.688 7.974-8.026 1.489 5.325 2.688 6.518 8.026 7.974-5.331 1.495-6.524 2.688-7.98 8.026z" fill="#2F393D" fill-rule="nonzero"/><path d="M144.02 65c-1.49-5.325-2.682-6.518-8.02-7.974 5.325-1.489 6.518-2.688 7.974-8.026 1.489 5.325 2.688 6.518 8.026 7.974-5.331 1.495-6.524 2.688-7.98 8.026z" stroke="#2F393D" stroke-width="4.48" stroke-linecap="round" stroke-linejoin="round"/><path d="M7.28 102c-1.255-4.326-2.26-5.296-6.755-6.48 4.484-1.208 5.49-2.183 6.716-6.52 1.253 4.326 2.263 5.296 6.758 6.48-4.49 1.214-5.494 2.183-6.72 6.52z" fill="#2F393D" fill-rule="nonzero"/><path d="M6.753 102C5.5 97.674 4.495 96.704 0 95.52c4.484-1.208 5.489-2.183 6.715-6.52 1.254 4.326 2.264 5.296 6.759 6.48-4.49 1.214-5.495 2.183-6.721 6.52z" stroke="#2F393D" stroke-width="3.773" stroke-linecap="round" stroke-linejoin="round"/></g></svg>