<svg xmlns="http://www.w3.org/2000/svg" viewBox="0 0 1140 622"><title>Stars</title><circle fill="#FFF" fill-opacity=".7" cx="499" cy="2" r="1"/><circle fill="#FFF" fill-opacity=".7" cx="-11" cy="311" r="1"/><circle fill="#FFF" fill-opacity=".7" cx="39" cy="265" r="1"/><circle fill="#FFF" fill-opacity=".7" cx="151" cy="336" r="1"/><circle fill="#FFF" fill-opacity=".7" cx="202" cy="283" r="1"/><circle fill="#FFF" fill-opacity=".7" cx="151" cy="165" r="1"/><circle fill="#FFF" fill-opacity=".7" cx="204" cy="117" r="1"/><circle fill="#FFF" fill-opacity=".7" cx="168" cy="73" r="1"/><circle fill="#FFF" fill-opacity=".7" cx="258" cy="97" r="1"/><circle fill="#FFF" fill-opacity=".7" cx="30" cy="97" r="1"/><circle fill="#FFF" fill-opacity=".7" cx="62" cy="108" r="1"/><circle fill="#FFF" fill-opacity=".7" cx="59" cy="52" r="1"/><circle fill="#FFF" fill-opacity=".7" cx="106" cy="51" r="1"/><circle fill="#FFF" fill-opacity=".7" cx="83" cy="10" r="1"/><circle fill="#FFF" fill-opacity=".7" cx="152" cy="46" r="1"/><circle fill="#FFF" fill-opacity=".7" cx="209" cy="60" r="1"/><circle fill="#FFF" fill-opacity=".7" cx="258" cy="34" r="1"/><circle fill="#FFF" fill-opacity=".7" cx="598" cy="70" r="1"/><circle fill="#FFF" fill-opacity=".7" cx="627" cy="37" r="1"/><circle fill="#FFF" fill-opacity=".7" cx="668" cy="79" r="1"/><circle fill="#FFF" fill-opacity=".7" cx="728" cy="71" r="1"/><circle fill="#FFF" fill-opacity=".7" cx="700" cy="41" r="1"/><circle fill="#FFF" fill-opacity=".7" cx="922" cy="66" r="1"/><circle fill="#FFF" fill-opacity=".7" cx="1045" cy="64" r="1"/><circle fill="#FFF" fill-opacity=".7" cx="1059" cy="37" r="1"/><circle fill="#FFF" fill-opacity=".7" cx="1129" cy="7" r="1"/><circle fill="#FFF" fill-opacity=".7" cx="1109" cy="48" r="1"/><circle fill="#FFF" fill-opacity=".7" cx="920" cy="209" r="1"/><circle fill="#FFF" fill-opacity=".7" cx="811" cy="218" r="1"/><circle fill="#FFF" fill-opacity=".7" cx="1131" cy="90" r="1"/><circle fill="#FFF" fill-opacity=".7" cx="940" cy="89" r="1"/><circle fill="#FFF" fill-opacity=".7" cx="891" cy="160" r="1"/><circle fill="#FFF" fill-opacity=".7" cx="1105" cy="161" r="1"/><circle fill="#FFF" fill-opacity=".7" cx="1024" cy="130" r="1"/><circle fill="#FFF" fill-opacity=".7" cx="791" cy="284" r="1"/><circle fill="#FFF" fill-opacity=".7" cx="288" cy="256" r="1"/><circle fill="#FFF" fill-opacity=".7" cx="240" cy="221" r="1"/><circle fill="#FFF" fill-opacity=".7" cx="193" cy="256" r="1"/><circle fill="#FFF" fill-opacity=".7" cx="114" cy="271" r="1"/><circle fill="#FFF" fill-opacity=".7" cx="98" cy="326" r="1"/><circle fill="#FFF" fill-opacity=".7" cx="131" cy="406" r="1"/><circle fill="#FFF" fill-opacity=".7" cx="28" cy="376" r="1"/><circle fill="#FFF" fill-opacity=".7" cx="1" cy="221" r="1"/><circle fill="#FFF" fill-opacity=".7" cx="73" cy="185" r="1"/><circle fill="#FFF" fill-opacity=".7" cx="35" cy="141" r="1"/><circle fill="#FFF" fill-opacity=".7" cx="461" cy="76" r="1"/><circle fill="#FFF" fill-opacity=".7" cx="404" cy="90" r="1"/><circle fill="#FFF" fill-opacity=".7" cx="355" cy="64" r="1"/><circle fill="#FFF" fill-opacity=".7" cx="778" cy="151" r="1"/><circle fill="#FFF" fill-opacity=".7" cx="750" cy="121" r="1"/><circle fill="#FFF" fill-opacity=".7" cx="782" cy="26" r="1"/><circle fill="#FFF" fill-opacity=".7" cx="870" cy="39" r="1"/><circle fill="#FFF" fill-opacity=".7" cx="1151" cy="180" r="1"/><circle fill="#FFF" fill-opacity=".7" cx="1125" cy="251" r="1"/><circle fill="#FFF" fill-opacity=".7" cx="1044" cy="220" r="1"/><circle fill="#FFF" fill-opacity=".7" cx="400" cy="336" r="1"/><circle fill="#FFF" fill-opacity=".7" cx="350" cy="382" r="1"/><circle fill="#FFF" fill-opacity=".7" cx="238" cy="311" r="1"/><circle fill="#FFF" fill-opacity=".7" cx="187" cy="364" r="1"/><circle fill="#FFF" fill-opacity=".7" cx="149" cy="426" r="1"/><circle fill="#FFF" fill-opacity=".7" cx="129" cy="366" r="1"/><circle fill="#FFF" fill-opacity=".7" cx="196" cy="391" r="1"/><circle fill="#FFF" fill-opacity=".7" cx="275" cy="376" r="1"/><circle fill="#FFF" fill-opacity=".7" cx="291" cy="321" r="1"/><circle fill="#FFF" fill-opacity=".7" cx="388" cy="426" r="1"/><circle fill="#FFF" fill-opacity=".7" cx="297" cy="438" r="1"/><circle fill="#FFF" fill-opacity=".7" cx="246" cy="491" r="1"/><circle fill="#FFF" fill-opacity=".7" cx="255" cy="518" r="1"/><circle fill="#FFF" fill-opacity=".7" cx="334" cy="503" r="1"/><circle fill="#FFF" fill-opacity=".7" cx="350" cy="448" r="1"/><circle fill="#FFF" fill-opacity=".7" cx="-1" cy="506" r="1"/><circle fill="#FFF" fill-opacity=".7" cx="49" cy="552" r="1"/><circle fill="#FFF" fill-opacity=".7" cx="161" cy="481" r="1"/><circle fill="#FFF" fill-opacity=".7" cx="212" cy="534" r="1"/><circle fill="#FFF" fill-opacity=".7" cx="250" cy="596" r="1"/><circle fill="#FFF" fill-opacity=".7" cx="203" cy="561" r="1"/><circle fill="#FFF" fill-opacity=".7" cx="124" cy="546" r="1"/><circle fill="#FFF" fill-opacity=".7" cx="108" cy="491" r="1"/><circle fill="#FFF" fill-opacity=".7" cx="18" cy="449" r="1"/><circle fill="#FFF" fill-opacity=".7" cx="11" cy="596" r="1"/><circle fill="#FFF" fill-opacity=".7" cx="321" cy="196" r="1"/><circle fill="#FFF" fill-opacity=".7" cx="372" cy="143" r="1"/><circle fill="#FFF" fill-opacity=".7" cx="284" cy="131" r="1"/><circle fill="#FFF" fill-opacity=".7" cx="268" cy="186" r="1"/><circle fill="#FFF" fill-opacity=".7" cx="502" cy="525" r="1"/><circle fill="#FFF" fill-opacity=".7" cx="488" cy="498" r="1"/><circle fill="#FFF" fill-opacity=".7" cx="418" cy="468" r="1"/><circle fill="#FFF" fill-opacity=".7" cx="438" cy="509" r="1"/><circle fill="#FFF" fill-opacity=".7" cx="416" cy="551" r="1"/><circle fill="#FFF" fill-opacity=".7" cx="442" cy="622" r="1"/><circle fill="#FFF" fill-opacity=".7" cx="872" cy="360" r="1"/><circle fill="#FFF" fill-opacity=".7" cx="995" cy="362" r="1"/><circle fill="#FFF" fill-opacity=".7" cx="1009" cy="389" r="1"/><circle fill="#FFF" fill-opacity=".7" cx="1059" cy="378" r="1"/><circle fill="#FFF" fill-opacity=".7" cx="955" cy="412" r="1"/><circle fill="#FFF" fill-opacity=".7" cx="969" cy="439" r="1"/><circle fill="#FFF" fill-opacity=".7" cx="1019" cy="428" r="1"/><circle fill="#FFF" fill-opacity=".7" cx="925" cy="542" r="1"/><circle fill="#FFF" fill-opacity=".7" cx="939" cy="569" r="1"/><circle fill="#FFF" fill-opacity=".7" cx="989" cy="558" r="1"/><circle fill="#FFF" fill-opacity=".7" cx="870" cy="217" r="1"/><circle fill="#FFF" fill-opacity=".7" cx="1081" cy="336" r="1"/><circle fill="#FFF" fill-opacity=".7" cx="1131" cy="420" r="1"/><circle fill="#FFF" fill-opacity=".7" cx="1143" cy="358" r="1"/><circle fill="#FFF" fill-opacity=".7" cx="890" cy="337" r="1"/><circle fill="#FFF" fill-opacity=".7" cx="841" cy="266" r="1"/><circle fill="#FFF" fill-opacity=".7" cx="1055" cy="265" r="1"/><circle fill="#FFF" fill-opacity=".7" cx="974" cy="296" r="1"/><circle fill="#FFF" fill-opacity=".7" cx="815" cy="452" r="1"/><circle fill="#FFF" fill-opacity=".7" cx="829" cy="479" r="1"/><circle fill="#FFF" fill-opacity=".7" cx="635" cy="532" r="1"/><circle fill="#FFF" fill-opacity=".7" cx="649" cy="559" r="1"/><circle fill="#FFF" fill-opacity=".7" cx="879" cy="468" r="1"/><circle fill="#FFF" fill-opacity=".7" cx="901" cy="426" r="1"/><circle fill="#FFF" fill-opacity=".7" cx="849" cy="548" r="1"/><circle fill="#FFF" fill-opacity=".7" cx="709" cy="507" r="1"/><circle fill="#FFF" fill-opacity=".7" cx="871" cy="506" r="1"/><circle fill="#FFF" fill-opacity=".7" cx="1015" cy="492" r="1"/><circle fill="#FFF" fill-opacity=".7" cx="1029" cy="519" r="1"/><circle fill="#FFF" fill-opacity=".7" cx="1039" cy="478" r="1"/><circle fill="#FFF" fill-opacity=".7" cx="1061" cy="436" r="1"/><circle fill="#FFF" fill-opacity=".7" cx="412" cy="283" r="1"/><circle fill="#FFF" fill-opacity=".7" cx="414" cy="117" r="1"/><circle fill="#FFF" fill-opacity=".7" cx="468" cy="97" r="1"/><circle fill="#FFF" fill-opacity=".7" cx="498" cy="256" r="1"/><circle fill="#FFF" fill-opacity=".7" cx="450" cy="221" r="1"/><circle fill="#FFF" fill-opacity=".7" cx="403" cy="256" r="1"/><circle fill="#FFF" fill-opacity=".7" cx="614" cy="90" r="1"/><circle fill="#FFF" fill-opacity=".7" cx="610" cy="336" r="1"/><circle fill="#FFF" fill-opacity=".7" cx="560" cy="382" r="1"/><circle fill="#FFF" fill-opacity=".7" cx="448" cy="311" r="1"/><circle fill="#FFF" fill-opacity=".7" cx="397" cy="364" r="1"/><circle fill="#FFF" fill-opacity=".7" cx="406" cy="391" r="1"/><circle fill="#FFF" fill-opacity=".7" cx="485" cy="376" r="1"/><circle fill="#FFF" fill-opacity=".7" cx="501" cy="321" r="1"/><circle fill="#FFF" fill-opacity=".7" cx="598" cy="426" r="1"/><circle fill="#FFF" fill-opacity=".7" cx="507" cy="438" r="1"/><circle fill="#FFF" fill-opacity=".7" cx="560" cy="448" r="1"/><circle fill="#FFF" fill-opacity=".7" cx="531" cy="196" r="1"/><circle fill="#FFF" fill-opacity=".7" cx="582" cy="143" r="1"/><circle fill="#FFF" fill-opacity=".7" cx="494" cy="131" r="1"/><circle fill="#FFF" fill-opacity=".7" cx="478" cy="186" r="1"/><circle fill="#FFF" fill-opacity=".7" cx="628" cy="468" r="1"/><circle fill="#FFF" fill-opacity=".7" cx="720" cy="386" r="1"/><circle fill="#FFF" fill-opacity=".7" cx="670" cy="432" r="1"/><circle fill="#FFF" fill-opacity=".7" cx="611" cy="371" r="1"/><ellipse transform="rotate(-77.513 660.507 258.769)" fill="#FFF" fill-opacity=".7" cx="660.5" cy="258.8" rx="1" ry="1"/><ellipse transform="rotate(-77.513 626.374 199.995)" fill="#FFF" fill-opacity=".7" cx="626.3" cy="200" rx="1" ry="1"/><ellipse transform="rotate(-77.513 648.464 128.147)" fill="#FFF" fill-opacity=".7" cx="648.4" cy="128.1" rx="1" ry="1"/><ellipse transform="rotate(-77.513 698.702 155.601)" fill="#FFF" fill-opacity=".7" cx="698.7" cy="155.6" rx="1" ry="1"/><ellipse transform="rotate(-77.513 626.108 252.185)" fill="#FFF" fill-opacity=".7" cx="626.1" cy="252.2" rx="1" ry="1"/><circle fill="#FFF" fill-opacity=".7" cx="768" cy="418" r="1"/><circle fill="#FFF" fill-opacity=".7" cx="810" cy="382" r="1"/><ellipse transform="rotate(-77.309 722.25 335.114)" fill="#FFF" fill-opacity=".7" cx="722.3" cy="335.1" rx="1" ry="1"/><ellipse transform="rotate(-77.309 688.439 276.26)" fill="#FFF" fill-opacity=".7" cx="688.5" cy="276.3" rx="1" ry="1"/><ellipse transform="rotate(-77.309 687.892 328.439)" fill="#FFF" fill-opacity=".7" cx="687.9" cy="328.4" rx="1" ry="1"/><ellipse transform="rotate(-32.528 541.814 259.586)" fill="#FFF" fill-opacity=".7" cx="541.8" cy="259.6" rx="1" ry="1"/><ellipse transform="rotate(-32.528 607.497 276.973)" fill="#FFF" fill-opacity=".7" cx="607.5" cy="277" rx="1" ry="1"/><ellipse transform="rotate(-32.528 570.79 239.877)" fill="#FFF" fill-opacity=".7" cx="570.8" cy="239.9" rx="1" ry="1"/></svg>