<svg width="1156" height="402" viewBox="0 0 1156 402" xmlns="http://www.w3.org/2000/svg" xmlns:xlink="http://www.w3.org/1999/xlink"><title>stars</title><defs><circle id="b" cx="1118.5" cy="167.5" r="1.5"/><filter x="-450%" y="-450%" width="1000%" height="1000%" filterUnits="objectBoundingBox" id="a"><feMorphology radius="1.5" operator="dilate" in="SourceAlpha" result="shadowSpreadOuter1"/><feOffset in="shadowSpreadOuter1" result="shadowOffsetOuter1"/><feGaussianBlur stdDeviation="3" in="shadowOffsetOuter1" result="shadowBlurOuter1"/><feColorMatrix values="0 0 0 0 1 0 0 0 0 1 0 0 0 0 1 0 0 0 0.1 0" in="shadowBlurOuter1"/></filter><circle id="d" cx="585.5" cy="43.5" r="1.5"/><filter x="-450%" y="-450%" width="1000%" height="1000%" filterUnits="objectBoundingBox" id="c"><feMorphology radius="1.5" operator="dilate" in="SourceAlpha" result="shadowSpreadOuter1"/><feOffset in="shadowSpreadOuter1" result="shadowOffsetOuter1"/><feGaussianBlur stdDeviation="3" in="shadowOffsetOuter1" result="shadowBlurOuter1"/><feColorMatrix values="0 0 0 0 1 0 0 0 0 1 0 0 0 0 1 0 0 0 0.1 0" in="shadowBlurOuter1"/></filter><circle id="f" cx="138.5" cy="55.5" r="1.5"/><filter x="-450%" y="-450%" width="1000%" height="1000%" filterUnits="objectBoundingBox" id="e"><feMorphology radius="1.5" operator="dilate" in="SourceAlpha" result="shadowSpreadOuter1"/><feOffset in="shadowSpreadOuter1" result="shadowOffsetOuter1"/><feGaussianBlur stdDeviation="3" in="shadowOffsetOuter1" result="shadowBlurOuter1"/><feColorMatrix values="0 0 0 0 1 0 0 0 0 1 0 0 0 0 1 0 0 0 0.1 0" in="shadowBlurOuter1"/></filter><circle id="h" cx="28.5" cy="12.5" r="1.5"/><filter x="-450%" y="-450%" width="1000%" height="1000%" filterUnits="objectBoundingBox" id="g"><feMorphology radius="1.5" operator="dilate" in="SourceAlpha" result="shadowSpreadOuter1"/><feOffset in="shadowSpreadOuter1" result="shadowOffsetOuter1"/><feGaussianBlur stdDeviation="3" in="shadowOffsetOuter1" result="shadowBlurOuter1"/><feColorMatrix values="0 0 0 0 1 0 0 0 0 1 0 0 0 0 1 0 0 0 0.1 0" in="shadowBlurOuter1"/></filter><circle id="j" cx="976.5" cy="150.5" r="1.5"/><filter x="-450%" y="-450%" width="1000%" height="1000%" filterUnits="objectBoundingBox" id="i"><feMorphology radius="1.5" operator="dilate" in="SourceAlpha" result="shadowSpreadOuter1"/><feOffset in="shadowSpreadOuter1" result="shadowOffsetOuter1"/><feGaussianBlur stdDeviation="3" in="shadowOffsetOuter1" result="shadowBlurOuter1"/><feColorMatrix values="0 0 0 0 1 0 0 0 0 1 0 0 0 0 1 0 0 0 0.1 0" in="shadowBlurOuter1"/></filter><circle id="l" cx="1062.5" cy="114.5" r="1.5"/><filter x="-450%" y="-450%" width="1000%" height="1000%" filterUnits="objectBoundingBox" id="k"><feMorphology radius="1.5" operator="dilate" in="SourceAlpha" result="shadowSpreadOuter1"/><feOffset in="shadowSpreadOuter1" result="shadowOffsetOuter1"/><feGaussianBlur stdDeviation="3" in="shadowOffsetOuter1" result="shadowBlurOuter1"/><feColorMatrix values="0 0 0 0 1 0 0 0 0 1 0 0 0 0 1 0 0 0 0.1 0" in="shadowBlurOuter1"/></filter><circle id="n" cx="922.5" cy="168.5" r="1.5"/><filter x="-450%" y="-450%" width="1000%" height="1000%" filterUnits="objectBoundingBox" id="m"><feMorphology radius="1.5" operator="dilate" in="SourceAlpha" result="shadowSpreadOuter1"/><feOffset in="shadowSpreadOuter1" result="shadowOffsetOuter1"/><feGaussianBlur stdDeviation="3" in="shadowOffsetOuter1" result="shadowBlurOuter1"/><feColorMatrix values="0 0 0 0 1 0 0 0 0 1 0 0 0 0 1 0 0 0 0.1 0" in="shadowBlurOuter1"/></filter><circle id="p" cx="917.5" cy="277.5" r="1.5"/><filter x="-450%" y="-450%" width="1000%" height="1000%" filterUnits="objectBoundingBox" id="o"><feMorphology radius="1.5" operator="dilate" in="SourceAlpha" result="shadowSpreadOuter1"/><feOffset in="shadowSpreadOuter1" result="shadowOffsetOuter1"/><feGaussianBlur stdDeviation="3" in="shadowOffsetOuter1" result="shadowBlurOuter1"/><feColorMatrix values="0 0 0 0 1 0 0 0 0 1 0 0 0 0 1 0 0 0 0.1 0" in="shadowBlurOuter1"/></filter><circle id="r" cx="863.5" cy="295.5" r="1.5"/><filter x="-450%" y="-450%" width="1000%" height="1000%" filterUnits="objectBoundingBox" id="q"><feMorphology radius="1.5" operator="dilate" in="SourceAlpha" result="shadowSpreadOuter1"/><feOffset in="shadowSpreadOuter1" result="shadowOffsetOuter1"/><feGaussianBlur stdDeviation="3" in="shadowOffsetOuter1" result="shadowBlurOuter1"/><feColorMatrix values="0 0 0 0 1 0 0 0 0 1 0 0 0 0 1 0 0 0 0.1 0" in="shadowBlurOuter1"/></filter><circle id="t" cx="966.5" cy="338.5" r="1.5"/><filter x="-450%" y="-450%" width="1000%" height="1000%" filterUnits="objectBoundingBox" id="s"><feMorphology radius="1.5" operator="dilate" in="SourceAlpha" result="shadowSpreadOuter1"/><feOffset in="shadowSpreadOuter1" result="shadowOffsetOuter1"/><feGaussianBlur stdDeviation="3" in="shadowOffsetOuter1" result="shadowBlurOuter1"/><feColorMatrix values="0 0 0 0 1 0 0 0 0 1 0 0 0 0 1 0 0 0 0.1 0" in="shadowBlurOuter1"/></filter><circle id="v" cx="1052.5" cy="354.5" r="1.5"/><filter x="-450%" y="-450%" width="1000%" height="1000%" filterUnits="objectBoundingBox" id="u"><feMorphology radius="1.5" operator="dilate" in="SourceAlpha" result="shadowSpreadOuter1"/><feOffset in="shadowSpreadOuter1" result="shadowOffsetOuter1"/><feGaussianBlur stdDeviation="3" in="shadowOffsetOuter1" result="shadowBlurOuter1"/><feColorMatrix values="0 0 0 0 1 0 0 0 0 1 0 0 0 0 1 0 0 0 0.1 0" in="shadowBlurOuter1"/></filter><circle id="x" cx="806.5" cy="10.5" r="1.5"/><filter x="-450%" y="-450%" width="1000%" height="1000%" filterUnits="objectBoundingBox" id="w"><feMorphology radius="1.5" operator="dilate" in="SourceAlpha" result="shadowSpreadOuter1"/><feOffset in="shadowSpreadOuter1" result="shadowOffsetOuter1"/><feGaussianBlur stdDeviation="3" in="shadowOffsetOuter1" result="shadowBlurOuter1"/><feColorMatrix values="0 0 0 0 1 0 0 0 0 1 0 0 0 0 1 0 0 0 0.1 0" in="shadowBlurOuter1"/></filter><circle id="z" cx="583.5" cy="357.5" r="1.5"/><filter x="-450%" y="-450%" width="1000%" height="1000%" filterUnits="objectBoundingBox" id="y"><feMorphology radius="1.5" operator="dilate" in="SourceAlpha" result="shadowSpreadOuter1"/><feOffset in="shadowSpreadOuter1" result="shadowOffsetOuter1"/><feGaussianBlur stdDeviation="3" in="shadowOffsetOuter1" result="shadowBlurOuter1"/><feColorMatrix values="0 0 0 0 1 0 0 0 0 1 0 0 0 0 1 0 0 0 0.1 0" in="shadowBlurOuter1"/></filter><circle id="B" cx="583.5" cy="357.5" r="1.5"/><filter x="-450%" y="-450%" width="1000%" height="1000%" filterUnits="objectBoundingBox" id="A"><feMorphology radius="1.5" operator="dilate" in="SourceAlpha" result="shadowSpreadOuter1"/><feOffset in="shadowSpreadOuter1" result="shadowOffsetOuter1"/><feGaussianBlur stdDeviation="3" in="shadowOffsetOuter1" result="shadowBlurOuter1"/><feColorMatrix values="0 0 0 0 1 0 0 0 0 1 0 0 0 0 1 0 0 0 0.1 0" in="shadowBlurOuter1"/></filter><circle id="D" cx="207.5" cy="201.5" r="1.5"/><filter x="-450%" y="-450%" width="1000%" height="1000%" filterUnits="objectBoundingBox" id="C"><feMorphology radius="1.5" operator="dilate" in="SourceAlpha" result="shadowSpreadOuter1"/><feOffset in="shadowSpreadOuter1" result="shadowOffsetOuter1"/><feGaussianBlur stdDeviation="3" in="shadowOffsetOuter1" result="shadowBlurOuter1"/><feColorMatrix values="0 0 0 0 1 0 0 0 0 1 0 0 0 0 1 0 0 0 0.1 0" in="shadowBlurOuter1"/></filter><circle id="F" cx="207.5" cy="201.5" r="1.5"/><filter x="-450%" y="-450%" width="1000%" height="1000%" filterUnits="objectBoundingBox" id="E"><feMorphology radius="1.5" operator="dilate" in="SourceAlpha" result="shadowSpreadOuter1"/><feOffset in="shadowSpreadOuter1" result="shadowOffsetOuter1"/><feGaussianBlur stdDeviation="3" in="shadowOffsetOuter1" result="shadowBlurOuter1"/><feColorMatrix values="0 0 0 0 1 0 0 0 0 1 0 0 0 0 1 0 0 0 0.1 0" in="shadowBlurOuter1"/></filter><circle id="H" cx="387.5" cy="291.5" r="1.5"/><filter x="-450%" y="-450%" width="1000%" height="1000%" filterUnits="objectBoundingBox" id="G"><feMorphology radius="1.5" operator="dilate" in="SourceAlpha" result="shadowSpreadOuter1"/><feOffset in="shadowSpreadOuter1" result="shadowOffsetOuter1"/><feGaussianBlur stdDeviation="3" in="shadowOffsetOuter1" result="shadowBlurOuter1"/><feColorMatrix values="0 0 0 0 1 0 0 0 0 1 0 0 0 0 1 0 0 0 0.1 0" in="shadowBlurOuter1"/></filter><circle id="J" cx="387.5" cy="291.5" r="1.5"/><filter x="-450%" y="-450%" width="1000%" height="1000%" filterUnits="objectBoundingBox" id="I"><feMorphology radius="1.5" operator="dilate" in="SourceAlpha" result="shadowSpreadOuter1"/><feOffset in="shadowSpreadOuter1" result="shadowOffsetOuter1"/><feGaussianBlur stdDeviation="3" in="shadowOffsetOuter1" result="shadowBlurOuter1"/><feColorMatrix values="0 0 0 0 1 0 0 0 0 1 0 0 0 0 1 0 0 0 0.1 0" in="shadowBlurOuter1"/></filter><circle id="L" cx="187.5" cy="331.5" r="1.5"/><filter x="-450%" y="-450%" width="1000%" height="1000%" filterUnits="objectBoundingBox" id="K"><feMorphology radius="1.5" operator="dilate" in="SourceAlpha" result="shadowSpreadOuter1"/><feOffset in="shadowSpreadOuter1" result="shadowOffsetOuter1"/><feGaussianBlur stdDeviation="3" in="shadowOffsetOuter1" result="shadowBlurOuter1"/><feColorMatrix values="0 0 0 0 1 0 0 0 0 1 0 0 0 0 1 0 0 0 0.1 0" in="shadowBlurOuter1"/></filter><circle id="N" cx="187.5" cy="331.5" r="1.5"/><filter x="-450%" y="-450%" width="1000%" height="1000%" filterUnits="objectBoundingBox" id="M"><feMorphology radius="1.5" operator="dilate" in="SourceAlpha" result="shadowSpreadOuter1"/><feOffset in="shadowSpreadOuter1" result="shadowOffsetOuter1"/><feGaussianBlur stdDeviation="3" in="shadowOffsetOuter1" result="shadowBlurOuter1"/><feColorMatrix values="0 0 0 0 1 0 0 0 0 1 0 0 0 0 1 0 0 0 0.1 0" in="shadowBlurOuter1"/></filter><circle id="P" cx="17.5" cy="321.5" r="1.5"/><filter x="-450%" y="-450%" width="1000%" height="1000%" filterUnits="objectBoundingBox" id="O"><feMorphology radius="1.5" operator="dilate" in="SourceAlpha" result="shadowSpreadOuter1"/><feOffset in="shadowSpreadOuter1" result="shadowOffsetOuter1"/><feGaussianBlur stdDeviation="3" in="shadowOffsetOuter1" result="shadowBlurOuter1"/><feColorMatrix values="0 0 0 0 1 0 0 0 0 1 0 0 0 0 1 0 0 0 0.1 0" in="shadowBlurOuter1"/></filter><circle id="R" cx="17.5" cy="321.5" r="1.5"/><filter x="-450%" y="-450%" width="1000%" height="1000%" filterUnits="objectBoundingBox" id="Q"><feMorphology radius="1.5" operator="dilate" in="SourceAlpha" result="shadowSpreadOuter1"/><feOffset in="shadowSpreadOuter1" result="shadowOffsetOuter1"/><feGaussianBlur stdDeviation="3" in="shadowOffsetOuter1" result="shadowBlurOuter1"/><feColorMatrix values="0 0 0 0 1 0 0 0 0 1 0 0 0 0 1 0 0 0 0.1 0" in="shadowBlurOuter1"/></filter><circle id="T" cx="47.5" cy="391.5" r="1.5"/><filter x="-450%" y="-450%" width="1000%" height="1000%" filterUnits="objectBoundingBox" id="S"><feMorphology radius="1.5" operator="dilate" in="SourceAlpha" result="shadowSpreadOuter1"/><feOffset in="shadowSpreadOuter1" result="shadowOffsetOuter1"/><feGaussianBlur stdDeviation="3" in="shadowOffsetOuter1" result="shadowBlurOuter1"/><feColorMatrix values="0 0 0 0 1 0 0 0 0 1 0 0 0 0 1 0 0 0 0.1 0" in="shadowBlurOuter1"/></filter><circle id="V" cx="47.5" cy="391.5" r="1.5"/><filter x="-450%" y="-450%" width="1000%" height="1000%" filterUnits="objectBoundingBox" id="U"><feMorphology radius="1.5" operator="dilate" in="SourceAlpha" result="shadowSpreadOuter1"/><feOffset in="shadowSpreadOuter1" result="shadowOffsetOuter1"/><feGaussianBlur stdDeviation="3" in="shadowOffsetOuter1" result="shadowBlurOuter1"/><feColorMatrix values="0 0 0 0 1 0 0 0 0 1 0 0 0 0 1 0 0 0 0.1 0" in="shadowBlurOuter1"/></filter></defs><g fill="none" fill-rule="evenodd" opacity=".5"><g transform="matrix(-1 0 0 1 2237 0)"><use fill="#000" filter="url(#a)" xlink:href="#b"/><use fill="#FFF" xlink:href="#b"/></g><circle fill-opacity=".7" fill="#FFF" transform="matrix(-1 0 0 1 2310 0)" cx="1155" cy="147" r="1"/><circle fill-opacity=".7" fill="#FFF" transform="matrix(-1 0 0 1 2210 0)" cx="1105" cy="101" r="1"/><circle fill-opacity=".7" fill="#FFF" transform="matrix(-1 0 0 1 1986 0)" cx="993" cy="172" r="1"/><circle fill-opacity=".7" fill="#FFF" transform="matrix(-1 0 0 1 1884 0)" cx="942" cy="119" r="1"/><circle fill-opacity=".7" fill="#FFF" transform="matrix(-1 0 0 1 1986 0)" cx="993" cy="1" r="1"/><circle fill-opacity=".7" fill="#FFF" transform="matrix(-1 0 0 1 668 0)" cx="334" cy="45" r="1"/><circle fill-opacity=".7" fill="#FFF" transform="matrix(-1 0 0 1 966 0)" cx="483" cy="54" r="1"/><circle fill-opacity=".7" fill="#FFF" transform="matrix(-1 0 0 1 806 0)" cx="403" cy="6" r="1"/><circle fill-opacity=".7" fill="#FFF" transform="matrix(-1 0 0 1 1712 0)" cx="856" cy="92" r="1"/><circle fill-opacity=".7" fill="#FFF" transform="matrix(-1 0 0 1 1808 0)" cx="904" cy="57" r="1"/><circle fill-opacity=".7" fill="#FFF" transform="matrix(-1 0 0 1 2060 0)" cx="1030" cy="107" r="1"/><circle fill-opacity=".7" fill="#FFF" transform="matrix(-1 0 0 1 2092 0)" cx="1046" cy="162" r="1"/><circle fill-opacity=".7" fill="#FFF" transform="matrix(-1 0 0 1 2286 0)" cx="1143" cy="57" r="1"/><circle fill-opacity=".7" fill="#FFF" transform="matrix(-1 0 0 1 2142 0)" cx="1071" cy="21" r="1"/><g transform="matrix(-1 0 0 1 1171 0)"><use fill="#000" filter="url(#c)" xlink:href="#d"/><use fill="#FFF" xlink:href="#d"/></g><circle fill-opacity=".7" fill="#FFF" transform="matrix(-1 0 0 1 206 0)" cx="103" cy="16" r="1"/><circle fill-opacity=".7" fill="#FFF" transform="matrix(-1 0 0 1 38 0)" cx="19" cy="87" r="1"/><circle fill-opacity=".7" fill="#FFF" transform="matrix(-1 0 0 1 420 0)" cx="210" cy="56" r="1"/><g transform="matrix(-1 0 0 1 277 0)"><use fill="#000" filter="url(#e)" xlink:href="#f"/><use fill="#FFF" xlink:href="#f"/></g><g transform="matrix(-1 0 0 1 57 0)"><use fill="#000" filter="url(#g)" xlink:href="#h"/><use fill="#FFF" xlink:href="#h"/></g><g transform="matrix(-1 0 0 1 1953 0)"><use fill="#000" filter="url(#i)" xlink:href="#j"/><use fill="#FFF" xlink:href="#j"/></g><g transform="matrix(-1 0 0 1 2125 0)"><use fill="#000" filter="url(#k)" xlink:href="#l"/><use fill="#FFF" xlink:href="#l"/></g><circle fill-opacity=".7" fill="#FFF" transform="matrix(1 0 0 -1 0 344)" cx="744" cy="172" r="1"/><circle fill-opacity=".7" fill="#FFF" transform="matrix(1 0 0 -1 0 436)" cx="794" cy="218" r="1"/><circle fill-opacity=".7" fill="#FFF" transform="matrix(1 0 0 -1 0 294)" cx="906" cy="147" r="1"/><g transform="matrix(1 0 0 -1 0 337)"><use fill="#000" filter="url(#m)" xlink:href="#n"/><use fill="#FFF" xlink:href="#n"/></g><g transform="matrix(-1 0 0 1 1835 0)"><use fill="#000" filter="url(#o)" xlink:href="#p"/><use fill="#FFF" xlink:href="#p"/></g><circle fill-opacity=".7" fill="#FFF" transform="matrix(1 0 0 -1 0 548)" cx="847" cy="274" r="1"/><circle fill-opacity=".7" fill="#FFF" transform="matrix(1 0 0 -1 0 654)" cx="898" cy="327" r="1"/><circle fill-opacity=".7" fill="#FFF" transform="matrix(1 0 0 -1 0 708)" cx="889" cy="354" r="1"/><circle fill-opacity=".7" fill="#FFF" transform="matrix(1 0 0 -1 0 678)" cx="810" cy="339" r="1"/><g transform="matrix(1 0 0 -1 0 591)"><use fill="#000" filter="url(#q)" xlink:href="#r"/><use fill="#FFF" xlink:href="#r"/></g><circle fill-opacity=".7" fill="#FFF" transform="rotate(180 1145 342)" cx="1145" cy="342" r="1"/><circle fill-opacity=".7" fill="#FFF" transform="rotate(180 1003 307)" cx="1003" cy="307" r="1"/><circle fill-opacity=".7" fill="#FFF" transform="rotate(180 1036 327)" cx="1036" cy="327" r="1"/><g transform="rotate(180 966.5 338.5)"><use fill="#000" filter="url(#s)" xlink:href="#t"/><use fill="#FFF" xlink:href="#t"/></g><g transform="rotate(180 1052.5 354.5)"><use fill="#000" filter="url(#u)" xlink:href="#v"/><use fill="#FFF" xlink:href="#v"/></g><circle fill-opacity=".7" fill="#FFF" transform="matrix(-1 0 0 1 1646 0)" cx="823" cy="32" r="1"/><circle fill-opacity=".7" fill="#FFF" transform="matrix(-1 0 0 1 1752 0)" cx="876" cy="22" r="1"/><g transform="matrix(-1 0 0 1 1613 0)"><use fill="#000" filter="url(#w)" xlink:href="#x"/><use fill="#FFF" xlink:href="#x"/></g><circle fill-opacity=".7" fill="#FFF" cx="642" cy="361" r="1"/><circle fill-opacity=".7" fill="#FFF" cx="656" cy="334" r="1"/><circle fill-opacity=".7" fill="#FFF" cx="726" cy="304" r="1"/><use fill="#000" filter="url(#y)" xlink:href="#z"/><use fill="#FFF" xlink:href="#z"/><use fill="#000" filter="url(#A)" xlink:href="#B"/><use fill="#FFF" xlink:href="#B"/><circle fill-opacity=".7" fill="#FFF" transform="rotate(180 272 196)" cx="272" cy="196" r="1"/><circle fill-opacity=".7" fill="#FFF" transform="rotate(180 135 225)" cx="135" cy="225" r="1"/><circle fill-opacity=".7" fill="#FFF" transform="rotate(180 384 53)" cx="384" cy="53" r="1"/><circle fill-opacity=".7" fill="#FFF" transform="rotate(180 13 256)" cx="13" cy="256" r="1"/><circle fill-opacity=".7" fill="#FFF" transform="rotate(180 1 194)" cx="1" cy="194" r="1"/><circle fill-opacity=".7" fill="#FFF" transform="rotate(180 254 173)" cx="254" cy="173" r="1"/><circle fill-opacity=".7" fill="#FFF" transform="rotate(180 303 102)" cx="303" cy="102" r="1"/><circle fill-opacity=".7" fill="#FFF" transform="rotate(180 89 101)" cx="89" cy="101" r="1"/><g transform="rotate(180 207.5 201.5)"><use fill="#000" filter="url(#C)" xlink:href="#D"/><use fill="#FFF" xlink:href="#D"/></g><g transform="rotate(180 207.5 201.5)"><use fill="#000" filter="url(#E)" xlink:href="#F"/><use fill="#FFF" xlink:href="#F"/></g><circle fill-opacity=".7" fill="#FFF" transform="rotate(180 329 288)" cx="329" cy="288" r="1"/><circle fill-opacity=".7" fill="#FFF" transform="rotate(180 509 368)" cx="509" cy="368" r="1"/><circle fill-opacity=".7" fill="#FFF" transform="rotate(180 265 304)" cx="265" cy="304" r="1"/><circle fill-opacity=".7" fill="#FFF" transform="rotate(180 243 262)" cx="243" cy="262" r="1"/><circle fill-opacity=".7" fill="#FFF" transform="rotate(180 435 343)" cx="435" cy="343" r="1"/><circle fill-opacity=".7" fill="#FFF" transform="rotate(180 273 342)" cx="273" cy="342" r="1"/><g transform="rotate(180 387.5 291.5)"><use fill="#000" filter="url(#G)" xlink:href="#H"/><use fill="#FFF" xlink:href="#H"/></g><g transform="rotate(180 387.5 291.5)"><use fill="#000" filter="url(#I)" xlink:href="#J"/><use fill="#FFF" xlink:href="#J"/></g><circle fill-opacity=".7" fill="#FFF" transform="rotate(180 129 328)" cx="129" cy="328" r="1"/><circle fill-opacity=".7" fill="#FFF" transform="rotate(180 115 355)" cx="115" cy="355" r="1"/><circle fill-opacity=".7" fill="#FFF" transform="rotate(180 105 314)" cx="105" cy="314" r="1"/><g transform="rotate(180 187.5 331.5)"><use fill="#000" filter="url(#K)" xlink:href="#L"/><use fill="#FFF" xlink:href="#L"/></g><g transform="rotate(180 187.5 331.5)"><use fill="#000" filter="url(#M)" xlink:href="#N"/><use fill="#FFF" xlink:href="#N"/></g><g transform="rotate(180 17.5 321.5)"><use fill="#000" filter="url(#O)" xlink:href="#P"/><use fill="#FFF" xlink:href="#P"/></g><g transform="rotate(180 17.5 321.5)"><use fill="#000" filter="url(#Q)" xlink:href="#R"/><use fill="#FFF" xlink:href="#R"/></g><g transform="rotate(180 47.5 391.5)"><use fill="#000" filter="url(#S)" xlink:href="#T"/><use fill="#FFF" xlink:href="#T"/></g><g transform="rotate(180 47.5 391.5)"><use fill="#000" filter="url(#U)" xlink:href="#V"/><use fill="#FFF" xlink:href="#V"/></g></g></svg>