<svg xmlns="http://www.w3.org/2000/svg" viewBox="0 0 1140 622"><title>Stars</title><circle cx="25.5" cy="331.5" r="1.5"/><circle fill="#FFF" cx="25.5" cy="331.5" r="1.5"/><circle cx="75.5" cy="411.5" r="1.5"/><circle fill="#FFF" cx="75.5" cy="411.5" r="1.5"/><circle cx="55.5" cy="237.5" r="1.5"/><circle fill="#FFF" cx="55.5" cy="237.5" r="1.5"/><circle cx="89.5" cy="157.5" r="1.5"/><circle fill="#FFF" cx="89.5" cy="157.5" r="1.5"/><circle cx="157.5" cy="119.5" r="1.5"/><circle fill="#FFF" cx="157.5" cy="119.5" r="1.5"/><circle cx="22.5" cy="37.5" r="1.5"/><circle fill="#FFF" cx="22.5" cy="37.5" r="1.5"/><circle cx="180.5" cy="21.5" r="1.5"/><circle fill="#FFF" cx="180.5" cy="21.5" r="1.5"/><circle cx="290.5" cy="9.5" r="1.5"/><circle fill="#FFF" cx="290.5" cy="9.5" r="1.5"/><circle cx="432.5" cy="51.5" r="1.5"/><circle fill="#FFF" cx="432.5" cy="51.5" r="1.5"/><circle cx="322.5" cy="39.5" r="1.5"/><circle fill="#FFF" cx="322.5" cy="39.5" r="1.5"/><circle cx="708.5" cy="207.5" r="1.5"/><circle fill="#FFF" cx="708.5" cy="207.5" r="1.5"/><circle cx="761.5" cy="58.5" r="1.5"/><circle fill="#FFF" cx="761.5" cy="58.5" r="1.5"/><circle cx="811.5" cy="138.5" r="1.5"/><circle fill="#FFF" cx="811.5" cy="138.5" r="1.5"/><circle cx="881.5" cy="88.5" r="1.5"/><circle fill="#FFF" cx="881.5" cy="88.5" r="1.5"/><circle cx="811.5" cy="38.5" r="1.5"/><circle fill="#FFF" cx="811.5" cy="38.5" r="1.5"/><circle cx="1095.5" cy="129.5" r="1.5"/><circle fill="#FFF" cx="1095.5" cy="129.5" r="1.5"/><circle cx="1115.5" cy="219.5" r="1.5"/><circle fill="#FFF" cx="1115.5" cy="219.5" r="1.5"/><circle cx="965.5" cy="249.5" r="1.5"/><circle fill="#FFF" cx="965.5" cy="249.5" r="1.5"/><circle cx="986.5" cy="129.5" r="1.5"/><circle fill="#FFF" cx="986.5" cy="129.5" r="1.5"/><circle cx="736.5" cy="553.5" r="1.5"/><circle fill="#FFF" cx="736.5" cy="553.5" r="1.5"/><circle cx="167.5" cy="314.5" r="1.5"/><circle fill="#FFF" cx="167.5" cy="314.5" r="1.5"/><circle cx="81.5" cy="278.5" r="1.5"/><circle fill="#FFF" cx="81.5" cy="278.5" r="1.5"/><circle cx="363.5" cy="315.5" r="1.5"/><circle fill="#FFF" cx="363.5" cy="315.5" r="1.5"/><circle cx="333.5" cy="409.5" r="1.5"/><circle fill="#FFF" cx="333.5" cy="409.5" r="1.5"/><circle cx="221.5" cy="332.5" r="1.5"/><circle fill="#FFF" cx="221.5" cy="332.5" r="1.5"/><circle cx="307.5" cy="368.5" r="1.5"/><circle fill="#FFF" cx="307.5" cy="368.5" r="1.5"/><circle cx="226.5" cy="441.5" r="1.5"/><circle fill="#FFF" cx="226.5" cy="441.5" r="1.5"/><circle cx="280.5" cy="459.5" r="1.5"/><circle fill="#FFF" cx="280.5" cy="459.5" r="1.5"/><circle cx="366.5" cy="495.5" r="1.5"/><circle fill="#FFF" cx="366.5" cy="495.5" r="1.5"/><circle cx="35.5" cy="485.5" r="1.5"/><circle fill="#FFF" cx="35.5" cy="485.5" r="1.5"/><circle cx="65.5" cy="579.5" r="1.5"/><circle fill="#FFF" cx="65.5" cy="579.5" r="1.5"/><circle cx="177.5" cy="502.5" r="1.5"/><circle fill="#FFF" cx="177.5" cy="502.5" r="1.5"/><circle cx="91.5" cy="538.5" r="1.5"/><circle fill="#FFF" cx="91.5" cy="538.5" r="1.5"/><circle cx="337.5" cy="174.5" r="1.5"/><circle fill="#FFF" cx="337.5" cy="174.5" r="1.5"/><circle cx="251.5" cy="138.5" r="1.5"/><circle fill="#FFF" cx="251.5" cy="138.5" r="1.5"/><circle cx="986.5" cy="60.5" r="1.5"/><circle fill="#FFF" cx="986.5" cy="60.5" r="1.5"/><circle cx="986.5" cy="60.5" r="1.5"/><circle fill="#FFF" cx="986.5" cy="60.5" r="1.5"/><circle fill="#FFF" fill-opacity=".7" cx="442" cy="622" r="1"/><circle cx="451.5" cy="580.5" r="1.5"/><circle fill="#FFF" cx="451.5" cy="580.5" r="1.5"/><circle cx="560.5" cy="521.5" r="1.5"/><circle fill="#FFF" cx="560.5" cy="521.5" r="1.5"/><circle cx="560.5" cy="521.5" r="1.5"/><circle fill="#FFF" cx="560.5" cy="521.5" r="1.5"/><circle cx="831.5" cy="337.5" r="1.5"/><circle fill="#FFF" cx="831.5" cy="337.5" r="1.5"/><circle cx="1045.5" cy="296.5" r="1.5"/><circle fill="#FFF" cx="1045.5" cy="296.5" r="1.5"/><circle cx="936.5" cy="296.5" r="1.5"/><circle fill="#FFF" cx="936.5" cy="296.5" r="1.5"/><circle cx="936.5" cy="365.5" r="1.5"/><circle fill="#FFF" cx="936.5" cy="365.5" r="1.5"/><circle cx="936.5" cy="365.5" r="1.5"/><circle fill="#FFF" cx="936.5" cy="365.5" r="1.5"/><circle cx="756.5" cy="455.5" r="1.5"/><circle fill="#FFF" cx="756.5" cy="455.5" r="1.5"/><circle cx="756.5" cy="455.5" r="1.5"/><circle fill="#FFF" cx="756.5" cy="455.5" r="1.5"/><circle cx="956.5" cy="495.5" r="1.5"/><circle fill="#FFF" cx="956.5" cy="495.5" r="1.5"/><circle cx="956.5" cy="495.5" r="1.5"/><circle fill="#FFF" cx="956.5" cy="495.5" r="1.5"/><circle cx="1126.5" cy="485.5" r="1.5"/><circle fill="#FFF" cx="1126.5" cy="485.5" r="1.5"/><circle cx="1126.5" cy="485.5" r="1.5"/><circle fill="#FFF" cx="1126.5" cy="485.5" r="1.5"/><circle cx="1096.5" cy="555.5" r="1.5"/><circle fill="#FFF" cx="1096.5" cy="555.5" r="1.5"/><circle cx="1096.5" cy="555.5" r="1.5"/><circle fill="#FFF" cx="1096.5" cy="555.5" r="1.5"/><circle cx="573.5" cy="315.5" r="1.5"/><circle fill="#FFF" cx="573.5" cy="315.5" r="1.5"/><circle cx="543.5" cy="409.5" r="1.5"/><circle fill="#FFF" cx="543.5" cy="409.5" r="1.5"/><circle cx="431.5" cy="332.5" r="1.5"/><circle fill="#FFF" cx="431.5" cy="332.5" r="1.5"/><circle cx="517.5" cy="368.5" r="1.5"/><circle fill="#FFF" cx="517.5" cy="368.5" r="1.5"/><circle cx="436.5" cy="441.5" r="1.5"/><circle fill="#FFF" cx="436.5" cy="441.5" r="1.5"/><circle cx="490.5" cy="459.5" r="1.5"/><circle fill="#FFF" cx="490.5" cy="459.5" r="1.5"/><circle cx="547.5" cy="174.5" r="1.5"/><circle fill="#FFF" cx="547.5" cy="174.5" r="1.5"/><circle cx="461.5" cy="138.5" r="1.5"/><circle fill="#FFF" cx="461.5" cy="138.5" r="1.5"/><circle cx="683.5" cy="365.5" r="1.5"/><circle fill="#FFF" cx="683.5" cy="365.5" r="1.5"/><circle cx="653.5" cy="459.5" r="1.5"/><circle fill="#FFF" cx="653.5" cy="459.5" r="1.5"/><circle cx="627.5" cy="418.5" r="1.5"/><circle fill="#FFF" cx="627.5" cy="418.5" r="1.5"/><ellipse transform="rotate(-77.513 688.393 227.576)" cx="688.4" cy="227.6" rx="1.5" ry="1.5"/><ellipse transform="rotate(-77.513 688.393 227.576)" fill="#FFF" cx="688.4" cy="227.6" rx="1.5" ry="1.5"/><ellipse transform="rotate(-77.513 603.102 177.957)" cx="603.1" cy="177.9" rx="1.5" ry="1.5"/><ellipse transform="rotate(-77.513 603.102 177.957)" fill="#FFF" cx="603.1" cy="177.9" rx="1.5" ry="1.5"/><ellipse transform="rotate(-77.513 648.756 161.438)" cx="648.7" cy="161.4" rx="1.5" ry="1.5"/><ellipse transform="rotate(-77.513 648.756 161.438)" fill="#FFF" cx="648.7" cy="161.4" rx="1.5" ry="1.5"/><circle cx="793.5" cy="409.5" r="1.5"/><circle fill="#FFF" cx="793.5" cy="409.5" r="1.5"/><circle cx="767.5" cy="368.5" r="1.5"/><circle fill="#FFF" cx="767.5" cy="368.5" r="1.5"/><ellipse transform="rotate(-77.309 750.3 304.035)" cx="750.3" cy="304" rx="1.5" ry="1.5"/><ellipse transform="rotate(-77.309 750.3 304.035)" fill="#FFF" cx="750.3" cy="304" rx="1.5" ry="1.5"/><ellipse transform="rotate(-32.528 544.124 301.366)" cx="544.1" cy="301.4" rx="1.5" ry="1.5"/><ellipse transform="rotate(-32.528 544.124 301.366)" fill="#FFF" cx="544.1" cy="301.4" rx="1.5" ry="1.5"/></svg>