<svg xmlns="http://www.w3.org/2000/svg" viewBox="0 0 571 346.7"><linearGradient id="a" gradientUnits="userSpaceOnUse" x1="208.135" y1="76.594" x2="214.939" y2="76.594"><stop offset="0" stop-color="#72b08f"/><stop offset="1" stop-color="#6db981"/></linearGradient><path fill="url(#a)" d="M213.3 74.5c-.5-.2-.8-.3-.8-.3-.4-.2-.8-.3-1.2-.5-1.1 1.4-2.2 2.9-3.2 4.4.8.3 1.6.6 2.3 1 0 0 .3.1.8.3h.1c1.3.6 2.9-.1 3.4-1.4.6-1.4 0-3-1.4-3.5z"/><path fill="#F69332" d="M488.1 89.9c-2.2-3.9-2.2-4.6 0-8.5.6-1.1.4-2.5-.5-3.4-.9-.9-2.3-1.1-3.4-.5-3.9 2.2-4.6 2.2-8.5 0-1.1-.6-2.5-.4-3.4.5-.9.9-1.1 2.3-.5 3.4 2.2 3.9 2.2 4.6 0 8.5-.6 1.1-.4 2.5.5 3.4.5.5 1.3.8 2 .8.5 0 1-.1 1.4-.4 3.9-2.2 4.6-2.2 8.5 0 1.1.6 2.5.4 3.4-.5.9-.8 1.1-2.1.5-3.3z"/><path fill="#F26F54" d="M443.2 63.4c-3.3-1-3.5-1.2-4.3-4.5-.3-1.2-1.4-2.1-2.7-2.1-1.3 0-2.4.8-2.8 2-1 3.3-1.2 3.5-4.5 4.3-1.2.3-2.1 1.4-2.1 2.7 0 1.3.8 2.4 2 2.8 3.3 1 3.5 1.2 4.3 4.5.3 1.2 1.4 2.1 2.7 2.1h.1c1.3 0 2.4-.8 2.7-2 1-3.3 1.2-3.5 4.5-4.3 1.2-.3 2.1-1.4 2.1-2.7 0-1.3-.8-2.4-2-2.8z"/><path fill="#EE4D7A" d="M113.9 154.9c-1.7-3-1.7-3.3 0-6.2.6-1.1.4-2.5-.5-3.4-.9-.9-2.3-1.1-3.4-.5-3 1.7-3.3 1.7-6.2 0-1.1-.6-2.5-.4-3.4.5-.9.9-1.1 2.3-.5 3.4 1.7 3 1.7 3.3 0 6.2-.6 1.1-.4 2.5.5 3.4.5.5 1.3.8 2 .8.5 0 1-.1 1.4-.4 3-1.7 3.3-1.7 6.2 0 1.1.6 2.5.4 3.4-.5.9-.8 1.1-2.2.5-3.3z"/><path fill="#F69332" d="M79.8 179.4c-5.4-1.5-6.1-2.2-7.6-7.6-.3-1.2-1.5-2.1-2.7-2.1-1.3 0-2.4.9-2.7 2.1-1.5 5.4-2.2 6.1-7.6 7.6-1.2.3-2.1 1.5-2.1 2.7 0 1.3.9 2.4 2.1 2.7 5.4 1.5 6.1 2.2 7.6 7.6.3 1.2 1.5 2.1 2.7 2.1 1.3 0 2.4-.9 2.7-2.1 1.5-5.4 2.2-6.1 7.6-7.6 1.2-.3 2.1-1.5 2.1-2.7 0-1.3-.8-2.4-2.1-2.7zM39.4 328.8c0 9.5-8 17.3-17.6 17.3h-5.2c-9 0-16.6-7.2-16.6-16.4v-35.9c0-1.4.8-2.2 2.2-2.2h4.6c2.1 0 2.2 1.3 2.2 2.7v35.5c0 4.2 3.5 7.5 7.6 7.5h5.2c4.7 0 8.6-3.7 8.6-8.4v-34.6c0-1.4.1-2.7 2.2-2.7h4.5c1.5 0 2.2.8 2.2 2.2v35z"/><path fill="#F26F54" d="M122.4 343.9c0 1.1-1 2.2-2.2 2.2h-4.6c-.9 0-1.5-.3-1.9-1-8.2-12.2-15.3-22.7-23.7-35.1v34c0 1.1-1 2.2-2.2 2.2H83c-1.3 0-2-1.1-2-2.2l-.1-50.2c0-1.1.9-2.2 2.2-2.2h5c.8 0 1.4.3 1.8 1.1v-.1l23.4 35.2v-34c0-1.1 1-2.2 2.2-2.2h4.6c1.3 0 2.2 1.1 2.2 2.2v50.1z"/><path fill="#EE4D7A" d="M173 343.9c0 1.1-1 2.2-2.2 2.2h-4.6c-1.3 0-2-1.1-2-2.2l-.1-50.2c0-1.1.9-2.2 2.2-2.2h4.6c1.3 0 2.2 1.1 2.2 2.2v50.2z"/><path fill="#A066A9" d="M255.5 301.4l-7.3 20.2-7 19.4-1.2 3.2c-.5 1.1-.8 1.8-2.2 1.8h-6c-1.6 0-1.9-.8-2.2-1.7l-4.7-13.6c-4.3-12.3-8-23.7-13-35.9-.3-.5-.3-1-.3-1.2 0-1.4.8-2.2 2.2-2.2h5.3c1.4 0 1.7.9 2.2 1.8l13.4 39.7 13.3-39.7-.1.4c0-.2.1-.2.1-.3.4-1.3 1.2-1.9 2.2-1.9h5.4c1.1 0 2.2 1.1 2.2 2.2.1.3-.7 3.4-2.3 7.8z"/><path fill="#4F72B7" d="M299 346.1c-1.3 0-2.2-.9-2.2-2.2l-.1-50.2c0-1.3 1-2.2 2.3-2.2h32.9c2.3 0 2.3 1.3 2.3 2.7v3.7c0 2.5-.3 2.7-2.7 2.7h-25.6v12.1h22.7c1.3 0 2.2 1 2.2 2.2v4.6c0 1.3-.9 2.3-2.2 2.3h-22.7V337h26.5c2.4 0 2.7.2 2.7 2.7v3.7c0 1.4 0 2.7-2.2 2.7H299z"/><path fill="#0B97AC" d="M401 291.6c6.1 0 11.5 5.4 11.5 11.6 0 5.2-2.8 8.2-6.7 10.8 1.4 3.8 2.8 7.4 4.2 11.2 2.2 6 4.4 12.1 6.8 18.1.8 1.8-.3 2.8-2.1 2.8h-5.2c-1.4 0-1.8-.8-2.2-1.7l-9.8-26c-4.7 2.5-8.9 4.8-13.8 7.3v17.7c0 1.4-.1 2.7-2.2 2.7h-4.8c-1.3 0-2.1-1.1-2.1-2.2l-.1-50.2c0-1.1 1-2.2 2.3-2.2H401zm-17.3 9v14.9c5.4-2.7 17.5-8.7 19-10.9v.1c.3-.4.4-.9.4-1.4 0-1.4-1.1-2.6-2.7-2.6h-16.7z"/><path fill="#00B199" d="M487.6 342.8c-3.1 2.7-7.4 3.9-12.3 3.9h-5.2c-5.9 0-11.2-3-14.2-7.7-1-1.5-1.6-3-1.9-4.4-.5-2.8-.5-4-.5-5.5v.1c0-1.4.1-2.7 2.2-2.7h4.6c1.1 0 1.8.5 2 1.6.3.9.2 1.1.2 2.2 0 .3.1 1 .1 1.8.8 3.3 3.8 5.8 7.4 5.8h5.2c4.1 0 7.6-2.3 8.2-5.9.1-.5.1-.9.1-1.4.1-.9.1-2.9-1-4-1.9-1.6-6.1-2.3-11-3.5-8.7-2-18.1-4.6-18.1-13.8v-1c0-1.4-.1-2.9.4-4.7l-.1.1c1.4-7.6 8.5-13.1 16.2-13.1h5.2c4.1 0 8 1.5 11 4 3.1 2.5 5 7.2 4.8 12.4-.1 1.4-.1 2.7-2.2 2.7h-4.5c-1.3 0-2.1-1.1-2.2-2.2-.2-5.8-2.6-8-7-8h-5.2c-3.5 0-6.7 2.5-7.4 6v-.1c-.2 1.2-.6 3.2 1.1 4.9.9.9 1.9 1.5 2.9 1.8l7.8 2.2c4.1 1.2 7 1.9 8.7 2.5 1.8.6 3.4 1.4 4.8 2.3 2.8 1.9 4.8 5.2 4.8 9.8.3 5.5-1.8 11.2-4.9 13.9z"/><path fill="#6DB981" d="M534.9 346.1c-1.3 0-2.2-.9-2.2-2.2l-.1-50.2c0-1.3 1-2.2 2.3-2.2h32.9c2.3 0 2.3 1.3 2.3 2.7v3.7c0 2.5-.3 2.7-2.7 2.7h-25.6v12.1h22.7c1.3 0 2.2 1 2.2 2.2v4.6c0 1.3-.9 2.3-2.2 2.3h-22.7V337h26.5c2.4 0 2.7.2 2.7 2.7v3.7c0 1.4 0 2.7-2.2 2.7h-33.9z"/><path fill="#C54033" d="M187 201.2c2.5-.9 5-1.9 7.5-2.9-1.3-1.3-2.6-2.7-3.9-4.1-2.4 1-4.9 1.9-7.4 2.7 1.6 2.8 3.4 4 3.8 4.3z"/><path fill="#00718F" d="M168.7 71.6c-.5 1.2-1 2.5-1.5 3.8 2.2 0 4.4.7 5.3.9.3-.9.7-1.8 1.1-2.7.9-2.1 1.8-4.1 2.7-6.1-1.8-.5-3.5-.9-5.2-1.3l-2.4 5.4z"/><linearGradient id="b" gradientUnits="userSpaceOnUse" x1="338.525" y1="113.641" x2="342.026" y2="113.641"><stop offset="0" stop-color="#0b97ac"/><stop offset="1" stop-color="#68ab96"/></linearGradient><path fill="url(#b)" d="M339.3 111.2s-.3.1-.8.2c.2.9.3 1.3.3 1.3.1.4.2.9.3 1.3.1.4.2.9.3 1.3 0 0 .1.4.3 1.3.6-.1.9-.2.9-.2.5-.1 1-.2 1.5-.4-.4-1.6-.8-3.3-1.1-5.1-.6 0-1.1.1-1.7.3z"/><linearGradient id="c" gradientUnits="userSpaceOnUse" x1="171.112" y1="57.449" x2="377.166" y2="57.449"><stop offset="0" stop-color="#0b97ac"/><stop offset="1" stop-color="#68ab96"/></linearGradient><path fill="url(#c)" d="M374.1 57.5c-2-5.5-4.8-10.7-8.2-15.4-6.7-9.4-15.5-17.2-25.1-23.5-9.6-6.3-20.2-10.9-31.2-14-5.4-1.5-11-2.6-16.6-3.4C287.3.4 281.6.1 275.9 0c-15.2 0-30.4 3-44.4 8.8-14 5.8-26.9 14.4-37.6 25.2-9.3 9.4-17.1 20.3-22.8 32.3 1.7.4 3.5.8 5.2 1.3 5.4-11 12.6-21.2 21.3-29.8 10.3-10.3 22.5-18.5 35.9-24 13.4-5.6 27.9-8.4 42.4-8.4 5.5.1 10.9.4 16.4 1.1 5.4.8 10.8 1.9 16 3.3 10.5 3 20.6 7.4 29.7 13.4 9.1 5.9 17.4 13.3 23.6 22.1 3.1 4.4 5.7 9.1 7.5 14.1 1.8 5 2.8 10.2 2.7 15.5-.1 3.2-.6 6.5-1.6 9.6-2.1 6.9-6.1 13-11.6 17.6-4.1 3.5-9 6-14.2 7.8.2.9.6 3.6 1 5.2 6-1.9 11.7-4.9 16.6-9 3.1-2.6 5.9-5.7 8.1-9.1 2.2-3.4 4-7.1 5.2-11 1.1-3.6 1.7-7.3 1.8-11 .2-6.1-1-12-3-17.5z"/><path fill="#007D81" d="M340.9 110.8c.4 1.8.7 3.5 1.1 5.1 1.2-.3 2.3-.6 3.5-1-.4-1.6-.8-4.3-1-5.2-1.2.4-2.4.8-3.6 1.1z"/><linearGradient id="d" gradientUnits="userSpaceOnUse" x1="190.571" y1="191.331" x2="216.036" y2="191.331"><stop offset="0" stop-color="#f27354"/><stop offset="1" stop-color="#f68d39"/></linearGradient><path fill="url(#d)" d="M211.5 184.3c-2.6 1.2-5.2 2.5-7.7 3.8-4.3 2.2-8.7 4.3-13.2 6.1 1.3 1.4 2.6 2.8 3.9 4.1 4-1.7 7.9-3.6 11.7-5.5 3.2-1.7 6.5-3.3 9.8-4.8-2.7-1.1-4.1-3-4.5-3.7z"/><linearGradient id="e" gradientUnits="userSpaceOnUse" x1="218.371" y1="182.241" x2="225.546" y2="182.241"><stop offset="0" stop-color="#f27354"/><stop offset="1" stop-color="#f68d39"/></linearGradient><path fill="url(#e)" d="M225.3 181.1c-.5-1.2-1.8-1.8-3-1.6-.3.1-.4.2-.4.2l-.1.1c-.1 0-.2.1-.3.1-1.1.4-2.1.9-3.1 1.4 1.4 1.3 2.9 2.6 4.4 3.8.2-.1.5-.2.7-.3.1-.1.3-.1.4-.2 0 0 .1-.1.4-.2 1.1-.8 1.5-2.1 1-3.3z"/><path fill="#C54033" d="M211.5 184.3c.4.7 1.7 2.6 4.5 3.7 2.2-1 4.5-2 6.8-3-1.5-1.2-3-2.5-4.4-3.8-2.3 1-4.6 2-6.9 3.1z"/><linearGradient id="f" gradientUnits="userSpaceOnUse" x1="293.563" y1="229.988" x2="293.672" y2="229.988"><stop offset=".001" stop-color="#4f72b7"/><stop offset=".077" stop-color="#6a6eb2"/><stop offset=".165" stop-color="#826aae"/><stop offset=".258" stop-color="#9368ab"/><stop offset=".359" stop-color="#9d66aa"/><stop offset=".486" stop-color="#a066a9"/><stop offset="1" stop-color="#4f72b7"/></linearGradient><path fill="url(#f)" d="M293.6 230.2c0-.2 0-.3.1-.4v-.1c0 .2-.1.4-.1.6v-.1z"/><linearGradient id="g" gradientUnits="userSpaceOnUse" x1="293.556" y1="229.998" x2="293.672" y2="229.998"><stop offset=".001" stop-color="#4f72b7"/><stop offset=".077" stop-color="#6a6eb2"/><stop offset=".165" stop-color="#826aae"/><stop offset=".258" stop-color="#9368ab"/><stop offset=".359" stop-color="#9d66aa"/><stop offset=".486" stop-color="#a066a9"/><stop offset="1" stop-color="#4f72b7"/></linearGradient><path fill="url(#g)" d="M293.6 230.3c.1-.2.1-.4.1-.6-.1.2-.1.4-.1.6z"/><linearGradient id="h" gradientUnits="userSpaceOnUse" x1="293.549" y1="230.333" x2="293.563" y2="230.333"><stop offset=".001" stop-color="#4f72b7"/><stop offset=".077" stop-color="#6a6eb2"/><stop offset=".165" stop-color="#826aae"/><stop offset=".258" stop-color="#9368ab"/><stop offset=".359" stop-color="#9d66aa"/><stop offset=".486" stop-color="#a066a9"/><stop offset="1" stop-color="#4f72b7"/></linearGradient><path fill="url(#h)" d="M293.5 230.4s.1-.1 0 0c.1-.1.1-.1 0 0 .1-.1.1 0 0 0z"/><linearGradient id="i" gradientUnits="userSpaceOnUse" x1="293.672" y1="229.648" x2="293.68" y2="229.648"><stop offset=".001" stop-color="#4f72b7"/><stop offset=".077" stop-color="#6a6eb2"/><stop offset=".165" stop-color="#826aae"/><stop offset=".258" stop-color="#9368ab"/><stop offset=".359" stop-color="#9d66aa"/><stop offset=".486" stop-color="#a066a9"/><stop offset="1" stop-color="#4f72b7"/></linearGradient><path fill="url(#i)" d="M293.7 229.6s0 .1 0 0c0 .1 0 .1 0 0 0 .1 0 0 0 0z"/><linearGradient id="j" gradientUnits="userSpaceOnUse" x1="170.254" y1="192.828" x2="235.495" y2="192.828"><stop offset="0" stop-color="#0b97ac"/><stop offset="1" stop-color="#68ab96"/></linearGradient><path fill="url(#j)" d="M233.8 218.3l-.9-.3c-4.9-1.9-9.7-4.5-14.3-7.4-4.6-2.9-9-6.1-13.2-9.5-8.3-6.9-15.8-15-21.8-23.9-3-4.5-5.8-9.2-8.1-14-.1-.3-.3-.6-.4-.9-.8.3-2.9 1.1-4.9 1.9.2.4.4.8.5 1.2 2.5 5.1 5.3 10 8.5 14.7 6.4 9.4 14.1 17.8 22.8 25 4.4 3.6 8.9 6.9 13.7 10 4.8 3 9.8 5.7 15.2 7.8l.9.3c1.4.5 2.9-.2 3.4-1.5.6-1.3 0-2.8-1.4-3.4z"/><linearGradient id="k" gradientUnits="userSpaceOnUse" x1="159.912" y1="115.262" x2="172.511" y2="115.262"><stop offset="0" stop-color="#0b97ac"/><stop offset="1" stop-color="#68ab96"/></linearGradient><path fill="url(#k)" d="M169.7 148c-.4-1.3-.7-2.6-1.1-3.9-.3-1.3-.6-2.6-.9-4-.3-1.3-.5-2.7-.8-4-.2-1.3-.5-2.7-.6-4-.2-1.3-.3-2.7-.5-4-.1-1.3-.2-2.7-.3-4-.1-.7-.1-1.4-.2-2 0-.7 0-1.4-.1-2 0-1.4-.1-2.7-.1-4.1 0-13.5 2.5-27.1 7.3-39.7-.8-.3-3.1-.9-5.3-.9-4.9 13-7.3 26.8-7.3 40.6 0 1.4.1 2.8.1 4.2 0 .7 0 1.4.1 2.1.1.7.1 1.4.2 2.1a12007838731592944 12007838731592944 0 0 1 1.5 12.6c.3 1.4.5 2.8.8 4.2.3 1.4.6 2.8 1 4.1.4 1.4.8 2.7 1.2 4.1.6 1.9 1.2 3.8 1.9 5.7 1.6-.6 3.3-1.2 5-1.7-.7-1.7-1.3-3.5-1.9-5.4z"/><path fill="#00718F" d="M171.6 153.5c-1.7.5-3.4 1.1-5 1.7 1.1 3.1 2.3 6.1 3.7 9 2-.8 4.1-1.6 4.9-1.9-1.4-2.9-2.6-5.9-3.6-8.8z"/><path fill="#6DB981" d="M424.1 205.9c-4.4-1.2-4.8-1.6-6-6-.3-1.2-1.5-2.1-2.7-2.1-1.3 0-2.4.9-2.7 2.1-1.2 4.4-1.6 4.8-6 6-1.2.3-2.1 1.5-2.1 2.7 0 1.3.9 2.4 2.1 2.7 4.4 1.2 4.8 1.6 6 6 .3 1.2 1.5 2.1 2.7 2.1 1.3 0 2.4-.9 2.7-2.1 1.2-4.4 1.6-4.8 6-6 1.2-.3 2.1-1.5 2.1-2.7 0-1.2-.8-2.4-2.1-2.7z"/><path fill="#0B97AC" d="M175.9 14.2c-4.4-1.2-4.8-1.6-6-6-.3-1.2-1.5-2.1-2.7-2.1-1.3 0-2.4.9-2.7 2.1-1.2 4.4-1.6 4.8-6 6-1.2.3-2.1 1.5-2.1 2.7 0 1.3.9 2.4 2.1 2.7 4.4 1.2 4.8 1.6 6 6 .3 1.2 1.5 2.1 2.7 2.1 1.3 0 2.4-.9 2.7-2.1 1.2-4.4 1.6-4.8 6-6 1.2-.3 2.1-1.5 2.1-2.7 0-1.2-.8-2.3-2.1-2.7z"/><path fill="#C12C4F" d="M333.2 191.8v.1c.1-.1.1-.1 0-.1z"/><linearGradient id="l" gradientUnits="userSpaceOnUse" x1="130.542" y1="155.403" x2="469.667" y2="155.403"><stop offset="0" stop-color="#f27354"/><stop offset="1" stop-color="#f68d39"/></linearGradient><path fill="url(#l)" d="M469.7 136.5c-.1-4.7-1.9-9.3-4.8-12.9-2.9-3.6-6.5-6.2-10.4-8.2-3.9-2-8-3.4-12.2-4.4-4.2-.9-8.5-1.4-12.8-1.3-2.2 0-4.5.2-6.7.6-1.4-3.1-4.3-5.5-8-6.2-2.8-.5-5.7.2-8 1.8-2.3 1.7-3.9 4.1-4.4 6.9-.5 2.8.2 5.7 1.8 8 1.7 2.3 4.1 3.9 6.9 4.4.6.1 1.2.2 1.8.2 2.2 0 4.3-.7 6.2-2 2.3-1.7 3.9-4.1 4.4-6.9.1-.4.1-.7.1-1.1 1.9-.3 3.9-.5 5.9-.5 7.7-.1 15.6 1.6 22.4 5.1 3.4 1.8 6.4 4.1 8.7 6.9 2.3 2.8 3.6 6.2 3.7 9.7 0 1.7-.2 3.4-.7 5.1-.2.5-.3.7-.3.7-.9 2.8-2.7 5.3-4.9 7.5-.5.5-1.1 1-1.7 1.5-.1.1-.2.2-.3.2-.4.4-.9.7-1.3 1-1.2.9-2.4 1.6-3.7 2.4-.2.1-.5.3-.7.4l-2.1 1.2h-.1c-.8.4-1.6.8-2.3 1.1-.3.2-.7.3-1 .5-.2.1-.4.2-.7.3l-.6.3c-.6.3-1.3.5-1.9.7-.6.2-1.2.5-1.8.7-.2.1-.4.2-.7.2-.2.1-.3.1-.5.2-.5.2-1 .3-1.5.5-1.1.4-2.3.7-3.4 1-.6.2-1.2.3-1.8.5-.5.1-.9.2-1.4.3-1.2.3-2.3.6-3.5.8-.7.2-1.4.3-2.2.4-.9.2-1.8.4-2.8.5-1 .2-1.9.3-2.9.5l-2.1.3c-1.2.2-2.4.3-3.6.4-.5.1-1 .1-1.5.2-1.4.2-2.8.3-4.2.4-.3 0-.6.1-.8.1l-4.8.3h-.3c-1.7.1-3.4.1-5.1.2h-8.2c-.6 0-1.2-.1-1.8-.1-.4 0-.9 0-1.3-.1-.6 0-1.3-.1-1.9-.1-.4 0-.8 0-1.2-.1-.7 0-1.4-.1-2-.2-.4 0-.7-.1-1.1-.1-.7-.1-1.5-.1-2.2-.2-.3 0-.6-.1-.9-.1l-2.4-.3c-.2 0-.5 0-.7-.1l-2.7-.3c-.1 0-.3 0-.4-.1-.3 0-.7-.1-1-.1l-2.1-.3c-1-.2-2.1-.3-3.1-.5-.3-.1-.6-.1-1-.2-1.7-.3-3.5-.7-5.2-1-.5-.1-1.1-.2-1.6-.4-.5-.1-1-.2-1.4-.3-4.1-1-8.1-2.1-12-3.4-2-.7-4.1-1.3-6.1-2-.3-.1-.5-.2-.8-.3-1.3-.4-2.7-.8-4-1.2l-3-.9c-.8-.2-1.7-.5-2.6-.7-1.5-.4-3-.9-4.5-1.3-1.3-.4-2.6-.7-3.9-1-1.1-.3-2.1-.6-3.2-.8-1.8-.5-3.7-.9-5.5-1.3-.5-.1-1-.3-1.6-.4-1.2-.3-2.4-.5-3.6-.8-1.2-.3-2.4-.5-3.6-.8-.5-.1-1.1-.2-1.6-.3-1.9-.4-3.7-.7-5.6-1.1-.7-.1-1.3-.2-2-.3-1.7-.3-3.5-.6-5.2-.9-2.4-.4-4.8-.8-7.2-1.1-.3 0-.6-.1-.9-.1l-6.3-.9-2.7-.3c-1.5-.2-3.1-.4-4.6-.5-1.8-.2-3.7-.4-5.5-.5-.6-.1-1.2-.1-1.7-.2-.9-.1-1.9-.1-2.8-.2-3.9-.3-7.9-.5-11.8-.7h-.4c-4.7-.2-9.5-.3-14.3-.2h-3.2c-1 0-2.1 0-3.1.1h-.5c-.9 0-1.7.1-2.6.1-.4 0-.8 0-1.2.1-.6 0-1.3.1-1.9.1-.6 0-1.2.1-1.8.1-.4 0-.9.1-1.3.1-.7 0-1.5.1-2.2.2-.3 0-.6 0-.9.1-.8.1-1.7.1-2.5.2-.2 0-.4 0-.6.1l-2.7.3h-.4c-.9.1-1.9.2-2.8.3h-.3c-1 .1-1.9.2-2.9.4h-.3c-.9.1-1.9.3-2.8.4h-.3c-.9.1-1.8.3-2.7.4-.1 0-.3 0-.4.1-.9.2-1.7.3-2.6.5-.2 0-.3.1-.5.1-.8.2-1.6.3-2.5.5-.2 0-.4.1-.7.1-.8.2-1.5.3-2.3.5-.3.1-.6.1-.8.2-.7.2-1.4.3-2.1.5-.3.1-.6.1-.9.2h-.1c-.1 0-.2 0-.3.1-.6.2-1.3.3-1.9.5-.3.1-.6.1-.9.2-.7.2-1.3.4-2 .6-.4.1-.8.2-1.1.3-.6.2-1.1.4-1.7.5-.5.2-.9.3-1.4.5-.5.2-1 .3-1.4.5-.5.2-1.1.4-1.6.6-.4.2-.8.3-1.2.5-.6.2-1.2.5-1.8.7-.4.1-.7.3-1.1.5-.6.3-1.3.5-1.9.8-.3.2-.7.3-1 .5-.6.3-1.3.6-1.9.9-.3.2-.7.3-1 .5-.5.3-1 .5-1.5.8-.1.1-.2.1-.3.2-.1.1-.2.1-.3.1-.7.4-1.3.8-2 1.2-.1.1-.2.1-.4.2l-2.4 1.5c-.1.1-.3.2-.4.3-.8.5-1.5 1.1-2.3 1.6-.1.1-.2.2-.4.3-.8.6-1.5 1.2-2.3 1.8l-.1.1-.3.3c-.1.1-.2.2-.3.2-.1 0-.1.1-.2.1-.3.3-.6.5-.9.8-.2.1-.3.3-.4.4l-.6.6-.8.8-.3.3c-.3.3-.5.6-.8.9l-.2.2c-.1.1-.2.2-.3.4-.1.2-.3.3-.4.5-.3.4-.6.7-.8 1.1l-.1.1c-.3.4-.5.8-.8 1.1-.1.1-.2.3-.3.4-.2.3-.3.5-.5.8-.2.4-.4.7-.6 1.1 0 0-.1.3-.4.8-2 4-3.6 8.4-3.7 13.3-.1 3.2.7 6.6 2.5 9.5 1.7 2.9 4.3 5.2 7.1 6.7 2.8 1.6 5.8 2.6 8.7 3.2 3 .6 6 .8 9 .9 4.3 0 8.6-.5 12.8-1.2 4.2-.8 8.3-1.8 12.4-3.1 1.4-.4 2.7-.9 4.1-1.4-.5-.3-2.2-1.6-3.8-4.2l-1.8.6c-3.8 1.2-7.8 2.2-11.7 2.9-3.9.7-7.9 1.1-11.9 1.1-2.7-.1-5.4-.3-8-.8-2.6-.5-5-1.4-7.2-2.6-2.2-1.2-4-2.9-5.2-4.9-1.2-2-1.8-4.3-1.7-6.8.1-3.7 1.3-7.4 3.1-10.9l.1-.2c.2-.3.3-.5.3-.5.2-.3.4-.6.6-1 .1-.2.3-.4.4-.7.1-.1.1-.2.2-.3.2-.3.5-.7.7-1 .2-.3.5-.7.8-1 .1-.1.2-.3.3-.4.1-.2.3-.3.4-.5.2-.3.5-.5.7-.8.1-.1.1-.2.2-.2.2-.2.4-.5.7-.7.2-.2.3-.4.5-.5l.4-.4c.3-.3.5-.5.8-.7l.2-.2c.4-.4.9-.7 1.3-1.1l1.2-.9c.4-.3.9-.6 1.3-.9.4-.3.7-.5 1.1-.8.4-.3.9-.6 1.4-.9.4-.2.8-.5 1.2-.7.4-.3.9-.5 1.3-.8.4-.2.8-.5 1.3-.7.6-.3 1.1-.6 1.7-.9.3-.2.6-.3.9-.5l1.8-.9c.3-.1.6-.3.9-.4.6-.3 1.2-.5 1.8-.8.3-.1.7-.3 1-.4.6-.2 1.1-.4 1.7-.7.4-.1.8-.3 1.2-.4.5-.2 1-.4 1.5-.5.5-.2.9-.3 1.4-.5.4-.1.9-.3 1.3-.4.5-.2 1.1-.4 1.6-.5.4-.1.7-.2 1.1-.3.6-.2 1.3-.4 1.9-.6.3-.1.6-.1.8-.2l2.1-.6c.3-.1.6-.1.9-.2.7-.2 1.4-.3 2.1-.5.3-.1.5-.1.8-.2.7-.2 1.5-.3 2.2-.5.2 0 .4-.1.6-.1.8-.2 1.6-.3 2.4-.5.2 0 .3-.1.5-.1.9-.2 1.7-.3 2.6-.5.1 0 .2 0 .4-.1.9-.2 1.8-.3 2.7-.4h.3c.9-.1 1.8-.3 2.7-.4h.3c.9-.1 1.8-.2 2.8-.4h.4l2.7-.3h.4l2.7-.3h.6c.8-.1 1.7-.1 2.5-.2.3 0 .6 0 .9-.1.7-.1 1.5-.1 2.2-.2.4 0 .8 0 1.2-.1.6 0 1.2-.1 1.9-.1.6 0 1.1-.1 1.7-.1.5 0 .9 0 1.4-.1.7 0 1.5-.1 2.2-.1h.9c.9 0 1.8-.1 2.7-.1h10.7c2.1 0 4.2.1 6.3.2h.9c1.6.1 3.3.2 4.9.2.8 0 1.5.1 2.3.1 1 .1 2 .1 2.9.2 1.4.1 2.8.2 4.3.3.5 0 1 .1 1.6.1 1.9.2 3.7.3 5.6.5 1.2.1 2.5.3 3.7.4 1.2.1 2.3.3 3.5.4 1 .1 1.9.3 2.9.4 1.4.2 2.9.4 4.3.6h.1c2.3.3 4.7.7 7 1.1 4.2.7 8.5 1.5 12.7 2.3l1.5.3c1.7.4 3.5.7 5.2 1.1.6.1 1.2.3 1.9.4 1.9.4 3.7.9 5.6 1.3.5.1 1 .2 1.4.3l3.6.9 3.3.9c.6.2 1.3.4 1.9.5 1.7.5 3.3.9 5 1.4.4.1.9.3 1.3.4 4.2 1.2 8.3 2.5 12.4 3.9 2.1.7 4.1 1.3 6.2 1.9.1 0 .1 0 .2.1 1 .3 2 .5 2.9.8.4.1.9.2 1.3.3.6.2 1.2.3 1.9.5s1.5.3 2.3.5c.3.1.6.1.9.2.8.2 1.7.4 2.5.5.2 0 .4.1.6.1 2.1.4 4.2.8 6.4 1.2.9.1 1.8.3 2.8.4.1 0 .3 0 .4.1.4.1.9.1 1.3.2.4 0 .8.1 1.1.1 1.3.2 2.6.3 4 .5.6.1 1.1.1 1.7.2.5 0 1 .1 1.5.1h.6c.9.1 1.7.1 2.6.2.3 0 .6 0 .9.1.8 0 1.6.1 2.3.1h1.1c.7 0 1.4.1 2.1.1h3.3c7 .1 14-.2 21-1h.3c.8-.1 1.5-.2 2.3-.3.2 0 .4-.1.6-.1.7-.1 1.3-.2 2-.3.3 0 .6-.1.9-.1.6-.1 1.1-.2 1.7-.3.4-.1.8-.1 1.3-.2.4-.1.9-.1 1.3-.2.5-.1 1.1-.2 1.6-.3.3-.1.6-.1.9-.2.7-.1 1.3-.3 2-.4.2 0 .4-.1.6-.1.8-.2 1.5-.3 2.3-.5.1 0 .2 0 .2-.1 1-.2 2-.5 3-.7.5-.1 1-.3 1.5-.4.4-.1.7-.2 1.1-.3l2.1-.6c.1-.1.3-.1.4-.1.4-.1.8-.3 1.2-.4l.9-.3c.2-.1.5-.2.7-.2.6-.2 1.2-.4 1.7-.6.1 0 .2-.1.2-.1.1 0 .2-.1.3-.1.6-.2 1.2-.4 1.7-.7l.6-.3c.3-.2.7-.3 1-.5.3-.1.5-.2.8-.4.2-.1.5-.2.7-.3l1.8-.9h.1c.8-.4 1.6-.8 2.3-1.3l.6-.3c.2-.1.5-.3.7-.4.6-.4 1.3-.8 1.9-1.2.3-.2.7-.5 1-.7.2-.1.4-.3.6-.4 1.6-1.2 3.2-2.5 4.6-3.9 2.6-2.7 4.9-6.1 6-10 .3-1.6.6-3.8.6-6zm-51.3-20.9c-.2 1.4-1 2.7-2.2 3.5-1.2.8-2.6 1.2-4.1.9-1.4-.2-2.7-1-3.5-2.2-.8-1.2-1.2-2.7-.9-4.1.2-1.4 1-2.7 2.2-3.5.9-.7 2-1 3.2-1 .3 0 .6 0 .9.1 2.9.4 4.9 3.3 4.4 6.3z"/><linearGradient id="m" gradientUnits="userSpaceOnUse" x1="371.988" y1="132.522" x2="391.852" y2="132.522"><stop offset=".001" stop-color="#ee4d7a"/><stop offset="1" stop-color="#ee5c6c"/></linearGradient><path fill="url(#m)" d="M391.8 113.6v-.5c0-1.4-.1-2.8-.2-4.2-.1-2-.3-4-.5-6-.2-2.2-.6-4.4-.9-6.7 0-.1 0-.3-.1-.4v-.4c-.4-1.3-1.6-2.1-3-1.9-1.3.2-2.3 1.5-2.2 2.8v.2c0 .2.1.4.1.6 1.1 6.2 1.6 12.5 1.6 18.8 0 1.2 0 2.3-.1 3.5-.1 1.6-.1 3.3-.3 4.9v.5c-.1 1.3-.2 2.6-.4 3.9 0 .2 0 .4-.1.6-.1 1.2-.3 2.5-.5 3.7 0 .2-.1.5-.1.7-.2 1.2-.4 2.3-.6 3.5-.1.3-.1.6-.2.9-.2 1.1-.5 2.2-.8 3.4-.1.3-.1.7-.2 1l-.9 3.3c-.1.3-.2.7-.3 1-.3 1.1-.7 2.2-1 3.2-.1.3-.2.7-.3 1-.4 1.1-.7 2.1-1.1 3.1-.1.4-.2.7-.4 1.1-.4 1-.8 2.1-1.2 3.1-.1.3-.3.7-.4 1-.4 1-.9 2-1.4 3.1-.2.3-.3.7-.5 1l-1.5 3c-.2.3-.3.7-.5 1-.5 1-1.1 2-1.6 3-.1.2-.2.3-.3.5 1.9.2 3.8.5 5.6.7.3-.6.6-1.1.9-1.7.2-.4.4-.7.5-1.1.5-1 1.1-2.1 1.5-3.1.2-.4.3-.7.5-1.1.5-1 1-2.1 1.4-3.1.2-.4.3-.8.5-1.1.4-1.1.9-2.1 1.3-3.2.1-.4.3-.8.4-1.2.4-1 .8-2 1.1-3.1 0-.1 0-.1.1-.2v-.1c.1-.4.2-.7.3-1.1.4-1.1.7-2.2 1-3.3.1-.4.2-.8.3-1.1.3-1.1.6-2.2.9-3.4.1-.4.2-.7.2-1.1.3-1.2.5-2.3.8-3.5.1-.3.1-.7.2-1 .2-1.2.5-2.4.7-3.6 0-.3.1-.6.1-.9.2-1.2.4-2.5.5-3.7 0-.3 0-.5.1-.8.1-1.3.3-2.6.4-3.9v-.6c.1-1.4.2-2.7.2-4.1.1-1.6.1-3.1.1-4.7.4-.6.3-1.4.3-2.2z"/><path fill="#C12C4F" d="M338.5 189.5v-.2c-.4-1.9-1.2-3.7-2.3-5.4 0 0 0-.1-.1-.1s-1.4-1.3-1.7-1.6l-.7-.7c-.6.6-.9 1-.9 1-.3.3-.6.6-.9 1-.3.3-.6.6-.9 1 0 0-.3.3-.9 1 .3.4.5.5.5.5.3.3.8 1.2.8 1.2.5.7.9 1.4 1.3 2.2.4.9.6 1.7.6 2.7v1c2.6.3 4.7.4 5.2.4.1-1.1.2-2.7 0-4z"/><linearGradient id="n" gradientUnits="userSpaceOnUse" x1="304.04" y1="204.042" x2="371.33" y2="204.042"><stop offset=".001" stop-color="#ee4d7a"/><stop offset="1" stop-color="#ee5c6c"/></linearGradient><path fill="url(#n)" d="M364.9 181.8c-.2.2-.3.5-.5.7-.7 1-1.5 1.9-2.2 2.9-.2.2-.3.4-.5.6-.8 1-1.6 1.9-2.4 2.8-.2.2-.3.4-.5.5-.8 1-1.7 1.9-2.6 2.8-.1.2-.3.3-.4.5-.9.9-1.8 1.9-2.8 2.8l-.4.4c-1 .9-1.9 1.8-2.9 2.7l-.3.3c-1 .9-2 1.8-3.1 2.6-.1.1-.2.2-.3.2-1.1.9-2.2 1.7-3.3 2.6-.1.1-.2.1-.2.2-1.1.9-2.3 1.7-3.4 2.5-.1 0-.1.1-.2.1l-3.6 2.4s-.1 0-.1.1c-1.2.8-2.5 1.6-3.8 2.3-1.3.7-2.5 1.4-3.8 2.1h-.1c-1.3.7-2.6 1.3-3.9 1.9 0 0-.1 0-.1.1-.1 0-.1 0-.2.1 1.2-1 2.3-2.1 3.5-3.2 2.8-2.8 5.5-5.8 7.8-9.2 1.1-1.8 2.2-3.6 2.9-5.7.3-.8.5-1.7.7-2.6.1-.3.1-.8.1-.8.1-.7.2-1.7.3-1.8 0-.3-5.3-.2-5.3-.2l-.2 1.6c-.5 2.2-1.5 4.5-2.9 6.6-1.9 3-4.4 5.7-7.1 8.3-2.7 2.6-5.5 5-8.5 7.3s-6.1 4.5-9.2 6.4h-.1c-1 .6-1.5 1.8-1.1 3 .4 1.4 1.9 2.2 3.3 1.7l.9-.3c1.5-.4 2.9-.9 4.4-1.4.1 0 .2-.1.3-.1 1.4-.5 2.8-1 4.1-1.5.1 0 .2-.1.3-.1 1.3-.5 2.7-1.1 4-1.6.1 0 .2-.1.3-.1 1.3-.6 2.6-1.2 4-1.8.1 0 .2-.1.2-.1 1.3-.6 2.6-1.3 3.9-2 .1 0 .1-.1.2-.1 1.3-.7 2.6-1.4 3.9-2.2 0 0 .1 0 .1-.1 1.3-.8 2.6-1.5 3.9-2.3.1 0 .1-.1.2-.1 1.1-.7 2.1-1.4 3.2-2.1.2-.1.3-.2.5-.4.1 0 .1-.1.2-.2 1.2-.8 2.4-1.7 3.5-2.6.1-.1.2-.2.3-.2 1.1-.9 2.2-1.7 3.3-2.6.1-.1.2-.2.4-.3 1.1-.9 2.1-1.8 3.2-2.7l.4-.4c1-.9 2-1.8 3-2.8l.5-.5c1-.9 1.9-1.9 2.8-2.8.2-.2.3-.4.5-.5.9-1 1.8-1.9 2.7-2.9.2-.2.3-.4.5-.6.8-1 1.7-1.9 2.5-2.9.2-.2.4-.5.6-.7l2.1-2.7c.1-.1.1-.2.2-.3l.1-.1c.2-.2.3-.5.5-.7.7-1 1.5-2 2.2-3-1-.2-3.2-.7-5.4-1.5-.4.7-.8 1.2-1.1 1.7z"/><path fill="#C12C4F" d="M375.9 171.5c-1.3-.1-2.7-.3-4-.5-.5.8-3.9 6.4-6 9.3 2.2.7 4.3 1.2 5.3 1.4 2.2-3.4 4.9-7.8 6.3-10.2-.5.1-1 .1-1.6 0z"/><linearGradient id="o" gradientUnits="userSpaceOnUse" x1="88.183" y1="89.674" x2="200.923" y2="89.674"><stop offset="0" stop-color="#72b08f"/><stop offset="1" stop-color="#6db981"/></linearGradient><path fill="url(#o)" d="M174.7 61.5c-12.9-3.2-26.2-5.2-39.7-5.2-7.9.1-15.8.7-23.6 3-3.9 1.1-7.7 2.7-11.2 4.9-3.5 2.2-6.7 5.3-8.9 9.1-1 1.9-1.9 3.9-2.4 6.1-.5 2.2-.8 4.4-.7 6.7.1 2.6.7 5.1 1.7 7.4 1 2.3 2.3 4.5 3.8 6.4 3.1 3.9 7 6.8 11.1 9.1 8 4.4 16.9 6.6 25.9 6.7.1.2.2.5.3.7.1.3.2.5.4.8 1.3 2.5 3.6 4.4 6.3 5.3 1.1.3 2.1.5 3.2.5 4.6 0 8.8-2.9 10.2-7.5.9-2.7.6-5.6-.7-8.2-1.3-2.5-3.6-4.4-6.3-5.3-2.7-.9-5.6-.6-8.2.7-2.5 1.3-4.4 3.6-5.3 6.3-.1.3-.1.5-.2.8 0 .2-.1.4-.1.6-8-.2-16-2.2-22.9-6-3.7-2.1-7-4.6-9.5-7.8s-4.2-6.9-4.3-10.8c-.1-1.7.2-3.4.6-5.1.4-1.7 1.2-3.3 2-4.9 1.6-2.9 4.1-5.3 7.1-7.2 3-1.9 6.4-3.3 9.9-4.3 7.1-2.1 14.6-2.8 22.1-2.8 12.9 0 25.8 2 38.4 5.1 8.3 2.1 16.5 4.6 24.6 7.5.9-2.1 2.4-4.1 2.8-4.6-8.7-3.1-17.5-5.8-26.4-8zm-39.1 49.2c.7-2.3 2.9-3.8 5.2-3.8.5 0 1.1.1 1.6.3 1.4.4 2.5 1.4 3.2 2.7.7 1.3.8 2.8.4 4.2-.9 2.9-4 4.5-6.9 3.6-1.4-.4-2.5-1.4-3.2-2.7-.3-.5-.4-1-.5-1.6v-.1c0-.2 0-.5-.1-.7 0-.7.1-1.3.3-1.9z"/><path fill="#2C9570" d="M200.9 69.6c-.4.5-1.9 2.4-2.8 4.6 3.4 1.2 6.7 2.5 10 3.9 1-1.5 2.1-3 3.2-4.4-3.4-1.5-6.9-2.8-10.4-4.1z"/><linearGradient id="p" gradientUnits="userSpaceOnUse" x1="280.954" y1="200.596" x2="348.844" y2="200.596"><stop offset=".001" stop-color="#4f72b7"/><stop offset=".077" stop-color="#6a6eb2"/><stop offset=".165" stop-color="#826aae"/><stop offset=".258" stop-color="#9368ab"/><stop offset=".359" stop-color="#9d66aa"/><stop offset=".486" stop-color="#a066a9"/><stop offset="1" stop-color="#4f72b7"/></linearGradient><path fill="url(#p)" d="M336.2 177.1c-7.2 5.4-15.3 9.8-23.6 13.4-8.8 3.8-18.3 6-27.9 6.7-1 .1-2 .6-2.7 1.4-.7.8-1.1 1.8-1 2.9 0 .7.3 1.5.7 2 2.1 3.1 3.7 6.8 4.8 10.6 1.2 3.8 1.8 7.7 2 11.6v2.3c.9.5 1.3.7 1.3.7.4.2.9.5 1.3.7.4 0 .9.1 1.3.1 0 0 .4 0 1.3.1v-.2c0-.4 0-.9.1-1.3v-2.4c-.2-4.5-.9-8.8-2.2-13-.6-2.1-1.4-4.2-2.3-6.2-.2-.5-.5-1-.7-1.5-.3-.5-.5-1-.8-1.5-.2-.4-.4-.8-.7-1.2.6-.1 1.2-.1 1.8-.2 1.3-.2 2.5-.3 3.8-.5 2.5-.4 5-.9 7.5-1.5 4.9-1.2 9.8-2.8 14.5-4.8 8.7-3.7 17-8.3 24.7-14 3.4-2.5 6.6-5.3 9.5-8.4-.7-.1-3.8-.3-6-1.4-2.2 2-4.4 3.9-6.7 5.6z"/><path fill="#483A86" d="M346.1 168.2c-1 1.2-2.2 2.3-3.3 3.3 2.2 1.1 5.3 1.4 6 1.4l1.2-1.2c1.1-1.3 2.2-2.6 3.2-4-1.9-.4-3.7-.9-5.5-1.4-.5.7-1 1.3-1.6 1.9z"/><linearGradient id="q" gradientUnits="userSpaceOnUse" x1="194.203" y1="102.621" x2="360.266" y2="102.621"><stop offset=".001" stop-color="#4f72b7"/><stop offset=".077" stop-color="#6a6eb2"/><stop offset=".165" stop-color="#826aae"/><stop offset=".258" stop-color="#9368ab"/><stop offset=".359" stop-color="#9d66aa"/><stop offset=".486" stop-color="#a066a9"/><stop offset="1" stop-color="#4f72b7"/></linearGradient><path fill="url(#q)" d="M360.3 145.7c-.5-1.7-1.1-3.4-1.9-5.1-.4-.8-1-1.6-1.5-2.4-.2-.2-.3-.4-.5-.6-.1-.1-.2-.2-.2-.3v-.1c0-.1 0-.3.1-.4v-.9c0-1.1-.3-2.1-.7-3-.5-1-1.2-1.9-2.2-2.5-1-.7-2.2-1.1-3.4-1.2-.9-.1-1.9 0-2.7.3h-.1c-.1-.1-.1-.2-.2-.3-.1-.2-.3-.4-.4-.7-.8-1.5-1.6-3.5-2.2-5.4-.7-1.9-1.2-4-1.7-6-1-4.1-1.9-8.2-2.5-12.3-.6-4.2-1.1-8.3-1.4-12.5-.3-4.2-.4-8.4-.3-12.6v-.6c-.6-3.2-1.8-6.3-3.4-9.1-1.6-2.8-3.6-5.3-5.8-7.5-4.5-4.5-9.6-7.9-15-10.7-5.9-3.1-12.2-5.5-18.7-7.1-6.5-1.6-13.2-2.4-19.9-2.4-6.5.1-12.9.9-19.2 2.4-.8.2-1.7.4-2.5.7-.2 0-.3.1-.5.1-.1-.1-.1-.2-.2-.3-.4-.7-.9-1.4-1.4-2-1-1.3-2-2.6-3.2-3.9-1.1-1.1-2.7-1.8-4.2-1.8-.9 0-1.9.2-2.8.6-5.3 2.5-10 6.2-13.8 10.7-1.9 2.3-3.5 4.8-4.7 7.5-.6 1.4-1.1 2.8-1.6 4.2-.2.7-.4 1.5-.5 2.2-.1.4-.1.8-.2 1.1v.1l-.1.1c-.3.2-.5.5-.8.7-.5.5-1.1 1-1.6 1.5-1 1-2 2.1-3 3.1-2 2.1-3.7 4.4-5.4 6.7-3.4 4.7-6.2 9.7-8.6 15-2.3 5.3-4 10.8-5.2 16.5-1.1 5.7-1.7 11.4-1.6 17.2.1 7.8 1.3 15.6 3.6 23.1 1.7-.2 3.5-.4 5.3-.6-2.3-7.3-3.6-14.9-3.7-22.5 0-5.4.5-10.8 1.5-16.1 1.1-5.3 2.7-10.5 4.9-15.4s4.9-9.7 8-14c3.2-4.4 6.8-8.4 10.8-12l.9-1.7c.5-4.8 2.8-9.5 6-13.4 3.2-3.9 7.3-7.1 11.9-9.3.1-.1.3-.1.4-.1.2 0 .5.1.6.3 1.9 2 3.7 4.5 5.1 6.9l3.1 1.2c1.5-.4 3-.9 4.6-1.3 5.9-1.4 11.9-2.2 17.9-2.3 6.3 0 12.5.7 18.6 2.2 6.1 1.5 12 3.8 17.5 6.7 5 2.7 9.8 5.9 13.7 9.8 2 2 3.7 4.1 5 6.4.7 1.2 1.2 2.4 1.7 3.6.3.6.4 1.3.6 1.9.1.3.2.6.2 1 .1.3.1.5.2.8v3c0 1.1 0 2.2.1 3.3 0 2.2.2 4.4.3 6.5.3 4.3.8 8.7 1.5 13 .7 4.3 1.5 8.6 2.6 12.8.6 2.1 1.1 4.2 1.8 6.3.3 1.1.7 2.1 1.1 3.2.2.5.5 1.1.7 1.6.2.5.6 1.1.9 1.7.8 1.3 1.8 2.6 2.9 3.6 1.3-.1 2.6-.2 3.9-.4-.1 0 .3-.2.7-.1.3 0 .7.1.9.3.1.1.3.3.4.5.1.2.2.5.2.8v.5c.1 1.1.3 2.3.4 3.4 1 .9 1.8 1.9 2.4 3.1.4.7.7 1.5 1 2.3l-1.3 2.9v.1c0 .2.1.3.1.5s.1.4.1.7c0 .4.1.9.1 1.3.1 2.3-.1 4.5-.8 6.5v.1c0 .1 0 .2-.1.3-1.2 3.1-3 5.9-5.1 8.6 1.8.5 3.7 1 5.5 1.4 1.9-2.6 3.5-5.5 4.7-8.6.1-.2.1-.4.2-.7.8-2.6 1-5.3.9-7.8 0-.6-.1-1.2-.1-1.7.2-.2.5-.3.7-.6l.6-2.6z"/><linearGradient id="r" gradientUnits="userSpaceOnUse" x1="200.214" y1="193.368" x2="293.676" y2="193.368"><stop offset=".001" stop-color="#4f72b7"/><stop offset=".077" stop-color="#6a6eb2"/><stop offset=".165" stop-color="#826aae"/><stop offset=".258" stop-color="#9368ab"/><stop offset=".359" stop-color="#9d66aa"/><stop offset=".486" stop-color="#a066a9"/><stop offset="1" stop-color="#4f72b7"/></linearGradient><path fill="url(#r)" d="M291.1 229.4c-.4-.2-.9-.5-1.3-.7 0 0-.4-.2-1.3-.7h-39.7c.4-.6.7-1.2 1.1-1.8.7-1.2 1.5-2.4 2.3-3.6 1.6-2.3 3.3-4.6 5-6.8 3.5-4.4 7.5-8.5 11.8-11.7.5-.3.9-.8 1.2-1.4.3-.6.4-1.2.4-1.8 0-1-.3-1.9-1-2.7-.6-.8-1.6-1.2-2.5-1.3 0 0-.1 0 0 0-11.5-1.3-22.8-4.8-32.7-10.6-10-5.8-18.5-13.9-24.3-23.8-1.8-3-3.3-6-4.6-9.2-1 .2-3.8.8-5.2 1 1.5 3.7 3.3 7.4 5.4 10.8 6.3 10.7 15.5 19.5 26.2 25.7 5.3 3.1 11 5.6 16.8 7.4 1.5.4 2.9.9 4.4 1.3 1.5.4 3 .7 4.5 1.1 1.5.3 3 .6 4.5.8.5.1 1.1.2 1.6.2-.1.1-.2.2-.4.3-.3.2-.6.5-.9.7-1.1 1-2.2 2-3.3 3.1-2.1 2.1-4.1 4.4-6 6.7-3.7 4.6-7.1 9.5-10 14.7-.3.6-.5 1.3-.5 2.1 0 1.1.5 2 1.2 2.7.7.7 1.8 1.1 2.8 1.2 0 0 .1 0 0 0H290c.2 0 .6-.1 1.1-.3.5-.2 1-.5 1.5-1 .4-.4.7-1 .9-1.7 0-.2.1-.4.1-.7-.9-.1-1.3-.1-1.3-.1-.4.2-.8.2-1.2.1z"/><path fill="#483A86" d="M203.1 147.2c-1.8.2-3.6.4-5.3.6.7 2.2 1.5 4.5 2.4 6.6 1.4-.3 4.3-.8 5.2-1-.8-2-1.6-4.1-2.3-6.2z"/></svg>