<svg xmlns="http://www.w3.org/2000/svg" viewBox="0 0 1104.4 260.6"><path fill="#FFF" d="M509.9 141.5c0 10.7-9 19.4-19.7 19.4h-5.9c-10.1 0-18.5-8-18.5-18.4v-40.2c0-1.6.8-2.4 2.4-2.4h5.1c2.4 0 2.4 1.4 2.4 3v39.6c0 4.7 4 8.4 8.5 8.4h5.9c5.3 0 9.6-4.2 9.6-9.4v-38.7c0-1.5.2-3 2.5-3h5c1.7 0 2.5.8 2.5 2.4v39.3zm92.8 16.9c0 1.2-1.1 2.4-2.5 2.4H595c-1 0-1.7-.4-2.1-1.1-9.1-13.6-17.1-25.4-26.5-39.3v38c0 1.2-1.1 2.4-2.5 2.4h-5.3c-1.4 0-2.3-1.2-2.3-2.4l-.2-56.1c0-1.2 1-2.4 2.4-2.4h5.6c.9 0 1.6.4 2.1 1.2v-.1l26.2 39.3v-38c0-1.2 1.1-2.4 2.5-2.4h5.2c1.4 0 2.5 1.2 2.5 2.4v56.1zm56.6 0c0 1.2-1.1 2.4-2.5 2.4h-5.2c-1.4 0-2.3-1.2-2.3-2.4l-.2-56.1c0-1.2 1-2.4 2.4-2.4h5.2c1.4 0 2.5 1.2 2.5 2.4v56.1zm92.2-47.5l-8.2 22.6-7.9 21.7-1.3 3.6c-.5 1.2-.9 2-2.4 2H725c-1.8 0-2.1-.9-2.4-1.9l-5.3-15.2c-4.8-13.7-9-26.5-14.6-40.2-.3-.5-.3-1.1-.3-1.3 0-1.6.8-2.4 2.5-2.4h5.9c1.5 0 1.9 1 2.4 2l15 44.4 14.9-44.4-.1.5c0-.2.2-.2.2-.3.5-1.4 1.3-2.1 2.4-2.1h6c1.2 0 2.4 1.2 2.4 2.4.3.2-.7 3.6-2.5 8.6zm48.7 49.9c-1.4 0-2.4-1-2.4-2.4l-.2-56.1c0-1.4 1.1-2.4 2.6-2.4H837c2.5 0 2.5 1.4 2.5 3v4.2c0 2.7-.4 3-3.1 3h-28.6v13.5h25.4c1.4 0 2.4 1.1 2.4 2.5v5.2c0 1.4-1 2.5-2.4 2.5h-25.4v17h29.6c2.7 0 3 .2 3 3v4.1c0 1.5 0 3-2.5 3h-37.7zm114-61c6.9 0 12.9 6 12.9 13 0 5.8-3.1 9.1-7.5 12.1 1.6 4.3 3.1 8.2 4.7 12.5 2.4 6.7 5 13.5 7.6 20.3.8 2.1-.3 3.1-2.4 3.1h-5.8c-1.6 0-2.1-.9-2.4-1.9l-11-29c-5.3 2.7-9.9 5.3-15.4 8.2v19.8c0 1.5-.1 3-2.4 3h-5.4c-1.4 0-2.4-1.2-2.4-2.4l-.2-56.1c0-1.2 1.1-2.4 2.5-2.4h27.2zM895 110v16.6c6-3 19.6-9.7 21.2-12.2v.1c.3-.5.5-1 .5-1.6 0-1.6-1.2-2.9-3-2.9H895zm116.1 47.2c-3.4 3-8.3 4.3-13.8 4.3h-5.8c-6.6 0-12.6-3.4-15.9-8.6-1.1-1.7-1.8-3.4-2.1-5-.6-3.1-.5-4.4-.5-6.2v.2c0-1.5.1-3 2.4-3h5.2c1.2 0 2 .6 2.3 1.8.3 1 .2 1.2.2 2.4 0 .4.1 1.1.2 2.1.8 3.7 4.3 6.5 8.2 6.5h5.8c4.6 0 8.5-2.5 9.2-6.6.1-.5.2-1 .2-1.5.1-1 .2-3.3-1.1-4.4-2.1-1.8-6.8-2.6-12.3-3.9-9.8-2.2-20.3-5.2-20.3-15.4v-1.1c0-1.6-.1-3.2.5-5.3l-.1.1c1.6-8.5 9.5-14.6 18.1-14.6h5.8c4.6 0 8.9 1.7 12.4 4.4 3.4 2.7 5.6 8 5.3 13.9-.1 1.5-.1 3-2.4 3h-5c-1.4 0-2.4-1.2-2.4-2.4-.2-6.5-2.9-8.9-7.8-8.9h-5.8c-3.9 0-7.5 2.8-8.3 6.7v-.1c-.2 1.3-.7 3.6 1.2 5.5 1 1 2.1 1.7 3.3 2l8.8 2.4c4.6 1.3 7.9 2.1 9.8 2.8 2.1.7 3.8 1.6 5.3 2.6 3.1 2.1 5.3 5.8 5.3 11-.1 5.8-2.5 12.2-5.9 15.3zm52.9 3.6c-1.4 0-2.4-1-2.4-2.4l-.2-56.1c0-1.4 1.1-2.4 2.6-2.4h36.8c2.5 0 2.5 1.4 2.5 3v4.2c0 2.7-.4 3-3.1 3h-28.6v13.5h25.4c1.4 0 2.4 1.1 2.4 2.5v5.2c0 1.4-1 2.5-2.4 2.5h-25.4v17h29.6c2.7 0 3 .2 3 3v4.1c0 1.5 0 3-2.5 3H1064zM6.2 111.3c3.4 4.3 7.8 7.6 12.4 10.3 8.9 4.9 18.9 7.3 28.9 7.6.2.5.4 1.1.7 1.6 1.5 2.9 4.1 5 7.2 6 1.2.4 2.4.6 3.7.6 1.9 0 3.9-.5 5.6-1.4 2.9-1.5 5-4.1 6-7.2 1-3.1.7-6.4-.8-9.3-1.5-2.9-4.1-5-7.2-6-3.1-1-6.4-.7-9.3.8-2.9 1.5-5 4.1-6 7.2-.1.4-.2.9-.3 1.4-8.8-.3-17.7-2.5-25.3-6.7-4-2.3-7.8-5.2-10.6-8.7-2.8-3.5-4.6-7.6-4.8-11.8-.1-1.9.2-3.8.6-5.6.5-1.9 1.3-3.7 2.2-5.4 1.8-3.2 4.5-5.9 7.8-8 3.3-2.1 7.1-3.6 11-4.8 7.8-2.3 16.2-3.1 24.6-3.1 13.4 0 26.8 2 39.9 5-.9 1.9-1.8 3.9-2.6 5.9-6.5 15.7-9.8 32.6-9.9 49.6 0 1.6.1 3.2.1 4.7 0 .8 0 1.6.1 2.4.1.8.1 1.6.2 2.4.1 1.6.2 3.2.4 4.7.2 1.6.4 3.1.6 4.7.9 6.3 2.1 12.5 4 18.6 0 .1.1.2.1.3-.2.1-.4.1-.6.2-.7.3-1.4.5-2 .8-.4.2-.8.3-1.2.5l-2.1.9c-.4.2-.8.4-1.1.5-.7.3-1.4.7-2.1 1l-1.2.6c-.5.3-1.1.5-1.6.8-.1.1-.2.1-.4.2-.1.1-.2.1-.4.2-.4.2-.8.5-1.2.7-.5.3-1.1.6-1.6.9-.5.3-.9.6-1.4.9-.6.4-1.1.7-1.7 1.1-.5.3-.9.7-1.4 1-.5.4-1 .7-1.5 1.1-.5.4-1 .8-1.4 1.2-.4.3-.7.6-1.1.9-.2.2-.4.3-.5.5l-.2.2c-.1.1-.3.2-.4.4-.2.1-.3.3-.5.4l-.9.9-.4.4-.9.9c-.2.2-.3.4-.5.6-.2.2-.4.5-.6.7-.3.3-.5.6-.7.9-.1.2-.2.3-.4.5-.3.4-.6.7-.9 1.1-.1.1-.2.2-.3.4-.3.4-.5.7-.8 1.1-.1.2-.2.4-.4.6-.2.3-.3.5-.5.8-.2.4-.5.8-.7 1.2 0 0-.1.2-.4.7 0 .1-.1.2-.1.3-2.3 4.5-4 9.5-4.2 14.9-.1 3.6.8 7.5 2.8 10.8 1.9 3.3 4.8 5.8 8 7.6 3.1 1.8 6.5 2.9 9.8 3.6 3.4.7 6.7.9 10.1 1 4.9 0 9.7-.5 14.3-1.4 4.7-.9 9.3-2 13.8-3.4 4.4-1.4 8.6-3 12.8-4.7 2.7 2.6 5.4 5.1 8.3 7.5 4.9 4 10 7.8 15.3 11.1 5.4 3.3 10.9 6.4 17 8.8 0 0 .3.1 1 .4 1.6.6 3.5-.2 4.1-1.8.6-1.6-.2-3.5-1.8-4.1h-.1c-.6-.2-.9-.4-.9-.4-5.5-2.1-10.8-5-15.9-8.2-5.1-3.2-10-6.8-14.6-10.6-2.1-1.7-4.1-3.5-6.1-5.4 2.3-1.1 4.6-2.2 6.9-3.4 6-3.2 12.2-6.1 18.4-8.7 3.1 2.4 6.4 4.7 9.8 6.6 6 3.5 12.3 6.2 18.8 8.3 1.6.5 3.3 1 4.9 1.4 1.7.4 3.3.8 5 1.2 1.7.3 3.4.6 5 .9.4.1.9.1 1.3.2-.3.3-.6.5-.9.8-1.3 1.1-2.5 2.3-3.7 3.5-2.4 2.4-4.6 4.9-6.7 7.5-4.2 5.2-7.9 10.7-11.2 16.5-.4.7-.6 1.6-.6 2.4 0 1.2.6 2.4 1.4 3.2.8.8 2.1 1.4 3.3 1.4h48.4c.3 0 .7-.1 1.3-.3.5-.2 1.2-.6 1.8-1.2.6-.6 1.1-1.6 1.2-2.8v-.8c.1-1.2.1-2.4.1-3.6-.2-5-1-9.9-2.5-14.6-.7-2.4-1.6-4.7-2.6-6.9-.3-.6-.5-1.1-.8-1.7-.3-.6-.6-1.1-.9-1.7-.2-.3-.4-.6-.6-1 .5-.1 1.1-.1 1.6-.2l4.2-.6c2.8-.4 5.6-1 8.4-1.7 5.5-1.3 11-3.1 16.2-5.3 6.4-2.8 12.6-5.9 18.5-9.6 1.1 1.6 1.8 3.3 1.9 5.1.1 3.2-1.3 6.8-3.5 10.1s-4.9 6.4-7.8 9.2c-3 2.9-6.2 5.6-9.5 8.1s-6.7 4.9-10.1 7.1l-.1.1h-.1c-.1.1-.2.2-.4.3l-.1.1-.3.3-.1.1c-.1.1-.1.2-.2.3-.1.2-.2.3-.2.5-.1.1-.1.3-.1.5v.1c0 .1 0 .3-.1.5v.1c0 .3 0 .7.1 1 .5 1.7 2.2 2.6 3.9 2.1h.1c.1 0 .2-.1.3-.1.5-.1.7-.2.7-.2 1.6-.5 3.3-1 4.9-1.5.1 0 .2-.1.2-.1 1.6-.5 3.1-1.1 4.6-1.7.1 0 .2-.1.3-.1l4.5-1.8c.1 0 .2-.1.3-.1 1.5-.6 3-1.3 4.5-2 .1 0 .2-.1.2-.1 1.5-.7 3-1.5 4.4-2.2.1 0 .1-.1.2-.1 1.5-.8 3-1.6 4.4-2.4l.1-.1c1.5-.8 2.9-1.7 4.3-2.6.1 0 .1-.1.2-.1 1.2-.8 2.4-1.5 3.5-2.3.2-.1.4-.3.6-.4.1-.1.2-.1.2-.2 1.3-.9 2.6-1.9 3.9-2.8.1-.1.2-.2.4-.3 1.3-1 2.5-1.9 3.7-2.9.1-.1.3-.2.4-.4 1.2-1 2.4-2 3.5-3 .2-.1.3-.3.5-.4 1.1-1 2.2-2 3.3-3.1.2-.2.3-.4.5-.5 1.1-1 2.1-2.1 3.2-3.2l.6-.6c1-1.1 2-2.1 3-3.2.2-.2.4-.5.6-.7.9-1.1 1.9-2.2 2.8-3.3.2-.3.4-.5.6-.8.8-1 1.6-1.9 2.3-2.9l.3-.3s0-.1.1-.1c.2-.3.4-.5.6-.8l2.4-3.3c.2-.3.4-.7.7-1 .7-1.1 1.5-2.2 2.2-3.3.2-.4.4-.7.7-1.1.7-1.1 1.4-2.2 2-3.4.2-.4.4-.8.7-1.2.2-.4.5-.9.7-1.3.5 0 1 .1 1.5.2.7.1 1.4.1 2.1.2.5 0 1 .1 1.5.1.7 0 1.4.1 2.1.1.5 0 1 .1 1.5.1.7 0 1.3.1 2 .1.5 0 1.1 0 1.6.1h3.8c3.9 0 7.7 0 11.6-.2h.5l5.4-.3c.3 0 .7-.1 1-.1 1.6-.1 3.2-.3 4.8-.4.6-.1 1.1-.1 1.7-.2 1.4-.2 2.7-.3 4.1-.5.8-.1 1.6-.3 2.5-.4 1.1-.2 2.2-.3 3.3-.5 1.1-.2 2.1-.4 3.2-.6.8-.2 1.7-.3 2.5-.5l3.9-.9c.5-.1 1.1-.2 1.6-.4h.1c.1 0 .3-.1.4-.1.6-.2 1.1-.3 1.7-.5l1.2-.3c.7-.2 1.5-.4 2.2-.7.2-.1.4-.1.5-.2.5-.2.9-.3 1.4-.5.3-.1.6-.2 1-.3.3-.1.5-.2.7-.3.6-.2 1.3-.5 1.9-.7.1 0 .2-.1.3-.1.1 0 .2-.1.3-.1.6-.2 1.3-.5 1.9-.7.2-.1.5-.2.7-.3.4-.2.8-.3 1.1-.5.4-.2.8-.3 1.1-.5.2-.1.5-.2.7-.3.7-.3 1.3-.7 2-1 .9-.4 1.8-.9 2.6-1.4.2-.1.5-.3.7-.4.2-.1.4-.3.6-.4.7-.4 1.5-.9 2.2-1.4.4-.3.8-.5 1.2-.8.2-.2.4-.3.7-.5 1.8-1.3 3.6-2.8 5.2-4.5 3-3 5.5-6.8 6.7-11.2.1-.2.1-.4.1-.6.5-2.2.8-4.5.8-6.8-.1-5.3-2.2-10.5-5.4-14.5s-7.3-7-11.7-9.3c-4.3-2.3-8.9-3.8-13.6-4.9-4.7-1.1-9.5-1.6-14.3-1.5-2.5 0-4.9.2-7.4.6-1.6-3.5-4.9-6.2-9-6.9-6.6-1.1-13 3.3-14.1 10-1.1 6.6 3.3 13 10 14.1.7.1 1.4.2 2.1.2 5.8 0 11-4.2 12-10.2.1-.3.1-.7.1-1 2.1-.3 4.2-.5 6.4-.5 8.6-.1 17.4 1.8 24.9 5.7 3.8 1.9 7.1 4.5 9.7 7.6 2.5 3.1 3.9 6.8 4 10.7 0 1.9-.3 3.8-.7 5.6-.2.6-.3.8-.3.8-1 3-3 5.8-5.5 8.2-.6.6-1.2 1.2-1.9 1.7-.1.1-.2.1-.2.2-.5.4-1 .8-1.6 1.2-1.3.9-2.7 1.8-4.1 2.7-.2.1-.3.2-.5.3-.2.1-.3.2-.5.3-.7.4-1.5.8-2.3 1.2-.8.4-1.6.8-2.5 1.2-.4.2-.9.4-1.3.6-.2.1-.5.2-.7.3-.2.1-.5.2-.7.3-.7.3-1.4.6-2.1.8-.2.1-.5.2-.7.3-.7.3-1.4.5-2.1.8-.5.2-1 .3-1.5.5-.2.1-.5.1-.7.2-1.3.4-2.5.8-3.8 1.1-.7.2-1.3.4-2 .5-.5.1-1 .2-1.5.4l-3.9.9c-.8.2-1.6.3-2.4.5-1 .2-2.1.4-3.1.6-1.1.2-2.1.3-3.2.5-.8.1-1.6.3-2.4.4-1.3.2-2.7.3-4 .5-.5.1-1.1.1-1.6.2-1.6.2-3.1.3-4.7.4-.3 0-.7.1-1 .1-1.8.1-3.5.2-5.3.3h-.4c-1.8.1-3.7.1-5.5.2h-5.9c-4.3-.1-8.6-.3-12.9-.6.1-.2.2-.5.3-.7l.6-1.2c.5-1.2 1.1-2.3 1.6-3.5.2-.4.3-.9.5-1.3.5-1.2 1-2.4 1.4-3.6.2-.4.3-.9.5-1.3.4-1.1.8-2.3 1.2-3.4 0-.1 0-.1.1-.2v-.1c.1-.4.2-.8.4-1.2.4-1.2.8-2.5 1.2-3.7.1-.4.2-.9.3-1.3.3-1.3.7-2.5 1-3.8l.3-1.2.9-3.9c.1-.4.1-.8.2-1.1.3-1.3.5-2.7.7-4 .1-.3.1-.7.1-1l.6-4.2c0-.3.1-.5.1-.8.2-1.5.3-2.9.4-4.4v-.5c.3-3.3.4-6.6.4-9.9 0-7.3-.6-14.7-1.9-21.9 0-.2-.1-.4-.1-.6v-.2s0-.1-.1-.3c-.4-1.6-2-2.7-3.6-2.4-1.7.3-2.8 1.8-2.6 3.5v.2c0 .2.1.5.1.7 1.2 6.9 1.8 13.9 1.8 20.9 0 3.2-.1 6.4-.4 9.7v.3c-.1 1.4-.3 2.9-.4 4.3 0 .2 0 .4-.1.7-.2 1.4-.4 2.7-.6 4.1 0 .3-.1.6-.1.8-.2 1.3-.5 2.6-.7 3.9-.1.3-.1.6-.2.9-.3 1.3-.6 2.5-.8 3.8-.1.4-.2.7-.2 1.1-.3 1.2-.6 2.4-1 3.7-.1.4-.2.8-.3 1.1-.3 1.2-.7 2.4-1.1 3.6-.1.4-.2.8-.4 1.1-.4 1.2-.8 2.3-1.2 3.5-.1.4-.3.8-.4 1.2-.4 1.1-.9 2.3-1.4 3.4-.2.4-.3.8-.5 1.2-.5 1.1-1 2.3-1.5 3.4-.2.4-.3.8-.5 1.1-.4.9-.9 1.8-1.4 2.8-1.2-.1-2.4-.3-3.5-.4-.4-.1-.8-.1-1.2-.2-.2 0-.4-.1-.7-.1-.9-.1-1.9-.3-2.8-.4l-6.9-1.2c-.9-.2-1.8-.4-2.6-.6-.3-.1-.5-.1-.8-.2l-1.5-.3c.6-1.3 1.2-2.6 1.7-4v-.1c1.1-3.1 1.3-6.4 1.2-9.5 0-.6-.1-1.2-.1-1.8.2-.2.5-.3.7-.5-.2.7 1.8-6 .9-3.2v-.1c0-.1 0-.1-.1-.2 0-.1-.1-.2-.1-.4-.1-.2-.1-.5-.2-.7-.1-.5-.3-1-.5-1.4-.4-1-.8-1.9-1.3-2.8-.5-.9-1.1-1.8-1.7-2.7-.2-.2-.3-.4-.5-.6-.1-.1-.1-.2-.2-.2v-1.4c0-1.2-.3-2.4-.8-3.5s-1.4-2.2-2.5-2.9c-1.2-.8-2.5-1.3-3.9-1.4-1-.1-2.1 0-3.1.4 0-.1-.1-.1-.1-.2-.2-.2-.3-.5-.5-.7-.9-1.6-1.8-3.8-2.4-6-.7-2.2-1.3-4.4-1.9-6.7-.1-.4-.2-.8-.3-1.3 8-2.1 15.7-5.7 22.2-11.1 3.5-2.9 6.6-6.3 9.1-10.1s4.4-8 5.8-12.3c1.2-4 1.9-8.2 2-12.3.1-6.7-1.2-13.3-3.4-19.5-2.2-6.2-5.4-11.9-9.2-17.2-7.5-10.6-17.3-19.3-28-26.2-10.7-7-22.6-12.1-34.8-15.7-6.2-1.7-12.4-3-18.7-3.9-6.3-.9-12.7-1.2-19.1-1.3-17 0-33.9 3.3-49.6 9.9-15.7 6.5-30 16.1-42 28.1-8.9 8.9-16.6 19.2-22.5 30.3-14-3.3-28.3-5.5-42.9-5.5-8.8.1-17.7.8-26.4 3.4-4.3 1.3-8.6 3-12.6 5.5s-7.6 6-10 10.3C1.3 85 .3 87.2-.3 89.6c-.6 2.4-.9 5-.8 7.5.1 2.9.8 5.7 1.9 8.3 2.2 1.4 3.7 3.8 5.4 5.9zm47.2 12c.5-1.5 1.5-2.7 2.9-3.4.9-.4 1.8-.7 2.7-.7.6 0 1.2.1 1.8.3 1.5.5 2.7 1.5 3.4 2.9.7 1.4.9 3 .4 4.5s-1.5 2.7-2.9 3.4c-1.4.7-3 .9-4.5.4s-2.7-1.5-3.4-2.9c-.3-.5-.5-1.1-.6-1.7 0-.3 0-.5-.1-.7 0-.8.1-1.4.3-2.1zm315.1 5.3c-.3 1.5-1.1 2.9-2.4 3.8-1.3.9-2.8 1.3-4.4 1-1.5-.3-2.9-1.1-3.8-2.4-.9-1.3-1.3-2.8-1-4.4.3-1.5 1.1-2.9 2.4-3.8 1-.7 2.2-1.1 3.4-1.1.3 0 .7 0 1 .1 1.5.3 2.9 1.1 3.8 2.4.9 1.3 1.2 2.9 1 4.4zM104.2 220c-4.3 1.4-8.7 2.4-13 3.3-4.4.8-8.8 1.3-13.2 1.3-3-.1-6-.3-8.8-.9-2.8-.6-5.6-1.5-7.9-2.9-2.4-1.3-4.4-3.1-5.7-5.3-1.3-2.2-1.9-4.7-1.9-7.4.1-4 1.5-8.2 3.5-12.1l.1-.3c.3-.5.6-1 .9-1.6.1-.2.3-.5.4-.7.1-.1.2-.3.3-.4.2-.3.5-.7.7-1 .1-.1.1-.2.2-.2.2-.3.5-.7.8-1 .1-.1.2-.2.3-.4.2-.3.4-.5.6-.8.2-.2.4-.4.5-.6.1-.2.3-.3.4-.5l.8-.8.3-.3c.3-.3.6-.5.8-.8l.4-.4.5-.5c.5-.4.9-.8 1.4-1.2.4-.4.9-.7 1.3-1.1.4-.3.9-.7 1.4-1 .4-.3.8-.6 1.3-.9.5-.3 1-.7 1.5-1 .4-.3.8-.5 1.3-.8l1.5-.9c.5-.3.9-.5 1.4-.8.6-.3 1.2-.6 1.8-1 .4-.2.7-.4 1.1-.5.7-.3 1.4-.6 2-1 .3-.2.7-.3 1-.5l2.1-.9c.4-.1.7-.3 1.1-.4.7-.3 1.3-.5 2-.8.1 0 .2-.1.3-.1 1.4 3.9 2.9 7.7 4.7 11.4 2.8 5.7 5.9 11.2 9.5 16.5 3.7 5.5 7.9 10.7 12.4 15.6-3.4 1.4-6.7 2.6-10.1 3.7zm25-10.6c-2.9 1.5-5.9 2.9-8.8 4.3-4.9-5.1-9.4-10.6-13.4-16.5-3.4-5-6.4-10.2-9-15.6-1.7-3.5-3.1-7.1-4.4-10.7.5-.2 1-.3 1.5-.5l1.2-.3 2.1-.6c.3-.1.6-.2.9-.2l2.4-.6c.3-.1.7-.2 1-.3.8-.2 1.5-.4 2.3-.5.3-.1.6-.1.8-.2.8-.2 1.7-.4 2.5-.6.2 0 .4-.1.7-.1.9-.2 1.8-.4 2.7-.5.2 0 .3-.1.5-.1 1-.2 1.9-.4 2.9-.5.1 0 .2 0 .4-.1 1-.2 2-.3 3-.5h.3c1-.2 2.1-.3 3.1-.5h.5c2.2 6.8 5.1 13.4 8.7 19.6 3.8 6.5 8.6 12.4 14.1 17.5-5.4 2.2-10.7 4.8-16 7.5zm142-8.4c-.5.1-.9.4-1.3.7l-.3.3c-6.1 3.8-12.5 7.2-19.1 10-9.8 4.2-20.3 6.7-31 7.5h-.1c-1.2.1-2.4.7-3.2 1.6-.8.9-1.2 2.1-1.2 3.4.1.9.4 1.7.8 2.4 2.4 3.4 4.1 7.6 5.4 11.8 1.3 4.2 2 8.6 2.2 12.9v2.2h-43.6c.3-.5.7-1.1 1-1.6.8-1.3 1.7-2.7 2.6-4 1.8-2.6 3.6-5.1 5.6-7.6 3.9-4.9 8.3-9.4 13.2-13.1.5-.4 1-.9 1.4-1.6.3-.7.5-1.4.5-2.1 0-1.2-.4-2.3-1.2-3.2-.1-.2-.3-.3-.5-.5h.1s-.1 0-.1-.1h-.1c-.1 0-.1-.1-.2-.1-.1-.1-.2-.1-.2-.2-.1-.1-.2-.1-.3-.2 0 0-.1 0-.1-.1-.1-.1-.2-.1-.4-.2h-.1c-.1 0-.2-.1-.3-.1-.2-.1-.4-.1-.7-.1-.4-.1-.8-.1-1.1-.2-1.2-.2-2.4-.3-3.7-.5-1.6-.3-3.2-.6-4.7-.9-1.6-.4-3.1-.7-4.7-1.1-1.5-.4-3.1-.9-4.6-1.3-6.1-2-12-4.5-17.6-7.7-11.1-6.4-20.5-15.5-27-26.5-3.1-5.5-5.7-11.2-7.7-17.2h.3c1-.1 2-.2 2.9-.3.2 0 .4 0 .6-.1.9-.1 1.9-.2 2.8-.2.3 0 .6 0 .9-.1.8-.1 1.7-.1 2.5-.2.4 0 .9-.1 1.3-.1.7 0 1.4-.1 2.1-.1.6 0 1.3-.1 1.9-.1.5 0 1-.1 1.5-.1.9 0 1.8-.1 2.6-.1h.8c2.3-.1 4.6-.1 6.9-.1h8.1c1.9 0 3.9.1 5.8.2.7 0 1.5 0 2.2.1 1.5.1 2.9.1 4.4.2 1.2.1 2.4.1 3.6.2.6 0 1.2.1 1.8.1 4.7.3 9.5.7 14.2 1.2h.4c2.5.3 5 .6 7.6.9.7.1 1.5.2 2.2.3 1.9.3 3.9.5 5.8.8 1 .2 2.1.3 3.1.5 1.6.2 3.2.5 4.9.8 1.3.2 2.6.5 3.9.7 1.4.2 2.7.5 4.1.7 1.6.3 3.1.6 4.7.9 1.1.2 2.1.4 3.2.6 1.7.4 3.5.8 5.2 1.1.9.2 1.8.4 2.6.6 1.7.4 3.3.8 5 1.2.9.2 1.9.4 2.8.7 1.9.5 3.9 1 5.8 1.5.7.2 1.3.3 2 .5 2.5.7 4.9 1.4 7.4 2.1.1 0 .2.1.3.1 2.3.7 4.7 1.4 7 2.1.2.1.5.1.7.2 2.6.8 5.1 1.6 7.6 2.5.9.3 1.7.6 2.6.8 1.4.5 2.9.9 4.3 1.3.1 0 .2 0 .2.1-.5.7-1.1 1.3-1.7 2-3.3 3.6-7.1 6.9-11.1 9.9-1.7 1.5-3.6 2.8-5.5 4zm28.7-13.1c1 .2 1.9.4 2.9.6.2 0 .4.1.7.1 1.1.2 2.3.4 3.4.6h.2l3.6.6c.9.1 1.7.3 2.6.4.3 0 .6.1 1 .1.6.1 1.2.2 1.9.2.2 0 .3 0 .5.1-.6 1.1-1.3 2.2-2 3.3-.2.3-.4.7-.6 1-.7 1.1-1.4 2.2-2.1 3.2l-.6.9c-.8 1.1-1.5 2.2-2.3 3.2-.2.3-.4.5-.6.8-.8 1.1-1.6 2.1-2.5 3.2-.2.2-.4.5-.6.7-.9 1.1-1.8 2.1-2.7 3.2-.2.2-.3.4-.5.6-.9 1.1-1.9 2.1-2.9 3.1l-.5.5c-1 1-2 2.1-3.1 3.1l-.4.4c-1.1 1-2.1 2-3.2 3-.1.1-.3.2-.4.4-1.1 1-2.3 2-3.4 2.9l-.3.3c-1.2 1-2.4 1.9-3.6 2.8-.1.1-.2.1-.3.2-1.3.9-2.5 1.9-3.8 2.8-.1 0-.1.1-.2.1-1.3.9-2.7 1.8-4 2.7 0 0-.1 0-.1.1-1.4.9-2.8 1.7-4.2 2.5-1.4.8-2.8 1.6-4.3 2.4h-.1l-3 1.5c.8-.8 1.7-1.5 2.5-2.3 3.2-3.1 6.2-6.5 8.7-10.3 1.2-2 2.4-4 3.2-6.4.8-2.3 1.4-4.9 1.2-7.5-.2-1.9-.6-3.9-1.4-5.6-.2-.4-.4-.9-.6-1.3-.2-.4-.5-.8-.8-1.2l-.1-.1c1.2-.9 2.5-1.7 3.7-2.6 4.3-3.2 8.4-6.7 12-10.8 1.3-1.4 2.5-2.9 3.6-4.5h.1c.7.2 1.5.3 2.2.5.3.3.7.4 1.2.5zm-13.5-37.5c1.6-.1 3.1-.3 4.7-.4-.2.1.1-.1.6-.1.3 0 .6.1.9.3.1.1.3.2.4.5.1.2.2.5.2.8 0 .3-.1.5-.1.5.2 1.4.3 2.7.5 4.1 1.1 1 1.9 2.1 2.6 3.4.3.7.7 1.3.9 2.1.1.1.1.3.1.4-1.1 2.5-1.5 3.4-1.6 3.5 0-.1.2-.5.3-.6 0 0-.1.1-.1.3v.1c0 .2.1.4.1.6 0 .2.1.5.1.7.1.5.1 1 .1 1.5.1 2.5-.1 4.9-.9 7.1v.1c-.5 1.5-1.2 3-2 4.4-.3-.1-.6-.1-.9-.2-.5-.1-1-.3-1.4-.4l-.9-.3c-.8-.2-1.6-.5-2.5-.7-1.1-.3-2.2-.7-3.3-1.1-.7-.2-1.5-.5-2.2-.7-4.4-1.5-8.9-2.8-13.3-4.1-4.1-1.2-8.1-2.3-12.2-3.3-1.2-.3-2.3-.6-3.5-.9-2.3-.6-4.6-1.1-6.9-1.6-.3-.1-.7-.2-1-.2-1.6-.4-3.2-.7-4.8-1-1.1-.2-2.1-.5-3.2-.7-.9-.2-1.8-.3-2.7-.5-1.8-.4-3.5-.7-5.3-1-1.1-.2-2.3-.4-3.4-.6-1.5-.3-3.1-.6-4.6-.8-1.6-.3-3.3-.5-4.9-.8-1-.2-2.1-.3-3.1-.5-1.1-.2-2.2-.3-3.3-.5l-4.8-.6h-.4c-2.6-.3-5.1-.6-7.7-.9-.4 0-.8-.1-1.3-.1-2.3-.2-4.6-.5-6.9-.6-.7-.1-1.4-.1-2.2-.2-4.7-.4-9.4-.7-14.1-.9h-1c-5.1-.2-10.2-.3-15.3-.2-1.2 0-2.3 0-3.5.1h-.1c-1.1 0-2.3.1-3.4.1h-.7c-1 0-1.9.1-2.9.1-.5 0-1 0-1.5.1-.7 0-1.4.1-2.1.1-.7 0-1.4.1-2.1.1-.5 0-.9.1-1.4.1-.8.1-1.6.1-2.5.2-.3 0-.7 0-1 .1-.9.1-1.9.2-2.8.2-.2 0-.4 0-.7.1l-3 .3h-.5c-.3 0-.6.1-.9.1-1.4-6.2-2.2-12.5-2.4-18.8 0-12 2.4-24 7.1-35 4.9-11 12-20.9 20.9-29 .5-.5.9-1.1 1-1.9v-.1c.6-5.3 3.1-10.5 6.6-14.8 3.5-4.3 8.1-7.9 13.2-10.3.1 0 .2-.1.4-.1s.4.1.5.2c2.1 2.2 4.1 5 5.6 7.7.7 1.3 2.3 1.9 3.7 1.5 1.7-.5 3.4-1 5.1-1.4 6.5-1.6 13.2-2.5 20-2.5 7 0 13.9.8 20.7 2.5 6.8 1.7 13.3 4.2 19.5 7.4 5.6 3 10.9 6.5 15.3 10.9 2.2 2.2 4.1 4.6 5.5 7.1.8 1.3 1.4 2.6 1.9 4 .3.7.5 1.4.7 2.1.1.3.2.7.3 1.1.1.3.1.6.2.8v3.3c0 1.2 0 2.4.1 3.7 0 2.4.2 4.9.3 7.3.4 4.8.9 9.7 1.7 14.5.7 4.8 1.7 9.6 2.9 14.3.6 2.4 1.3 4.7 2.1 7.1.4 1.2.8 2.4 1.3 3.5.2.6.5 1.2.8 1.8.3.6.6 1.3 1 1.9 1 1 2.1 2.5 3.4 3.6zM122.5 41.9c11.4-11.4 25.1-20.6 40-26.7 14.9-6.2 31-9.4 47.2-9.4 6.1.1 12.2.4 18.2 1.2 6 .9 12 2.1 17.9 3.7 11.7 3.4 23 8.3 33.1 14.9 10.2 6.6 19.3 14.8 26.3 24.6 3.5 4.9 6.4 10.2 8.4 15.7s3.1 11.4 3 17.2c-.1 3.6-.7 7.2-1.7 10.6-2.3 7.6-6.8 14.4-12.9 19.5-5.6 4.7-12.3 7.9-19.5 9.8-.4-2.1-.8-4.2-1.1-6.3-.7-4.6-1.2-9.3-1.6-14-.3-4.7-.4-9.3-.4-14v-.1c0-.2 0-.4-.1-.6-.7-3.6-2-7.1-3.8-10.2-1.8-3.1-4.1-5.9-6.5-8.4-5-5-10.8-8.8-16.8-12-6.6-3.5-13.7-6.2-20.9-8-7.3-1.8-14.8-2.6-22.3-2.6-7.2.1-14.4 1-21.5 2.7-.9.2-1.8.5-2.8.7-.1 0-.2.1-.4.1 0-.1-.1-.1-.1-.2-.5-.8-1-1.5-1.6-2.3-1.1-1.5-2.3-3-3.6-4.4-1.3-1.3-3.1-2.1-4.9-2.1-1.1 0-2.2.2-3.2.6-6 2.8-11.3 6.9-15.4 12-2.1 2.6-3.9 5.4-5.3 8.4-.7 1.5-1.3 3.1-1.8 4.7-.3.8-.4 1.7-.6 2.5-.1.4-.1.8-.2 1.3v.1c-.3.3-.6.6-.9.8-.6.6-1.2 1.1-1.7 1.7-1.1 1.1-2.3 2.2-3.3 3.5-1 1.2-2.1 2.5-3.1 3.7-.3.3-.5.6-.8.9v.1c-11.7-4.8-23.6-9-35.8-12.3 5.5-10 12.4-19.2 20.5-27.4zm-26.7 40c.9-2.3 2-4.5 3.1-6.8 11.9 3.1 23.6 7.1 35.1 11.8-.4.5-.7 1-1 1.5-.8 1.4-1.6 2.8-2.5 4.2l-1.2 2.1c-.4.7-.7 1.5-1.1 2.2-.7 1.5-1.4 2.9-2.1 4.4-5.1 11.8-7.7 24.7-7.7 37.6.2 6.6 1 13.1 2.4 19.5-1 .1-1.9.3-2.9.4-.1 0-.2 0-.3.1-1 .2-2 .3-3.1.5-.1 0-.3 0-.4.1-1 .2-2 .3-2.9.5-.2 0-.4.1-.6.1-.9.2-1.8.4-2.8.6-.2 0-.5.1-.7.1-.9.2-1.7.4-2.6.6-.3.1-.6.1-.9.2-.8.2-1.5.4-2.3.6-.3.1-.7.2-1 .2h-.1c-.1 0-.2.1-.4.1l-2.1.6-.9.3c-.7.2-1.5.4-2.2.6-.4.1-.9.2-1.3.4-.6.2-1.1.3-1.7.5v-.1c-1.8-5.7-2.9-11.7-3.8-17.6l-.6-4.5c-.1-1.5-.2-3-.4-4.5-.1-.8-.1-1.5-.2-2.3 0-.8 0-1.5-.1-2.3 0-1.5-.1-3-.1-4.5.1-16.1 3.2-32.3 9.4-47.2z"/></svg>