<svg width="305" height="30" viewBox="0 0 305 30" xmlns="http://www.w3.org/2000/svg"><title>logo-universe-text</title><g fill="none"><path d="M21.119 20.235c0 5.097-4.286 9.23-9.39 9.23H8.928a8.792 8.792 0 0 1-8.845-8.758V1.53c0-.765.4-1.164 1.164-1.164h2.44c1.127 0 1.163.692 1.163 1.42V20.71a4.078 4.078 0 0 0 4.078 4.015h2.803a4.543 4.543 0 0 0 4.582-4.49V1.774c0-.729.073-1.421 1.2-1.421h2.403c.801 0 1.2.399 1.2 1.163l.004 18.72z" fill="#F79533"/><path d="M65.403 28.312a1.203 1.203 0 0 1-1.2 1.164h-2.476a1.091 1.091 0 0 1-1.018-.547A5612.85 5612.85 0 0 0 48.082 10.19v18.132a1.203 1.203 0 0 1-1.2 1.164H44.37a1.111 1.111 0 0 1-1.09-1.164l-.073-26.786A1.174 1.174 0 0 1 44.37.373h2.694c.417-.023.806.207.989.583V.91L60.534 19.7V1.53a1.203 1.203 0 0 1 1.2-1.164h2.476a1.203 1.203 0 0 1 1.2 1.164l-.007 26.782z" fill="#F37055"/><path d="M92.44 28.312a1.203 1.203 0 0 1-1.2 1.164h-2.476a1.111 1.111 0 0 1-1.091-1.164L87.6 1.526A1.174 1.174 0 0 1 88.764.363h2.476a1.203 1.203 0 0 1 1.2 1.163v26.786z" fill="#EF4E7B"/><path d="M136.464 5.64l-3.894 10.81-3.748 10.372-.62 1.711c-.254.583-.435.946-1.164.946h-3.204c-.837 0-1.019-.435-1.164-.91l-2.512-7.253c-2.307-6.55-4.285-12.63-6.95-19.18a1.213 1.213 0 0 1-.131-.606c0-.765.399-1.164 1.2-1.164h2.838c.729 0 .91.475 1.164.946l7.17 21.218 7.078-21.211-.036.217c0-.109.073-.109.073-.145.217-.692.62-1.018 1.163-1.018h2.875c.624.042 1.121.54 1.164 1.163.007.112-.465 1.738-1.302 4.105z" fill="#A166AB"/><path d="M159.689 29.48a1.108 1.108 0 0 1-1.164-1.165l-.072-26.785a1.167 1.167 0 0 1 1.236-1.164h17.578c1.2 0 1.2.692 1.2 1.42v2.002c0 1.319-.181 1.417-1.457 1.417h-13.648v6.442h12.122a1.137 1.137 0 0 1 1.163 1.21v2.476a1.137 1.137 0 0 1-1.163 1.2h-12.12v8.103h14.12c1.273 0 1.458.11 1.458 1.418v1.978c0 .728 0 1.457-1.2 1.457l-18.053-.01z" fill="#5073B8"/><path d="M214.13.363c3.278 0 6.152 2.874 6.152 6.188 0 2.765-1.493 4.368-3.567 5.785.765 2.038 1.494 3.93 2.22 5.97a463.672 463.672 0 0 0 3.625 9.68c.4.989-.145 1.493-1.127 1.493h-2.766c-.765 0-.989-.435-1.164-.91l-5.228-13.866c-2.512 1.319-4.731 2.549-7.352 3.894v9.461c0 .729-.036 1.418-1.164 1.418h-2.584a1.14 1.14 0 0 1-1.128-1.164l-.072-26.786a1.203 1.203 0 0 1 1.2-1.163h12.956zm-9.207 4.84v7.934c2.875-1.417 9.353-4.615 10.118-5.822v.037c.152-.224.234-.488.234-.759a1.368 1.368 0 0 0-1.421-1.384l-8.93-.007z" fill="#1098AD"/><path d="M260.367 27.732c-1.648 1.457-3.956 2.073-6.593 2.073h-2.766a8.881 8.881 0 0 1-7.583-4.11 6.31 6.31 0 0 1-1.018-2.368 12.165 12.165 0 0 1-.254-2.947v.06c0-.729.036-1.421 1.163-1.421h2.476a1.032 1.032 0 0 1 1.092.873c.113.377.15.773.108 1.164 0 .181.037.508.073.99a4.025 4.025 0 0 0 3.93 3.091h2.765c2.183 0 4.078-1.2 4.405-3.128.042-.24.066-.484.072-.729.037-.475.073-1.566-.544-2.11-1.018-.873-3.24-1.236-5.858-1.856-4.658-1.055-9.679-2.476-9.679-7.351v-.501a9.013 9.013 0 0 1 .218-2.513l-.037.037C243.12 2.947 246.867 0 251.014 0h2.766a9.488 9.488 0 0 1 5.895 2.11c1.648 1.319 2.657 3.82 2.548 6.623-.036.729-.036 1.418-1.164 1.418h-2.403a1.197 1.197 0 0 1-1.164-1.164c-.108-3.092-1.384-4.26-3.712-4.26h-2.766a4.114 4.114 0 0 0-3.956 3.202v-.017c-.109.62-.33 1.711.584 2.621.43.446.97.773 1.566.946l4.183 1.164c2.183.62 3.749 1.019 4.658 1.348a11.05 11.05 0 0 1 2.549 1.236c1.493 1.02 2.548 2.766 2.548 5.242-.013 2.75-1.14 5.806-2.779 7.263z" fill="#07B39B"/><path d="M285.63 29.48a1.108 1.108 0 0 1-1.164-1.165l-.073-26.785A1.167 1.167 0 0 1 285.63.366h17.578c1.2 0 1.2.692 1.2 1.42v2.002c0 1.319-.182 1.417-1.457 1.417h-13.649v6.442h12.119a1.137 1.137 0 0 1 1.167 1.21v2.476a1.137 1.137 0 0 1-1.164 1.2h-12.119v8.103h14.12c1.273 0 1.457.11 1.457 1.418v1.978c0 .728 0 1.457-1.2 1.457l-18.052-.01z" fill="#6DBA82"/><path d="M21.119 20.232V1.52c0-.765-.4-1.164-1.2-1.164h-2.404c-1.127 0-1.2.692-1.2 1.42v18.462a4.546 4.546 0 0 1-4.589 4.47H8.924a4.104 4.104 0 0 1-3.88-2.85c.66 4.763 3.138 7.387 7.543 7.582 4.71-.429 8.532-4.402 8.532-9.208zm39.411-.547L49.705 3.399a.887.887 0 0 0-1.625.491v6.294c3.847 5.696 7.19 10.638 10.826 16.054a.887.887 0 0 0 1.626-.49v-6.063zm72.037-3.241l3.893-10.81c.838-2.367 1.32-4.005 1.32-4.114a1.253 1.253 0 0 0-1.165-1.164h-2.874c-.548 0-.946.33-1.164 1.019 0 .036-.073.036-.073.145l.023-.201-7.094 21.204c1.319 3.956 1.853 6.504 2.766 6.007l.62-1.711 3.748-10.375zm-44.927-.066l.033 11.934a1.111 1.111 0 0 0 1.09 1.164h2.477a1.203 1.203 0 0 0 1.2-1.164V11.83c0 2.535-2.4 4.549-4.8 4.549z" style="mix-blend-mode:multiply" fill="#CE89BB"/><path d="M178.942 28.022v-1.978c0-1.319-.182-1.42-1.457-1.42h-14.123v-8.1c-2.638 0-4.675 1.776-4.876 4.42l.033 7.368a1.108 1.108 0 0 0 1.163 1.164h18.056c1.204 0 1.204-.729 1.204-1.454z" fill="#21C0D5" style="mix-blend-mode:multiply"/><path d="M304.846 28.022v-1.978c0-1.319-.181-1.42-1.457-1.42h-14.123v-8.1c-2.637 0-4.675 1.776-4.876 4.42l.033 7.368a1.108 1.108 0 0 0 1.164 1.164h18.056c1.203 0 1.203-.729 1.203-1.454z" fill="#76CEDF" style="mix-blend-mode:multiply"/><path d="M199.975 23.562v4.75a1.14 1.14 0 0 0 1.124 1.164h2.585c1.127 0 1.163-.692 1.163-1.421v-9.462c-2.802 1.375-4.582 3.248-4.872 4.969zm60.613-8.354c-.793-.52-1.65-.935-2.548-1.237l-.142-.046a7.74 7.74 0 0 1-.99-.23c-3.484-1.098-5.06 3.6-8.159 2.831 1.01.304 2.058.558 3.09.792 2.62.62 4.842.989 5.861 1.856.62.547.584 1.648.547 2.11-.006.244-.03.487-.072.728-.33 1.929-2.222 3.132-4.405 3.132h-2.766a4.025 4.025 0 0 1-3.93-3.096c-.036-.474-.072-.8-.072-.989a2.967 2.967 0 0 0-.109-1.163 1.032 1.032 0 0 0-1.09-.874h-2.477c-1.127 0-1.163.692-1.163 1.42v-.072c-.036.99.05 1.98.253 2.948a6.31 6.31 0 0 0 1.02 2.367 8.901 8.901 0 0 0 7.582 4.114h2.766c2.62 0 4.945-.62 6.593-2.074 1.648-1.454 2.766-4.513 2.766-7.279-.007-2.472-1.055-4.22-2.555-5.238z" fill="#21C0D5" style="mix-blend-mode:multiply"/></g></svg>