<svg id="Layer_1" xmlns="http://www.w3.org/2000/svg" viewBox="0 0 1000 240"><style>.st0{fill:#171717}</style><path class="st0" d="M93.5 120c0-13.2 10.7-23.9 23.9-23.9s23.9 10.7 23.9 23.9-10.7 23.9-23.9 23.9-23.9-10.7-23.9-23.9zm23.9-100.4c-46.9 0-86.2 32.1-97.3 75.5-.1.3-.1.6-.1 1 0 2.6 2.1 4.8 4.8 4.8h40.5c1.9 0 3.6-1.2 4.3-2.8 8.3-18.1 26.6-30.7 47.8-30.7 29 0 52.6 23.6 52.6 52.6s-23.6 52.6-52.6 52.6c-21.2 0-39.5-12.6-47.8-30.7-.8-1.6-2.4-2.8-4.3-2.8H24.8c-2.6 0-4.8 2.1-4.8 4.8 0 .3.1.6.1 1 11.1 43.4 50.4 75.5 97.3 75.5 55.4 0 100.4-45 100.4-100.4 0-55.4-45-100.4-100.4-100.4zm262.5 123.9h-13.7c-1 0-1.8.5-2.3 1.2-7.9 11.7-21.3 19.4-36.6 19.4-24.4 0-44.1-19.8-44.1-44.1s19.8-44.1 44.1-44.1c15.2 0 28.6 7.7 36.6 19.4.5.7 1.4 1.2 2.3 1.2h13.7c1.6 0 3-1.3 3-2.9 0-.5-.1-.9-.3-1.3-10.2-20.2-31.1-34-55.2-34-34.1 0-61.8 27.7-61.8 61.8 0 34.1 27.7 61.8 61.8 61.8 24.1 0 45-13.8 55.2-34 .2-.4.3-.8.3-1.3 0-1.7-1.3-3.1-3-3.1zm41.2-105.9c0 6.5-5.3 11.8-11.8 11.8-6.5 0-11.8-5.3-11.8-11.8s5.3-11.8 11.8-11.8c6.6 0 11.8 5.3 11.8 11.8zm-2.9 138.3V61.2h-17.7v114.7c0 1.6 1.3 2.9 2.9 2.9h11.8c1.7 0 3-1.3 3-2.9zm76.5-117.6c-17.8.8-32 9.3-41.2 22.3V64.1c0-1.6-1.3-2.9-2.9-2.9h-11.8c-1.6 0-2.9 1.3-2.9 2.9v111.8c0 1.6 1.3 2.9 2.9 2.9h11.8c1.6 0 2.9-1.3 2.9-2.9V120c0-23.4 18.2-42.5 41.2-44 1.6 0 3-1.3 3-2.9V61.2c-.1-1.6-1.4-2.9-3-2.9zM612 143.5h-13.7c-1 0-1.8.5-2.3 1.2-7.9 11.7-21.3 19.4-36.6 19.4-24.4 0-44.1-19.8-44.1-44.1s19.8-44.1 44.1-44.1c15.2 0 28.6 7.7 36.6 19.4.5.7 1.4 1.2 2.3 1.2H612c1.6 0 2.9-1.3 2.9-2.9 0-.5-.1-.9-.3-1.3-10.2-20.2-31.1-34-55.2-34-34.1 0-61.8 27.7-61.8 61.8 0 34.1 27.7 61.8 61.8 61.8 24.1 0 45-13.8 55.2-34 .2-.4.3-.8.3-1.3 0-1.7-1.3-3.1-2.9-3.1zm35.3-120.6h-11.8c-1.6 0-2.9 1.3-2.9 2.9v150.1c0 1.6 1.3 2.9 2.9 2.9h11.8c1.6 0 2.9-1.3 2.9-2.9V25.8c0-1.6-1.3-2.9-2.9-2.9zm82.4 35.3c-34.1 0-61.8 27.7-61.8 61.8 0 34.1 27.7 61.8 61.8 61.8 24.1 0 45-13.8 55.2-34 .2-.4.3-.8.3-1.3 0-1.6-1.3-2.9-2.9-2.9h-13.7c-1 0-1.8.5-2.4 1.2-7.9 11.7-21.3 19.4-36.5 19.4-22.4 0-40.9-16.7-43.7-38.3h102.5c1.6 0 2.9-1.2 2.9-2.8.1-1 .1-2.1.1-3.1-.1-34.1-27.7-61.8-61.8-61.8zm-42.6 50c5.2-18.7 22.2-32.4 42.5-32.4s37.4 13.7 42.5 32.4h-85zM962.3 20c-9.7 0-17.7 7.9-17.7 17.7 0 9.8 7.9 17.7 17.7 17.7 9.8 0 17.7-7.9 17.7-17.7 0-9.8-7.9-17.7-17.7-17.7zm14.8 41.2v114.7c0 1.6-1.3 2.9-2.9 2.9h-23.5c-1.6 0-2.9-1.3-2.9-2.9V61.2h29.3zM870.9 181.8c28.8 0 53-19.8 59.9-46.5 0-.2.1-.4.1-.6 0-1.6-1.3-2.9-2.9-2.9h-25c-1.2 0-2.2.7-2.7 1.7-5.1 11.1-16.4 18.9-29.4 18.9-17.9 0-32.4-14.5-32.4-32.4s14.5-32.4 32.4-32.4c13.1 0 24.3 7.7 29.4 18.9.5 1 1.5 1.7 2.7 1.7h24.9c1.6 0 2.9-1.3 2.9-2.9 0-.2 0-.4-.1-.6-6.8-26.7-31-46.5-59.9-46.5-34.1 0-61.8 27.7-61.8 61.8.1 34.1 27.8 61.8 61.9 61.8z"/></svg>