<svg xmlns="http://www.w3.org/2000/svg" viewBox="0 0 422.8 99.5"><path fill="#EC3F2E" d="M41.6 48.3h-.9c-.1 2.3-.6 4.5-1.3 6.6.7.1 1.5.1 2.3.1 12.4 0 22.5-9.9 22.8-22.2-2.6.3-5 1.3-7.1 2.8-1.7 7.2-8.1 12.7-15.8 12.7z"/><path fill="#971D38" d="M43.6 46.9c2.3-.2 4.4-1.1 6.2-2.3 1.7-6.8 7.4-12.1 14.5-12.9-.1-2.6-.5-5-1.4-7.3C52 26 43.6 35.5 43.6 46.9z"/><path fill="#F69831" d="M66.5 65.7c-7.4 0-13.6-4.6-16-11.2-1.6.6-3.2 1.1-4.9 1.4 3.5 8.1 11.6 13.8 21 13.8v-4z"/><path fill="#106898" d="M16.7 69.7c12.6 0 22.8-10.2 22.8-22.8 0-8.6-4.8-16.1-11.8-20-.6 1.7-1 3.5-1 5.3 0 .9.1 1.8.2 2.7 4.2 3.1 6.8 8.1 6.8 13.7 0 9.4-7.7 17.1-17.1 17.1v4z"/><path fill="#1E994B" d="M32 52.9c.4-1.4.6-2.8.6-4.3 0-1.1-.1-2.2-.3-3.3-4.1-2.9-6.7-7.7-6.7-13.1 0-2.1.4-4.1 1.1-5.9-2-1-4.2-1.7-6.4-2-.9 2.5-1.4 5.1-1.4 7.9-.1 9.1 5.3 17.1 13.1 20.7z"/><path fill="#010101" d="M81.4 31.9h7.4l7.4 18.8c.9 2.2 1.9 5.6 1.9 5.6h.1s1-3.3 1.9-5.6l7.4-18.8h7.4l3 37.9h-6.8l-1.6-21.2c-.2-2.5-.1-5.9-.1-5.9h-.1s-1.1 3.7-2 5.9l-6.1 14.7h-6L89 48.6c-.9-2.2-2.1-5.9-2.1-5.9h-.1s.1 3.4-.1 5.9l-1.6 21.2h-6.9l3.2-37.9zm53.5 10c8.3 0 15 5.9 15 14.3s-6.7 14.3-15 14.3-15-5.9-15-14.3c.1-8.3 6.7-14.3 15-14.3zm.1 22.8c4.4 0 8.1-3.4 8.1-8.5 0-5-3.7-8.5-8.1-8.5-4.4 0-8.1 3.5-8.1 8.5 0 5.1 3.6 8.5 8.1 8.5zm30.6-22.8c6 0 7.9 3.5 7.9 3.5h.1s-.1-.7-.1-1.6v-12h6.8v37.9h-6.4v-2.2c0-1 .1-1.8.1-1.8h-.1s-2.3 4.6-8.5 4.6c-7.4 0-12.1-5.8-12.1-14.3-.1-8.5 5.1-14.1 12.3-14.1zm1.3 22.8c3.5 0 6.8-2.6 6.8-8.6 0-4.2-2.2-8.4-6.8-8.4-3.7 0-6.8 3-6.8 8.4 0 5.3 2.8 8.6 6.8 8.6zm18-22.1h6.8v16.1c0 3.3.9 5.6 4.2 5.6 4.9 0 7.6-4.3 7.6-9.2V42.6h6.8v27.3h-6.5v-3.1c0-1.1.1-1.9.1-1.9h-.1c-1.3 2.8-4.8 5.7-9.5 5.7-5.8 0-9.5-2.9-9.5-10.4V42.6zm32.4 19.1s3 3 7.4 3c1.9 0 3.6-.9 3.6-2.5 0-4.1-13.2-3.5-13.2-12.3 0-5.1 4.5-8 10.4-8 6.1 0 9.1 3.1 9.1 3.1l-2.5 5s-2.5-2.4-6.7-2.4c-1.8 0-3.5.7-3.5 2.5 0 3.8 13.3 3.4 13.3 12.1 0 4.5-4 8.2-10.4 8.2-6.8 0-10.6-4-10.6-4l3.1-4.7zm51.5-30.5c9.2 0 14 5.2 14 5.2l-3.3 5.1s-4.3-4-10.4-4c-8 0-12.7 6-12.7 13 0 7.2 4.9 13.6 12.8 13.6 6.6 0 11-4.8 11-4.8l3.6 5s-5.2 6.1-14.9 6.1c-11.6 0-19.6-8.6-19.6-19.8 0-10.9 8.3-19.4 19.5-19.4zm18.7 11.4h6.5v4.7c0 1-.1 1.9-.1 1.9h.1c1.2-3.9 4.5-7 8.7-7 .6 0 1.2.1 1.2.1V49s-.7-.1-1.6-.1c-2.9 0-6.1 1.7-7.4 5.7-.4 1.3-.6 2.8-.6 4.4v10.8h-6.8V42.6zm32.1-.7c7.8 0 12.1 5.7 12.1 12.9 0 .8-.2 2.6-.2 2.6h-18.8c.4 4.8 4.1 7.2 8.2 7.2 4.4 0 7.9-3 7.9-3l2.6 4.9s-4.2 3.9-11 3.9c-9 0-14.6-6.5-14.6-14.3-.1-8.3 5.6-14.2 13.8-14.2zm5.2 10.9c-.1-3.7-2.4-5.7-5.4-5.7-3.5 0-5.9 2.1-6.5 5.7h11.9zm26.3-.1h.9v-.4c0-3.6-2.2-4.8-5.2-4.8-3.9 0-7.5 2.6-7.5 2.6l-2.6-4.9s4.2-3.4 10.7-3.4c7.2 0 11.3 4 11.3 10.8v17h-6.3v-2.2c0-1.1.1-1.9.1-1.9h-.1c.1 0-2.1 4.8-8.3 4.8-4.9 0-9.3-3.1-9.3-8.5.1-8.5 11.8-9.1 16.3-9.1zm-5.2 12.5c3.6 0 6.1-3.8 6.1-7.2v-.6h-1.2c-3.5 0-9.1.5-9.1 4.3.1 1.8 1.4 3.5 4.2 3.5zm19.2-16.8h-3.5V43h3.7v-7.9h6.6V43h6.2v5.4h-6.2V59c0 4.5 3.5 5.1 5.4 5.1.7 0 1.2-.1 1.2-.1v5.9s-.8.2-2.1.2c-3.8 0-11.3-1.1-11.3-10.3V48.4zm29.8-6.5c7.9 0 12.1 5.7 12.1 12.9 0 .8-.2 2.6-.2 2.6H388c.4 4.8 4.1 7.2 8.2 7.2 4.4 0 7.9-3 7.9-3l2.6 4.9s-4.2 3.9-11 3.9c-9 0-14.6-6.5-14.6-14.3-.1-8.3 5.6-14.2 13.8-14.2zm5.2 10.9c-.1-3.7-2.4-5.7-5.4-5.7-3.5 0-5.9 2.1-6.5 5.7h11.9z"/></svg>