<svg width="32" height="32" viewBox="0 0 32 32" xmlns="http://www.w3.org/2000/svg"><title>arrow</title><defs><linearGradient x1="0%" y1="0%" y2="100%" id="a"><stop stop-color="#F37055" offset="0%"/><stop stop-color="#EF4E7B" offset="51.8%"/><stop stop-color="#A166AB" offset="100%"/></linearGradient></defs><path d="M497.6 442c-.24 0-.4-.08-.56-.24a.773.773 0 0 1 0-1.12l5.84-5.84-5.84-5.84a.773.773 0 0 1 0-1.12c.32-.32.8-.32 1.12 0l6.4 6.4c.32.32.32.8 0 1.12l-6.4 6.4c-.16.16-.4.24-.56.24zm2.4 8c-8.8 0-16-7.2-16-16s7.2-16 16-16c3.6 0 6.96 1.2 9.84 3.36.32.24.4.8.16 1.12-.24.32-.8.4-1.12.16-2.56-2-5.68-3.04-8.88-3.04-7.92 0-14.4 6.48-14.4 14.4s6.48 14.4 14.4 14.4 14.4-6.48 14.4-14.4c0-2.56-.72-5.12-2-7.36-.24-.4-.08-.88.24-1.12.4-.24.88-.08 1.12.24 1.44 2.56 2.24 5.36 2.24 8.24 0 8.8-7.2 16-16 16z" transform="translate(-484 -418)" fill="url(#a)"/></svg>