<svg width="22" height="23" viewBox="0 0 22 23" xmlns="http://www.w3.org/2000/svg"><title>icon/arrow</title><path d="M9.4 15.953a.448.448 0 0 1-.35-.155.51.51 0 0 1 0-.721l3.65-3.764-3.65-3.765a.51.51 0 0 1 0-.721c.2-.207.5-.207.7 0l4 4.125c.2.206.2.515 0 .721l-4 4.125a.532.532 0 0 1-.35.155zm1.6 5.672c-5.5 0-10-4.64-10-10.313C1 5.641 5.5 1 11 1c2.25 0 4.35.773 6.15 2.166.2.154.25.515.1.722-.15.206-.5.257-.7.103A8.814 8.814 0 0 0 11 2.03c-4.95 0-9 4.177-9 9.281 0 5.105 4.05 9.282 9 9.282s9-4.177 9-9.282c0-1.65-.45-3.3-1.25-4.743a.566.566 0 0 1 .15-.722c.25-.155.55-.052.7.155.9 1.65 1.4 3.454 1.4 5.31 0 5.672-4.5 10.313-10 10.313z" stroke="#FFF" fill="#FFF"/></svg>