<svg xmlns="http://www.w3.org/2000/svg" viewBox="0 0 22 23"><title>icon/arrow</title><path fill="#FFF" stroke="#FFF" d="M6.4 9.7c0-.1.1-.2.2-.3.2-.2.5-.2.7 0L11 13l3.8-3.6c.2-.2.5-.2.7 0 .2.2.2.5 0 .7l-4.1 4c-.2.2-.5.2-.7 0l-4.1-4c-.2-.1-.2-.3-.2-.4zM.7 11.3c0-5.5 4.6-10 10.3-10s10.3 4.5 10.3 10c0 2.2-.8 4.4-2.2 6.1-.2.2-.5.2-.7.1-.2-.1-.3-.5-.1-.7 1.3-1.6 2-3.6 2-5.6 0-4.9-4.2-9-9.3-9s-9.3 4.1-9.3 9 4.2 9 9.3 9c1.6 0 3.3-.5 4.7-1.2.3-.1.6 0 .7.1.2.2.1.6-.2.7-1.7.9-3.5 1.4-5.3 1.4C5.3 21.3.7 16.8.7 11.3z"/></svg>