<svg width="74" height="20" viewBox="0 0 74 20" xmlns="http://www.w3.org/2000/svg"><title>gh-logo-white</title><g fill="#535656"><path d="M14.22 8.508H8.017a.29.29 0 0 0-.289.288v3.02c0 .16.13.289.289.29h2.419v3.753s-.543.184-2.05.184c-1.773 0-4.25-.645-4.25-6.065S6.72 3.84 9.14 3.84c2.095 0 3 .367 3.573.545a.292.292 0 0 0 .347-.284l.693-2.918a.269.269 0 0 0-.111-.225C13.408.792 11.986 0 8.39 0 4.25 0 0 1.755 0 10.188c0 8.432 4.864 9.692 8.964 9.692 3.395 0 5.453-1.445 5.453-1.445a.248.248 0 0 0 .094-.219V8.798a.287.287 0 0 0-.291-.29zM46.196 1.02a.287.287 0 0 0-.28-.3h-3.484a.292.292 0 0 0-.307.3v6.713H36.68V1.02a.287.287 0 0 0-.289-.29h-3.485a.292.292 0 0 0-.297.29v18.19a.29.29 0 0 0 .29.292h3.484a.292.292 0 0 0 .289-.292v-7.78h5.453v7.783a.29.29 0 0 0 .289.292h3.5a.292.292 0 0 0 .29-.292L46.196 1.02z"/><ellipse cx="18.559" cy="3.4" rx="2.253" ry="2.265"/><path d="M20.562 15.371V6.97a.29.29 0 0 0-.289-.29h-3.485a.333.333 0 0 0-.303.325v12.04c0 .354.221.46.508.46h3.14c.345 0 .43-.167.43-.465v-3.67zM59.47 6.708h-3.466a.292.292 0 0 0-.289.292v8.918a3.93 3.93 0 0 1-2.13.641c-1.25 0-1.582-.565-1.582-1.783V6.998a.29.29 0 0 0-.29-.292h-3.517a.292.292 0 0 0-.289.292v8.367c0 3.619 2.026 4.504 4.813 4.504 2.286 0 4.13-1.257 4.13-1.257.03.25.073.496.128.741a.306.306 0 0 0 .254.157h2.239a.29.29 0 0 0 .289-.29V6.998a.29.29 0 0 0-.29-.29zm9.477-.41a6.54 6.54 0 0 0-3.308.875V1.02a.287.287 0 0 0-.29-.29h-3.503a.29.29 0 0 0-.289.29v18.19a.29.29 0 0 0 .29.292h2.43a.29.29 0 0 0 .255-.155c.07-.276.12-.556.147-.839 0 0 1.435 1.351 4.145 1.351 3.184 0 5.01-1.608 5.01-7.218 0-5.61-2.909-6.343-4.887-6.343zM67.58 16.551a4.17 4.17 0 0 1-2.017-.58v-5.767c.55-.314 1.16-.51 1.791-.58 1.249-.112 2.46.264 2.46 3.23-.01 3.132-.553 3.75-2.234 3.7v-.003zM30.602 6.678h-2.62V3.23c0-.131-.067-.204-.219-.204h-3.575c-.139 0-.205.06-.205.193v3.572s-1.79.43-1.91.465a.29.29 0 0 0-.205.278V9.78a.29.29 0 0 0 .27.283h1.845v5.384c0 4 2.819 4.392 4.715 4.392a8.004 8.004 0 0 0 2.08-.341.27.27 0 0 0 .165-.261v-2.461a.295.295 0 0 0-.29-.29c-.151 0-.543.06-.944.06-1.288 0-1.724-.595-1.724-1.366v-5.117h2.62a.29.29 0 0 0 .288-.29V6.97a.287.287 0 0 0-.29-.291z"/></g></svg>