<svg width="18" height="16" viewBox="0 0 18 16" xmlns="http://www.w3.org/2000/svg"><title>heart</title><path d="M15.948 1.39C15.226.513 14.21.07 12.892 0c-1.348 0-2.348.583-3.056 1.39-.709.805-1.084 1.277-1.112 1.388-.028-.11-.389-.583-1.111-1.389C6.89.583 5.988 0 4.557 0 3.237.07 2.209.528 1.5 1.39.778 2.236.417 3.166.389 4.167c0 .722.125 2.111.93 3.709.807 1.597 3.252 4.084 7.405 7.404 4.14-3.32 6.627-5.793 7.418-7.404.792-1.612.917-3.015.917-3.71-.028-1-.389-1.93-1.111-2.806v.028z" fill="#0A283C"/></svg>