<svg xmlns="http://www.w3.org/2000/svg" viewBox="0 0 110 60"><title>planet 1</title><path fill="#A166AB" d="M101.3 31.1c-4.2-1.6-10.1-3.3-17.2-5-.7-4.8-2.5-9.4-5.5-13.4C73.9 6.4 67 2.2 59.3 1 46-1 33.5 6.2 28.1 17.7c-7.3-.5-13.6-.6-18.1-.3-4.9.3-9.4 1.1-10 4.5-.5 3 2.2 5.9 16.4 10 2.8.8 5.9 1.6 9.1 2.4 1.8 12.6 11.6 23.1 24.8 25.1 1.5.2 3 .3 4.5.3 6.3 0 12.3-2 17.5-5.8 4-3 7.2-6.8 9.2-11.2 3.4.2 6.5.4 9.4.5h3c12.3 0 15.2-1.9 15.6-4.7.7-3.4-3.6-5.6-8.2-7.4zM54.8 5.9c1.2 0 2.4.1 3.7.3 6.4 1 12.1 4.4 16 9.6 2.7 3.7 4.3 7.9 4.7 12.4v.6c.1 1.7 0 3.4-.2 5.1-.2 1.2-.4 2.3-.8 3.4-6.9-.6-14.9-1.5-23.9-2.9-9-1.4-16.9-2.9-23.7-4.4 0-1.1.1-2.3.3-3.5C32.6 14.5 43 5.9 54.8 5.9zM6.7 23c2.9-.5 8.9-.9 19.5-.2-.3 1-.5 2-.6 3-.2 1-.3 2-.3 3.1-9.2-2.3-15.6-4.4-18.6-5.9zm62.6 26.8c-5.2 3.9-11.7 5.4-18.1 4.5-10.2-1.6-18-9.3-20.1-18.8 6.9 1.5 14.4 2.8 22.3 4 7.9 1.2 15.5 2.1 22.5 2.8-1.6 2.9-3.8 5.4-6.6 7.5zm14.1-12.1c.3-1 .5-2 .6-3.1.2-1 .3-2.1.3-3.1 10.4 2.5 16 4.6 18.6 6-3.2.6-10 .8-19.5.2z"/></svg>