<svg width="22" height="22" viewBox="0 0 22 22" xmlns="http://www.w3.org/2000/svg"><title>icon/close</title><g stroke="#FFF" fill="#FFF"><path d="M15.55 14.4c.2.2.2.5 0 .7-.1.1-.25.15-.35.15a.54.54 0 0 1-.35-.15l-3.4-3.4-3.4 3.4c-.1.1-.25.15-.35.15a.54.54 0 0 1-.35-.15c-.2-.2-.2-.5 0-.7l3.4-3.4-3.4-3.4c-.2-.2-.2-.5 0-.7.2-.2.5-.2.7 0l3.4 3.4 3.4-3.4c.2-.2.5-.2.7 0 .2.2.2.5 0 .7l-3.4 3.4 3.4 3.4z"/><path d="M11.45 21c-5.5 0-10-4.5-10-10s4.5-10 10-10c2.25 0 4.35.75 6.15 2.1.2.15.25.5.1.7-.15.2-.5.25-.7.1C15.4 2.65 13.5 2 11.5 2c-4.95 0-9 4.05-9 9s4.05 9 9 9 9-4.05 9-9c0-1.6-.45-3.2-1.25-4.6-.15-.25-.05-.55.15-.7.25-.15.55-.05.7.15.9 1.55 1.4 3.3 1.4 5.1C21.45 16.5 16.95 21 11.45 21z"/></g></svg>