<svg xmlns="http://www.w3.org/2000/svg" viewBox="0 0 24.7 28.5"><path fill="#22292C" d="M17.7 26.7v-4.9c0-1.7-.6-2.8-1.2-3.3 4-.4 8.2-2 8.2-8.9 0-2-.7-3.6-1.9-4.8.2-.5.8-2.3-.2-4.7 0 0-1.5-.5-4.9 1.8-1.4-.4-3-.6-4.5-.6s-3.1.2-4.5.6C5.3-.4 3.8 0 3.8 0c-1 2.5-.4 4.3-.2 4.7C2.5 6 1.8 7.6 1.8 9.6c0 6.9 4.2 8.4 8.2 8.9-.5.4-1 1.2-1.1 2.4-1 .5-3.6 1.3-5.2-1.5 0 0-1-1.7-2.8-1.8 0 0-1.8 0-.1 1.1 0 0 1.2.6 2 2.6 0 0 1 3.2 6 2.1v3.3c0 .5-.3 1-1.1.9 1.8.6 3.6.9 5.6.9 2 0 3.8-.3 5.6-.9-.9.1-1.2-.4-1.2-.9z"/></svg>