<svg xmlns="http://www.w3.org/2000/svg" viewBox="0 0 88 55"><title>planet 2</title><path fill="#1098AD" d="M87.7 15c-.2-2.2-1.9-4.8-9.5-4.6-5.1.1-10.2 1.5-15.5 3.7-2.6-4.7-6.6-8.5-11.5-11C44.7 0 37.4-.5 30.6 1.8 19.5 5.5 12.4 15.9 12.3 27.1 6.1 29.7 1.3 34.3.6 38.5c-.3 1.9.3 3.6 1.7 4.7C3.4 44 5 44.5 7 44.5c2.6 0 5.8-.7 9.8-2.2 2.6 3.9 6.2 7.1 10.5 9.2 3.8 1.9 7.8 2.8 11.9 2.8 2.9 0 5.8-.5 8.6-1.4 6.8-2.3 12.3-7.1 15.5-13.6 1.5-3.1 2.4-6.4 2.7-9.8 10.3-1.8 22.1-8.7 21.7-14.5zM31.8 5.4c2.4-.8 4.9-1.2 7.4-1.2 3.5 0 7 .8 10.2 2.4 4.1 2 7.5 5.2 9.7 9.1-5.1 2.4-10.3 5.5-15.9 8.7-7.7 4.5-15.7 9.1-24.7 13h-.1c-.4-.9-.8-1.8-1.2-2.8-3.9-12 2.6-25.1 14.6-29.2zM4.7 40.1c-.1-.1-.4-.3-.3-1 .3-1.9 3.1-5.5 8.2-7.9.2 1.6.6 3.2 1.1 4.8.3 1 .7 2 1.2 2.9-7.9 2.8-10 1.4-10.2 1.2zm55.2-2.5c-2.7 5.5-7.5 9.7-13.3 11.6-5.8 2-12.1 1.5-17.6-1.2-3.4-1.7-6.3-4.2-8.5-7.2 9-3.9 17-8.5 24.7-13 5.5-3.2 10.6-6.2 15.6-8.5.1.2.2.5.3.7 1.9 5.8 1.5 12.1-1.2 17.6zm6.2-12c-.2-2.3-.6-4.6-1.4-6.9-.1-.4-.3-.7-.4-1.1 4.8-2 9.4-3.3 13.9-3.4 4.5-.1 5.6.9 5.6 1 .2 2.2-7.9 8.5-17.7 10.4z"/></svg>