<svg xmlns="http://www.w3.org/2000/svg"><symbol id="shape-arrow-right" viewBox="0 0 20 16"><title>Shape</title><path d="M1 7h15.4l-5.3-5.3c-.4-.4-.4-1 0-1.4.4-.4 1-.4 1.4 0l7 7s.1.1.1.2v1s0 .1-.1.1v.1c0 .1-.1.1-.1.2l-7 7c-.4.4-1 .4-1.4 0-.4-.4-.4-1 0-1.4l5.3-5.3H1c-.5 0-1-.4-1-1C0 7.5.4 7 1 7z"/></symbol><symbol id="shape-close" viewBox="0 0 22 22"><title>icon/close</title><g fill-rule="nonzero" stroke="#FFF"><path d="M15.55 14.4c.2.2.2.5 0 .7-.1.1-.25.15-.35.15a.54.54 0 0 1-.35-.15l-3.4-3.4-3.4 3.4c-.1.1-.25.15-.35.15a.54.54 0 0 1-.35-.15c-.2-.2-.2-.5 0-.7l3.4-3.4-3.4-3.4c-.2-.2-.2-.5 0-.7.2-.2.5-.2.7 0l3.4 3.4 3.4-3.4c.2-.2.5-.2.7 0 .2.2.2.5 0 .7l-3.4 3.4 3.4 3.4z"/><path d="M11.45 21c-5.5 0-10-4.5-10-10s4.5-10 10-10c2.25 0 4.35.75 6.15 2.1.2.15.25.5.1.7-.15.2-.5.25-.7.1C15.4 2.65 13.5 2 11.5 2c-4.95 0-9 4.05-9 9s4.05 9 9 9 9-4.05 9-9c0-1.6-.45-3.2-1.25-4.6-.15-.25-.05-.55.15-.7.25-.15.55-.05.7.15.9 1.55 1.4 3.3 1.4 5.1C21.45 16.5 16.95 21 11.45 21z"/></g></symbol><symbol id="shape-cluster" viewBox="0 0 162 120"><title>Group 6</title><g fill-rule="nonzero" fill-opacity=".2"><ellipse cx="15.571" cy="56.726" rx="1.673" ry="1.673"/><ellipse cx="135.36" cy="3.635" rx="3.635" ry="3.635"/><ellipse cx="3.561" cy="38.191" rx="3.561" ry="3.56"/><ellipse cx="32.132" cy="116.428" rx="3.561" ry="3.56"/><ellipse cx="159.553" cy="36.37" rx="2.283" ry="2.283"/><ellipse cx="17.245" cy="104.478" rx="1.368" ry="1.368"/><ellipse cx="152.167" cy="49.935" rx="1.368" ry="1.368"/></g></symbol><symbol id="shape-code" viewBox="0 0 20 15"><title>code</title><path d="M13.197.39l-2.084 2.083 4.862 4.862-4.862 4.862 2.084 2.084 6.251-6.946-6.25-6.946zm-6.946 0L0 7.334l6.251 6.946 2.084-2.084-4.862-4.862 4.862-4.862L6.251.389z" fill-rule="nonzero"/></symbol><symbol id="shape-event-logo-mark" viewBox="0 0 313.2 298.8"><circle cx="52.6" cy="128.4" r="2.9"/><circle cx="237.7" cy="46.3" r="5.9"/><circle cx="34" cy="99.7" r="5.8"/><circle cx="78.2" cy="220.7" r="5.8"/><circle cx="275.1" cy="96.9" r="3.8"/><circle cx="55.1" cy="202.2" r="2.4"/><circle cx="263.7" cy="117.9" r="2.4"/><g><path d="M151.7 228.5l-.2-.7c-.1-.3-.1-.5-.1-.7 0-.5.1-1.1.3-1.6l.2-.6-.6-.1c-26.3-3.5-48.3-17.1-60.2-37.2-2.4-4.1-4.4-8.2-5.9-12.2 1.9-1.2 3.1-3.3 3.1-5.6 0-3.7-3-6.7-6.7-6.7h-.1c-5.9-27.1 2-55 21-74.9 1 .7 2.3 1 3.6 1 3.7 0 6.7-3 6.7-6.7 0-2.6-1.5-4.9-3.8-6 3-8 9.8-15.1 18.4-19.2.8-.4 1.8-.2 2.4.4.8.8 1.6 1.8 2.3 2.8l.3.5.4-.4c.6-.6 1.1-.9 1.8-1.2l.6-.2-.4-.5c-.9-1.2-1.8-2.3-2.8-3.3-1.7-1.7-4.2-2.1-6.3-1.1-9.5 4.5-17.1 12.5-20.2 21.6-3.5.2-6.2 3.1-6.2 6.7 0 1.1.2 2.1.8 3.1-20 20.8-28.2 50.1-22 78.5-2 1.2-3.3 3.4-3.3 5.8 0 3.7 3 6.7 6.7 6.7h.3c1.8 4.7 3.9 9.1 6.3 12.9 12.5 21 35.4 35.2 62.8 38.8l.8.1zm-49-146c0-1.5 1.1-2.9 2.6-3.2.2-.1.4-.1.6-.1.6 0 1 .1 1.4.4 1.2.5 1.9 1.7 1.9 2.9 0 1.8-1.5 3.3-3.3 3.3-.6 0-1.2-.2-1.8-.5-.7-.4-1.1-1.2-1.3-1.6 0-.3-.1-.8-.1-1.2zm-18 87.3c0 1.1-.5 2.1-1.4 2.7-.5.3-1.1.5-1.8.5h-.2c-1.8-.1-3.1-1.5-3.1-3.3 0-1.1.5-2.1 1.4-2.6.6-.5 1.3-.6 1.9-.6 1.8 0 3.2 1.4 3.2 3.3zM142.2 64.3v.6l.6-.1c19.8-4.7 40.5-2.1 58.4 7.4 11.9 6.2 19.5 13.6 22.5 21.9-2.2 1.2-3.5 3.4-3.5 5.8 0 2.9 1.9 5.5 4.7 6.4.3 8.1 1.3 16.7 2.8 25l.1.6.6-.2c.7-.3 1.4-.5 2.1-.5h.6l-.1-.6c-1.5-7.8-2.5-16.1-2.8-24.2 3-.7 5.2-3.4 5.2-6.5 0-3.6-2.9-6.6-6.5-6.7-3.3-9.2-11.5-17.3-24.2-24-18.7-9.9-40.2-12.6-60.7-7.6l-.6.2.3.6c.3.5.5 1.2.5 1.9zm81.4 35.5c0-1.1.6-2.2 1.6-2.9.6-.3 1.1-.4 1.7-.4h.5c1.6.2 2.9 1.5 2.9 3.2 0 1.5-1 2.9-2.6 3.2-.6.2-1.4.1-2-.2-1.3-.4-2.1-1.6-2.1-2.9zM172.2 257.8v-.5c0-.2.1-.4.1-.7v-.5h-38.2c-.3-1.2-1-2.3-1.9-3.2 4.8-7.9 11.8-15 20.6-21.2l.4-.3-.3-.4c-.5-.6-.9-1.1-1.2-1.9l-.2-.6-.5.4c-9.3 6.4-16.6 13.9-21.7 22.4-.5-.1-1.1-.2-1.6-.2a6.7 6.7 0 0 0 0 13.4c3.1 0 5.7-2.1 6.4-5h38.4l-.2-.6c-.1-.4-.1-.7-.1-1.1zm-41.5 1c-.5 1.4-1.7 2.3-3.1 2.3-1.8 0-3.3-1.5-3.3-3.3s1.5-3.3 3.3-3.3H128.2c.7.1 1.4.4 1.8 1 .3.3.6.8.8 1.3.1.4.2.7.2 1.1-.1.3-.1.6-.3.9zM252.5 169.3c-1.1-4.1-2.6-6.9-4.7-9 .3-1 .3-2 .1-2.9-.3-1.8-1.3-3.3-2.7-4.1-2-1.3-4.6-1.5-6.5-.6-.4-.5-.8-1-1.1-1.6-.9-1.5-2.1-4.5-3.3-8.9l-.3-1.1-.8.6c-.7.3-1.3.5-2 .6h-1l.3 1c1.3 4.3 2.6 7.8 3.7 9.9.8 1.4 1.8 2.5 3 3.7.5.5 1.1.5 1.6.5s1-.3 1.5-.8c.4-.6 1.8-.7 2.9 0 .7.4.9 1.2 1 1.5.1.9 0 1.4-.1 1.6-.5.8-.4 2 .3 2.6 1.2 1.1 2.9 3 4 6.6-.1.1-.2.1-.4.2-1 .4-1.5 1.5-1 2.5l.1.1c.6 3.8.4 7.2-.6 10.1v.1c0 .1-.1.2-.1.4-4 10.8-15.7 19.9-24.8 25.7l-.7.5.5.8c.4.5.7 1 1 1.8l.3 1.1.9-.6c9.8-6.2 22.4-16.2 26.6-28.3l.1-.1v-.2c0-.1.1-.2.1-.3 1-3.3 1.3-6.9.7-10.6.4-.3.7-.5 1.1-.8.2-.6.4-1.3.3-2zM212 214.3l-.3-1.1-.8.6c-2.8 1.5-5.6 2.7-8.5 4-10.2 4.3-21.3 6.9-33 7.5-.8 0-1.5.5-1.8 1.2-.3.7-.1 1.6.4 2.1 3.8 4.2 8.4 12.9 8.5 23.2v1l1-.2c.6-.1 1.2-.1 2.1.2l1 .3v-1c0-8.1-2.6-16.6-7.1-23 10.6-.9 20.9-3.4 30.5-7.6 3-1.3 6-2.7 8.9-4.2l1-.5-.9-.8c-.5-.6-.8-1.1-1-1.7zM157 222.6c-1.8-.1-3.5 1-4.2 2.7-.2.5-.4 1.2-.4 1.9 0 .3 0 .7.1 1.1.2.9.7 1.7 1.6 2.5.8.7 1.8 1 2.9 1 2.6 0 4.6-2 4.6-4.6s-2-4.6-4.6-4.6z"/><path d="M133.2 61.8c-.7.9-1 1.9-1 2.9 0 2.6 2 4.6 4.6 4.6 2.5 0 4.5-1.9 4.6-4.5v-.1c0-1-.3-1.9-.8-2.6-.9-1.3-2.3-2-3.8-2-.3 0-.7 0-1.1.1-.9.2-1.8.8-2.5 1.6zM179.9 253.7c-.9-.4-1.9-.6-2.9-.3-1.6.4-2.9 1.5-3.4 3-.2.6-.2 1.1-.2 1.5 0 .4.1.7.2 1.2l.1.3c.7 1.9 2.4 3.1 4.4 3.1 2.6 0 4.6-2 4.6-4.6-.1-1.8-1.1-3.4-2.8-4.2zM231 132.2c-.8-.1-1.7.1-2.7.6-1.4.8-2.4 2.3-2.4 3.9 0 2.4 1.9 4.4 4.4 4.6h.2c1 0 1.9-.3 2.6-.8 1.3-.9 2-2.2 2-3.8.1-2.3-1.6-4.3-4.1-4.5zM220.3 209.2c-.9-.9-2-1.3-3.3-1.3-2.6 0-4.6 2-4.6 4.6 0 .3 0 .7.1 1.1.2.9.7 1.7 1.6 2.5.8.7 1.8 1 2.9 1 2.6 0 4.6-2 4.6-4.6 0-.2 0-.4-.1-.7-.1-1-.6-1.9-1.2-2.6z"/></g><path d="M313.2 298.8H0V0h313.2v298.8zM3.9 295h305.5V3.8H3.9V295z"/></symbol><symbol id="shape-github-logo" viewBox="0 0 74 20"><title>gh-logo-white</title><g fill-rule="nonzero"><path d="M14.22 8.508H8.017a.29.29 0 0 0-.289.288v3.02c0 .16.13.289.289.29h2.419v3.753s-.543.184-2.05.184c-1.773 0-4.25-.645-4.25-6.065S6.72 3.84 9.14 3.84c2.095 0 3 .367 3.573.545a.292.292 0 0 0 .347-.284l.693-2.918a.269.269 0 0 0-.111-.225C13.408.792 11.986 0 8.39 0 4.25 0 0 1.755 0 10.188c0 8.432 4.864 9.692 8.964 9.692 3.395 0 5.453-1.445 5.453-1.445a.248.248 0 0 0 .094-.219V8.798a.287.287 0 0 0-.291-.29zM46.196 1.02a.287.287 0 0 0-.28-.3h-3.484a.292.292 0 0 0-.307.3v6.713H36.68V1.02a.287.287 0 0 0-.289-.29h-3.485a.292.292 0 0 0-.297.29v18.19a.29.29 0 0 0 .29.292h3.484a.292.292 0 0 0 .289-.292V11.43h5.453v7.783a.29.29 0 0 0 .289.292h3.5a.292.292 0 0 0 .29-.292L46.196 1.02z"/><ellipse cx="18.559" cy="3.4" rx="2.253" ry="2.265"/><path d="M20.562 15.371V6.97a.29.29 0 0 0-.289-.29h-3.485a.333.333 0 0 0-.303.325v12.04c0 .354.221.46.508.46h3.14c.345 0 .43-.167.43-.465V15.37zM59.47 6.708h-3.466a.292.292 0 0 0-.289.292v8.918a3.93 3.93 0 0 1-2.13.641c-1.25 0-1.582-.565-1.582-1.783V6.998a.29.29 0 0 0-.29-.292h-3.517a.292.292 0 0 0-.289.292v8.367c0 3.619 2.026 4.504 4.813 4.504 2.286 0 4.13-1.257 4.13-1.257.03.25.073.496.128.741a.306.306 0 0 0 .254.157h2.239a.29.29 0 0 0 .289-.29V6.998a.29.29 0 0 0-.29-.29zM68.947 6.298a6.54 6.54 0 0 0-3.308.875V1.02a.287.287 0 0 0-.29-.29h-3.503a.29.29 0 0 0-.289.29v18.19a.29.29 0 0 0 .29.292h2.43a.29.29 0 0 0 .255-.155c.07-.276.12-.556.147-.839 0 0 1.435 1.351 4.145 1.351 3.184 0 5.01-1.608 5.01-7.218 0-5.61-2.909-6.343-4.887-6.343zM67.58 16.551a4.17 4.17 0 0 1-2.017-.58v-5.767c.55-.314 1.16-.51 1.791-.58 1.249-.112 2.46.264 2.46 3.23-.01 3.132-.553 3.75-2.234 3.7v-.003zM30.602 6.678h-2.62V3.23c0-.131-.067-.204-.219-.204h-3.575c-.139 0-.205.06-.205.193v3.572s-1.79.43-1.91.465a.29.29 0 0 0-.205.278V9.78a.29.29 0 0 0 .27.283h1.845v5.384c0 4 2.819 4.392 4.715 4.392a8.004 8.004 0 0 0 2.08-.341.27.27 0 0 0 .165-.261v-2.461a.295.295 0 0 0-.29-.29c-.151 0-.543.06-.944.06-1.288 0-1.724-.595-1.724-1.366v-5.117h2.62a.29.29 0 0 0 .288-.29V6.97a.287.287 0 0 0-.29-.291z"/></g></symbol><symbol id="shape-github" viewBox="0 0 32 32"><title>Combined Shape</title><path d="M16 0c8.837 0 16 7.163 16 16s-7.163 16-16 16S0 24.837 0 16 7.163 0 16 0zm3.296 25.083l-.002-4.237c0-.479-.264-1.521-.605-1.817 2.646-.298 4.845-1.816 4.845-4.844 0-3.028-.607-3.635-1.211-4.24.122-.298.629-1.402-.019-3.027 0 0-1.193 0-2.404 1.816-.6-.6-2.423-.605-3.027-.605-.607 0-2.429.005-3.029.605-1.211-1.816-2.401-1.816-2.401-1.816-.648 1.625-.14 2.729-.018 3.027-.606.607-1.214 1.212-1.214 4.24 0 3.028 2.201 4.547 4.846 4.844-.34.296-.604 1.212-.604 1.817-.68.302-2.57.593-3.633-1.212 0 0-.606-1.211-1.817-1.211 0 0-1.212-.114 0 .605 0 0 .607.605 1.211 1.817 0 0 .925 2.53 4.24 1.816.007.985 0 2.422 0 2.422H19.296z" fill-rule="nonzero"/></symbol><symbol id="shape-heart" viewBox="0 0 18 16"><title>heart</title><path d="M15.948 1.39C15.226.513 14.21.07 12.892 0c-1.348 0-2.348.583-3.056 1.39-.709.805-1.084 1.277-1.112 1.388-.028-.11-.389-.583-1.111-1.389C6.89.583 5.988 0 4.557 0 3.237.07 2.209.528 1.5 1.39.778 2.236.417 3.166.389 4.167c0 .722.125 2.111.93 3.709.807 1.597 3.252 4.084 7.405 7.404 4.14-3.32 6.627-5.793 7.418-7.404.792-1.612.917-3.015.917-3.71-.028-1-.389-1.93-1.111-2.806v.028z" fill-rule="nonzero"/></symbol><symbol id="shape-twitter" viewBox="0 0 25 24"><title>Fill 1</title><path d="M18.2 9.6c.2 4-2.8 8.5-8.2 8.5-1.6 0-3.1-.5-4.4-1.3 1.5.2 3.1-.2 4.3-1.2-1.3 0-2.3-.9-2.7-2 .5.1.9.1 1.3 0-1.4-.3-2.3-1.5-2.3-2.9.4.2.8.3 1.3.4-1.3-.9-1.6-2.5-.9-3.8 1.4 1.7 3.5 2.9 5.9 3-.4-1.8.9-3.5 2.8-3.5.8 0 1.6.3 2.1.9.6-.1 1.2-.4 1.8-.7-.2.7-.7 1.2-1.3 1.6.6-.1 1.1-.2 1.7-.5-.4.6-.9 1.1-1.4 1.5M12.1 0C5.4 0 0 5.4 0 12s5.4 12 12.1 12 12.1-5.4 12.1-12S18.7 0 12.1 0"/></symbol></svg>